<svg width="42" height="42" viewBox="0 0 42 42" fill="none" xmlns="http://www.w3.org/2000/svg">
<path fill-rule="evenodd" clip-rule="evenodd" d="M39 21C39 30.9411 30.9411 39 21 39C11.0589 39 3 30.9411 3 21C3 11.0589 11.0589 3 21 3C30.9411 3 39 11.0589 39 21ZM42 21C42 32.598 32.598 42 21 42C9.40202 42 0 32.598 0 21C0 9.40202 9.40202 0 21 0C32.598 0 42 9.40202 42 21ZM23.509 20.7609C24.529 21.4409 25.039 22.3476 25.039 23.4809C25.039 24.6143 24.6707 25.5039 23.934 26.1499C23.2087 26.7846 22.285 27.1019 21.163 27.1019C20.041 27.1019 19.1117 26.7846 18.375 26.1499C17.6497 25.5039 17.287 24.6143 17.287 23.4809C17.287 22.3363 17.7914 21.4296 18.8 20.7609C17.8934 20.1263 17.44 19.2876 17.44 18.2449C17.44 17.2023 17.797 16.3693 18.511 15.7459C19.2364 15.1113 20.1204 14.7939 21.163 14.7939C22.2057 14.7939 23.084 15.1113 23.798 15.7459C24.512 16.3693 24.869 17.2023 24.869 18.2449C24.869 19.2876 24.4157 20.1263 23.509 20.7609ZM22.336 24.6369C22.6647 24.3083 22.829 23.9116 22.829 23.4469C22.829 22.9823 22.6647 22.5856 22.336 22.2569C22.0187 21.9283 21.6277 21.7639 21.163 21.7639C20.6984 21.7639 20.3017 21.9283 19.973 22.2569C19.6557 22.5856 19.497 22.9823 19.497 23.4469C19.497 23.9116 19.6557 24.3083 19.973 24.6369C20.3017 24.9543 20.6984 25.1129 21.163 25.1129C21.6277 25.1129 22.0187 24.9543 22.336 24.6369ZM22.659 18.3129C22.659 17.8823 22.5174 17.5196 22.234 17.2249C21.9507 16.9303 21.5937 16.7829 21.163 16.7829C20.7324 16.7829 20.3697 16.9303 20.075 17.2249C19.7917 17.5196 19.65 17.8823 19.65 18.3129C19.65 18.7549 19.7917 19.1233 20.075 19.4179C20.3697 19.7013 20.7324 19.8429 21.163 19.8429C21.5937 19.8429 21.9507 19.7013 22.234 19.4179C22.5174 19.1233 22.659 18.7549 22.659 18.3129ZM13.7346 26.9999H11.5246V17.2759L9.05957 19.4179V17.0379L11.5246 14.8959H13.7346V26.9999ZM31.4305 23.3279H34.1505V21.2539H31.4305V18.5339H29.3565V21.2539H26.6195V23.3279H29.3565V26.0479H31.4305V23.3279Z" fill="#EF5E5E"/>
</svg>
