<svg width="533" height="345" viewBox="0 0 533 345" fill="none" xmlns="http://www.w3.org/2000/svg">
<path d="M131.2 265.9H85.3003V337.8H131.2V265.9Z" fill="url(#paint0_linear)"/>
<path d="M114.8 264.5H101.5V336.4H114.8V264.5Z" fill="url(#paint1_linear)"/>
<path d="M101.7 274.1V279.2C101.7 288.2 103.6 297.1 107.3 305.3L108.3 307.5L109.2 305.6C113 297.2 115 288.1 115 278.9V274.1H101.7Z" fill="url(#paint2_linear)"/>
<path d="M85.3003 265.7V270.8C85.3003 279.8 87.2003 288.7 90.9003 296.9L91.9003 299.1L92.8003 297.2C96.6003 288.8 98.6003 279.7 98.6003 270.5V265.7H85.3003Z" fill="url(#paint3_linear)"/>
<path d="M117.9 265.7V270.8C117.9 279.8 119.8 288.7 123.5 296.9L124.5 299.1L125.4 297.2C129.2 288.8 131.2 279.7 131.2 270.5V265.7H117.9Z" fill="url(#paint4_linear)"/>
<path d="M96.6002 237.2C95.4002 236.5 93.7002 236.1 91.9002 236.1C88.3002 236.1 85.3002 237.8 85.3002 239.9L85.2002 265.9C85.2002 267 86.0002 267.9 87.2002 268.6C88.4002 269.3 90.0002 269.7 91.9002 269.7C95.5002 269.7 98.5002 268 98.5002 265.9L98.6002 239.9C98.6002 238.9 97.8002 237.9 96.6002 237.2Z" fill="url(#paint5_linear)"/>
<path d="M129.2 237.2C128 236.5 126.3 236.1 124.5 236.1C120.9 236.1 117.9 237.8 117.9 239.9L117.8 265.9C117.8 267 118.6 267.9 119.8 268.6C121 269.3 122.6 269.7 124.5 269.7C128.1 269.7 131.1 268 131.1 265.9L131.2 239.9C131.2 238.9 130.4 237.9 129.2 237.2Z" fill="url(#paint6_linear)"/>
<path d="M113 246.7C111.8 246 110.1 245.6 108.3 245.6C104.7 245.6 101.7 247.3 101.7 249.4C101.7 249.7 101.8 249.9 101.8 250.2C101.7 250 101.7 249.7 101.7 249.4L101.6 274.1C101.6 275.2 102.4 276.1 103.6 276.8C104.8 277.5 106.4 277.9 108.3 277.9C111.9 277.9 114.9 276.2 114.9 274.1L115 249.4C114.9 248.3 114.2 247.4 113 246.7Z" fill="url(#paint7_linear)"/>
<path d="M130.9 234.9C143.5 242.2 143.6 254 131 261.2C118.5 268.5 98.1002 268.5 85.5001 261.2C72.9001 253.9 72.8001 242.1 85.4001 234.8C97.9002 227.6 118.3 227.6 130.9 234.9Z" fill="url(#paint8_linear)"/>
<path d="M130.9 231.5C118.3 224.2 97.9001 224.2 85.4001 231.5C72.9001 238.8 72.9001 250.6 85.5001 257.9C92.5001 261.9 101.8 263.7 110.9 263.3L112.6 263.4L116.5 262.8C121.8 262 126.9 260.4 131.1 258C143.6 250.6 143.5 238.8 130.9 231.5Z" fill="#70ADFB"/>
<path d="M130.9 231C143.5 238.3 143.6 250.1 131 257.3C118.5 264.6 98.1002 264.6 85.5001 257.3C72.9001 250 72.8001 238.2 85.4001 230.9C97.9002 223.7 118.3 223.7 130.9 231Z" fill="#064683"/>
<path d="M140.5 229.9C140.5 225.1 137.3 220.4 131 216.7C118.4 209.4 98.0003 209.4 85.5003 216.7C79.2003 220.3 76.1003 225.1 76.2003 229.9V241.5C76.2003 246.3 79.4003 251 85.7003 254.7C98.3003 262 118.7 262 131.2 254.7C137.5 251.1 140.6 246.3 140.5 241.5V229.9Z" fill="url(#paint9_linear)"/>
<path d="M131 213.4C118.4 206.1 98.0002 206.1 85.5002 213.4C73.0002 220.7 73.0002 232.5 85.6002 239.8C92.6002 243.8 101.9 245.6 111 245.2L112.7 245.3L116.6 244.7C121.9 243.9 127 242.3 131.2 239.9C143.6 232.5 143.6 220.7 131 213.4Z" fill="#70ADFB"/>
<path d="M131 212.8C143.6 220.1 143.7 231.9 131.1 239.1C118.6 246.4 98.2002 246.4 85.6002 239.1C73.0002 231.8 72.9002 220 85.5002 212.7C98.0002 205.6 118.4 205.6 131 212.8Z" fill="#18569D"/>
<path d="M130.9 210.2C143.5 217.5 143.6 229.3 131 236.5C118.5 243.8 98.1002 243.8 85.5001 236.5C72.9001 229.2 72.8001 217.4 85.4001 210.1C97.9002 202.9 118.3 202.9 130.9 210.2Z" fill="#96BCF7"/>
<path d="M130.9 206.8C118.3 199.5 97.9001 199.5 85.4001 206.8C72.9001 214.1 72.9001 225.9 85.5001 233.2C92.5001 237.2 101.8 239 110.9 238.6L112.6 238.7L116.5 238.1C121.8 237.3 126.9 235.7 131.1 233.3C143.6 225.9 143.5 214.1 130.9 206.8Z" fill="white"/>
<path d="M130.9 206.3C143.5 213.6 143.6 225.4 131 232.6C118.5 239.9 98.1002 239.9 85.5001 232.6C72.9001 225.3 72.8001 213.5 85.4001 206.2C97.9002 199 118.3 199 130.9 206.3Z" fill="#D2E7FF"/>
<path d="M123.1 258.2H122.8V249.3C122.8 248.9 123.1 248.6 123.4 248.5C131.4 246.5 135.4 242.6 136.1 241.9C136.2 241.8 136.3 241.8 136.3 241.8C136.4 241.8 136.4 241.9 136.4 242V250.5H136.1V242.3C135 243.4 131 247 123.4 248.9C123.2 249 123 249.1 123 249.4V258.2H123.1Z" fill="#18569D"/>
<g opacity="0.2">
<path opacity="0.2" d="M108.3 215.6C100 215.6 91.7002 213.8 85.4002 210.1C79.2002 206.5 75.8002 201.7 75.7002 196.6C75.7002 191.5 79.1002 186.8 85.2002 183.2C88.4002 181.3 92.2002 179.9 96.4002 179L96.5002 179.6C92.3002 180.5 88.6002 181.9 85.5002 183.8C79.6002 187.2 76.3002 191.8 76.3002 196.7C76.3002 201.6 79.6002 206.2 85.6002 209.6C98.1002 216.8 118.4 216.8 130.8 209.6C136.7 206.2 140 201.6 140 196.7C140 191.8 136.7 187.2 130.7 183.8C126.5 181.4 121.1 179.6 115.3 178.9L115.4 178.3C121.3 179.1 126.7 180.8 131 183.3C137.2 186.9 140.6 191.7 140.7 196.8C140.7 201.9 137.3 206.6 131.2 210.2C124.9 213.8 116.6 215.6 108.3 215.6Z" fill="#D2E7FF"/>
</g>
<g opacity="0.1">
<path opacity="0.1" d="M108.3 222.6C100 222.6 91.7002 220.8 85.4002 217.1C79.2002 213.5 75.8002 208.7 75.7002 203.6C75.7002 198.5 79.1002 193.8 85.2002 190.2C88.4002 188.3 92.2002 186.9 96.4002 186L96.5002 186.6C92.3002 187.5 88.6002 188.9 85.5002 190.8C79.6002 194.2 76.3002 198.8 76.3002 203.7C76.3002 208.6 79.6002 213.2 85.6002 216.6C98.1002 223.8 118.4 223.8 130.8 216.6C136.7 213.2 140 208.6 140 203.7C140 198.8 136.7 194.2 130.7 190.8C126.6 188.4 121.5 186.8 116 186L116.1 185.4C121.7 186.2 126.9 187.9 131.1 190.3C137.3 193.9 140.7 198.7 140.8 203.8C140.8 208.9 137.4 213.6 131.3 217.2C124.9 220.8 116.6 222.6 108.3 222.6Z" fill="#D2E7FF"/>
</g>
<path opacity="0.5" d="M108.3 221.8L86.6003 226.4L85.3003 224.9L100.2 219L104.3 215.8L100.6 216L79.8003 222.2L88.8003 233L91.4003 232.4L116.7 221L108.3 221.8Z" fill="url(#paint10_linear)"/>
<path d="M115 220C114.7 220 111.8 219 111.8 219H111.4C111.6 218.9 111.7 218.8 111.9 218.7C112.2 216.4 115.1 202.7 115 200.8C114.9 198.7 116.3 186.9 116 183.3L114.3 172.5L113.7 170H97.7001C97.7001 170 97.7001 168.3 97.7001 167.5C97.7001 169.4 96.7001 172.6 96.7001 172.6L97.1001 178.2C97.1001 178.2 95.7001 180.6 97.6001 190.8C97.8001 191.7 97.9001 194.9 98.0001 195.8L97.7001 203.4L98.4001 216.2C98.4001 217.9 98.8001 218.5 98.8001 218.5C98.8001 218.5 98.8001 219.2 100.4 219.1C101.1 219.1 101.8 218.7 102.1 218C102.3 217.7 102.7 217.4 102.8 217.3C103.5 216.6 104.4 216.1 104.6 215.8C105.7 214.3 103.7 214.4 103.7 214.4C102.6 214.8 101.9 214.8 101.9 214.8C102.2 211.7 103.8 199.2 103.8 197.4C103.7 195.8 104.3 187.7 105.1 182.6C107.1 183.5 107.1 187.6 108.1 193C108.3 193.9 108.6 195.9 108.8 196.8L107.9 205.6L108.5 218.6C108.5 218.7 108.5 218.9 108.5 219L108.7 222C108.7 222 108.7 222 109.4 222.1C110.1 222.2 112.9 221.6 112.9 221.6C112.9 221.6 117 221.3 117.1 221.2C117.3 221.1 117.3 220.7 117.3 220.4C116.9 220 115.3 220.1 115 220ZM110.9 219C110.9 219 111 219 111.1 219H110.9Z" fill="url(#paint11_linear)"/>
<path d="M97.5 192.3L103.4 193.5V196L97.9 195.7L97.7 194.1L97.5 192.3Z" fill="#F1F1F1"/>
<path d="M108.2 195.7L115.4 195.2L115.1 198.9L108.2 197.8L108.4 196.7L108.2 195.7Z" fill="#F1F1F1"/>
<path d="M97.6001 169.9V168.1H113.2L113.6 169.9H97.6001Z" fill="#F1F1F1"/>
<path d="M114.4 144.2L111.3 143.1C111.3 143.1 106.9 143.1 105.7 143.1C104.5 143.1 103.9 143.1 103.9 143.1L99.9001 142.5C98.0001 145.3 96.7001 148.2 96.5001 151.7C96.4001 153.4 96.6001 155.1 96.1001 156.7C96.0001 157.1 95.8001 157.5 95.6001 157.9C95.6001 158 95.7001 158.1 95.7001 158.2C96.1001 159.3 96.2001 160.4 96.1001 161.5C96.4001 163 96.7001 164.6 96.9001 166.1C96.9001 166.2 96.9001 166.2 96.9001 166.3C97.8001 167.7 97.5001 168.1 97.5001 168.1H113.1C113.1 168.1 113.5 166.7 113.5 163.5V160.5L114.2 156.9C114.2 157 114.3 157 114.3 157.1C114.5 152.7 114.7 148.4 114.4 144.2Z" fill="#886ECF"/>
<path d="M111.3 143.1C111.3 143.1 110 141.6 109.3 141.5C108.6 141.4 106.4 141.5 106.4 141.5H103.8H102L100.2 142.2C100 142.3 100 142.6 100.2 142.6L104.9 143.6L111.3 143.1Z" fill="#F1F1F1"/>
<path d="M111.5 133.3C111.5 133.1 111.7 132.7 111.7 132.6L111.6 131.9L111.2 132.2L109.8 131.7L108.7 132.4L107.1 133.4V137L107.4 137.7L104.1 138.5L102.8 141.6H109.2V139.7C109.2 139.7 109.5 139.1 109.7 139.2C109.9 139.2 111.1 139.5 111.3 139.4C111.4 139.2 111.5 137.5 111.5 137.2C111.5 136.9 111.8 136.6 111.8 136.6H112.3L111.7 134.2C111.5 133.3 111.3 133.9 111.5 133.3Z" fill="#FFCDB3"/>
<path d="M113 129.9C112.7 129.6 113.3 128.9 112.7 128.5C112.2 128.2 111.5 127.2 111.1 127.9C111.1 127.9 108.6 127.3 108 127.9C106.7 127.6 104.3 129.6 103 129.8C101.7 130 102 131.3 101.4 132.4C100.8 133.5 100.3 135.4 100.3 135.4C100.3 135.4 99.6001 136.9 99.5001 137.7C99.5001 137.9 99.3001 138.1 99.1001 138.3C100.4 138.5 101.5 139.4 102.7 140.1C103.8 140.8 105.6 141.2 107 141.4C107.3 141.5 107.6 141.6 107.9 141.7C107.9 141.6 107.9 141.5 107.9 141.4C108 139.6 109.3 136.8 108.8 134.6C108.8 134.6 109.2 133.4 109.1 133.3C109 133.2 111.2 132.2 111.6 131.8C111.6 131.8 113 130.9 113 130.5C113 130.3 113.3 130.1 113 129.9Z" fill="#D237A4"/>
<path d="M114.4 144.2C114.4 144.2 117 151.5 117.4 152.6C117.8 153.7 120.3 156.2 120.3 157.1C120.3 158 120.8 160.2 119.1 159.9C117.4 159.6 114.4 157.1 114.4 157.1L111.3 150.9L114.4 144.2Z" fill="#886ECF"/>
<path d="M119.8 159.7C119.8 159.7 121.8 159.1 122 153.1C122.1 151.5 122.8 149 122.8 149L121.5 148.4L121 148.3L116.2 153.2L119.8 159.7Z" fill="#886ECF"/>
<path d="M114.4 157L111.7 154.7C111.7 154.7 109.9 154.5 109.7 156C109.5 157.5 109.1 162.8 109.1 162.8L111.3 163.5L113.6 160.4L114.4 157Z" fill="url(#paint12_linear)"/>
<path d="M104.7 182.5C104.7 182.5 102.9 180 102.1 180.3C101.3 180.6 99.4001 181.4 99.4001 181.4L100 183.5L104.4 184.3L104.7 182.5Z" fill="url(#paint13_linear)"/>
<path d="M131.7 126.6L111.5 121.1L116.7 108.5L138.3 112.6L131.7 126.6Z" fill="#3B3242"/>
<path d="M132.2 114.3L136.6 114.7L136 115.8L131.9 115.1L132.2 114.3Z" fill="#50475A"/>
<path d="M131.5 115.9L135 116.5L134.5 117.5L131.1 116.9L131.5 115.9Z" fill="#50475A"/>
<path d="M118.4 111.2L115.1 118L127.8 120.7L131.1 113.8L118.4 111.2Z" fill="#50475A"/>
<path d="M117.4 116.1V115.8C117.5 115.8 125.9 114.9 127.7 114L127.8 114.3C126 115.2 117.8 116.1 117.4 116.1Z" fill="#5D95EC"/>
<path d="M121.8 144.4L121.1 143.7L122.5 138.5L125.8 139L124 145L121.8 144.4Z" fill="#7D8793"/>
<path opacity="0.2" d="M122.5 138.5L111.5 121.1L131.7 126.6L138.3 112.6L125.8 139L122.5 138.5Z" fill="#50475A"/>
<path d="M124.5 142.8C124.2 142.7 124.5 143.6 124 144C123.3 144.5 121.9 144.5 121.8 144.5L121 143L120.7 143.4V145.4C120.7 145.4 120.8 147 121 147.1C121 147.6 121 147.9 121 147.9L122.8 148.9V148.2C122.8 148.2 123.9 146.9 124.1 146.8C124.2 146.6 124.3 145.2 124.3 145.2L124.5 143.8C124.5 143.8 125.2 143.1 124.5 142.8Z" fill="#F1F1F1"/>
<path d="M117.3 152.1C117.3 152.1 117.4 151.6 117.6 152C117.8 152.4 120.4 158.4 120.4 158.8C120.5 159.3 119.9 159.7 119.9 159.7H118.8L118.3 155.7L117.3 152.1Z" fill="#F1F1F1"/>
<path opacity="0.2" d="M116.9 132.8C116.9 138 111.4 142.3 106.2 142.3C101 142.3 96.7002 138.1 96.7002 132.8C96.7002 127.5 100.9 123.3 106.2 123.3C111.5 123.3 116.9 127.6 116.9 132.8Z" fill="#F1F1F1"/>
<path d="M111.6 125.1C111.6 125.1 104.2 127.2 105.2 134.6C105.7 138.9 111.8 140.3 111.8 140.3C111.8 140.3 106.4 144.1 101.5 141C96.6001 137.9 96.7001 134.5 96.6001 133.6C96.5001 132.7 96.4001 127.1 101.2 124.6C103.3 123.5 105.6 123.1 107.5 123.4C109.9 123.8 111.6 125.1 111.6 125.1Z" fill="#F1F1F1"/>
<path d="M101.3 146.2L96.1002 145C94.2002 144.6 92.2002 145.6 91.5002 147.4C90.7002 149.4 90.0002 151.7 89.6002 152.6C89.1002 153.7 88.6002 155 88.6002 155.8C88.6002 157.4 88.6002 158.9 88.1002 160.4C87.6002 161.9 86.6002 162.3 87.0002 164.4C87.2002 165.3 87.7002 166.3 88.2002 167C88.8002 167.9 89.9002 168.5 91.0002 168.7L100.1 170L100.6 170.1C101.9 170.3 103.1 169.3 103.2 168L103.6 155.8C103.6 155.1 104.6 151.7 104.2 149.6C103.8 147.5 102 146.3 101.3 146.2Z" fill="#F1F1F1"/>
<path d="M111.3 143.1C111.3 143.1 103.6 145.6 103.2 147C102.8 148.4 102 147 102 147C102 147 104.5 141.5 109.8 142.8C111.3 143.1 111.3 143.1 111.3 143.1Z" fill="#F1F1F1"/>
<path opacity="0.5" d="M101.3 146.2C101.3 146.2 96.8003 160 97.3003 164.3C97.8003 168.6 100.2 170 100.2 170C100.2 170 103.2 170.4 103.2 167.9C103.2 165.4 103.6 155.7 103.6 155.7C103.6 155.7 106.3 146.6 101.3 146.2Z" fill="url(#paint14_linear)"/>
<path d="M91.9002 146.3C91.9002 146.2 91.2002 144.2 91.9002 142.2C92.1002 141.5 92.4002 141.1 92.5002 140.8C92.8002 140.3 92.9002 140.1 92.9002 139C92.9002 137.3 92.9002 132.7 96.6002 132.5V133.1C93.8002 133.2 93.5002 136.3 93.5002 139C93.5002 140.2 93.4002 140.5 93.1002 141.1C92.9002 141.4 92.8002 141.8 92.5002 142.4C91.9002 144.2 92.5002 146 92.5002 146L91.9002 146.3Z" fill="white"/>
<path d="M100.2 142.1L96.1001 145L98.1001 145.5L100.8 142.8L100.2 142.1Z" fill="#F1F1F1"/>
<path d="M55.5001 196.8H9.6001V268.7H55.5001V196.8Z" fill="url(#paint15_linear)"/>
<path d="M39.2001 196.8H25.9001V268.7H39.2001V196.8Z" fill="url(#paint16_linear)"/>
<path d="M26 205V210.1C26 219.1 27.9 228 31.6 236.2L32.6 238.4L33.5 236.5C37.3 228.1 39.3 219 39.3 209.8V205H26Z" fill="url(#paint17_linear)"/>
<path d="M9.7002 196.7V201.8C9.7002 210.8 11.6002 219.7 15.3002 227.9L16.3002 230.1L17.2002 228.2C21.0002 219.8 23.0002 210.7 23.0002 201.5V196.7H9.7002Z" fill="url(#paint18_linear)"/>
<path d="M42.3 196.7V200C42.3 205.8 44.2001 211.6 47.9001 216.9L48.9001 218.3L49.8 217.1C53.6 211.7 55.6 205.8 55.6 199.8V196.7H42.3Z" fill="url(#paint19_linear)"/>
<path d="M21.0001 168.2C19.8001 167.5 18.1001 167.1 16.3001 167.1C12.7001 167.1 9.7001 168.8 9.7001 170.9L9.6001 196.9C9.6001 198 10.4001 198.9 11.6001 199.6C12.8001 200.3 14.4001 200.7 16.3001 200.7C19.9001 200.7 22.9001 199 22.9001 196.9L23.0001 170.9C22.9001 169.8 22.2001 168.9 21.0001 168.2Z" fill="url(#paint20_linear)"/>
<path d="M53.6002 168.2C52.4002 167.5 50.7002 167.1 48.9002 167.1C45.3002 167.1 42.3002 168.8 42.3002 170.9L42.2002 196.9C42.2002 198 43.0002 198.9 44.2002 199.6C45.4002 200.3 47.0002 200.7 48.9002 200.7C52.5002 200.7 55.5002 199 55.5002 196.9L55.6002 170.9C55.5002 169.8 54.8002 168.9 53.6002 168.2Z" fill="url(#paint21_linear)"/>
<path d="M37.3 177.6C36.1 176.9 34.4 176.5 32.6 176.5C29 176.5 26 178.2 26 180.3C26 180.6 26.1 180.8 26.1 181.1C26 180.9 26 180.6 26 180.3V205C26 206.1 26.8 207 28 207.7C29.2 208.4 30.8 208.8 32.7 208.8C36.3 208.8 39.3 207.1 39.3 205L39.4 180.3C39.3 179.3 38.5 178.3 37.3 177.6Z" fill="url(#paint22_linear)"/>
<path d="M55.3001 165.8C67.9001 173.1 68.0001 184.9 55.4001 192.1C42.9001 199.4 22.5001 199.4 9.90005 192.1C-2.69995 184.8 -2.79995 173 9.80005 165.7C22.3001 158.6 42.7001 158.6 55.3001 165.8Z" fill="url(#paint23_linear)"/>
<path d="M55.3 162.5C42.7 155.2 22.3 155.2 9.80004 162.5C-2.69996 169.8 -2.69996 181.6 9.90004 188.9C16.9 192.9 26.2 194.7 35.3 194.3L37 194.4L40.9 193.8C46.2 193 51.3 191.4 55.5 189C67.9 181.5 67.9 169.7 55.3 162.5Z" fill="#70ADFB"/>
<path d="M55.3001 161.9C67.9001 169.2 68.0001 181 55.4001 188.2C42.9001 195.5 22.5001 195.5 9.90005 188.2C-2.69995 180.9 -2.79995 169.1 9.80005 161.8C22.3001 154.6 42.7001 154.6 55.3001 161.9Z" fill="#064683"/>
<path d="M64.8001 160.9C64.8001 156.1 61.6001 151.4 55.3001 147.7C42.7001 140.4 22.3001 140.4 9.80015 147.7C3.50015 151.3 0.400146 156.1 0.500146 160.9V172.5C0.500146 177.3 3.70015 182 10.0001 185.7C22.6001 193 43.0001 193 55.5001 185.7C61.8001 182.1 64.9001 177.3 64.8001 172.5V160.9Z" fill="url(#paint24_linear)"/>
<path d="M55.3 144.3C42.7 137 22.3 137 9.80004 144.3C-2.69996 151.6 -2.69996 163.4 9.90004 170.7C16.9 174.7 26.2 176.5 35.3 176.1L37 176.2L40.9 175.6C46.2 174.8 51.3 173.2 55.5 170.8C68 163.4 67.9 151.6 55.3 144.3Z" fill="#70ADFB"/>
<path d="M55.3001 143.8C67.9001 151.1 68.0001 162.9 55.4001 170.1C42.9001 177.4 22.5001 177.4 9.90005 170.1C-2.69995 162.8 -2.79995 151 9.80005 143.7C22.4001 136.5 42.7001 136.5 55.3001 143.8Z" fill="#18569D"/>
<path d="M55.3001 141.1C67.9001 148.4 68.0001 160.2 55.4001 167.4C42.9001 174.7 22.5001 174.7 9.90005 167.4C-2.69995 160.1 -2.79995 148.3 9.80005 141C22.3001 133.9 42.7001 133.9 55.3001 141.1Z" fill="#96BCF7"/>
<path d="M55.3 137.8C42.7 130.5 22.3 130.5 9.80004 137.8C-2.69996 145.1 -2.69996 156.9 9.90004 164.2C16.9 168.2 26.2 170 35.3 169.6L37 169.7L40.9 169.1C46.2 168.3 51.3 166.7 55.5 164.3C67.9 156.8 67.9 145 55.3 137.8Z" fill="white"/>
<path d="M55.3001 137.2C67.9001 144.5 68.0001 156.3 55.4001 163.5C42.9001 170.8 22.5001 170.8 9.90005 163.5C-2.69995 156.2 -2.79995 144.4 9.80005 137.1C22.3001 129.9 42.7001 129.9 55.3001 137.2Z" fill="#D2E7FF"/>
<path opacity="0.5" d="M32.7001 152.2L8.60005 156.9L7.30005 155.4L24.6 149.4L22.6 146.5L1.80005 152.8L10.8 163.6L13.4 163L41.1 151.5L32.7001 152.2Z" fill="url(#paint25_linear)"/>
<path d="M71.8001 69L51.6001 63.5L56.8001 50.9L78.4001 55L71.8001 69Z" fill="#3B3242"/>
<path d="M72.3001 56.7001L76.7001 57.0001L76.1001 58.1001L71.9001 57.5001L72.3001 56.7001Z" fill="#50475A"/>
<path d="M71.6002 58.3L75.0002 58.9L74.6002 59.8L71.2002 59.3L71.6002 58.3Z" fill="#50475A"/>
<path d="M58.4002 53.6L55.2002 60.3L67.9002 63.1L71.2002 56.2L58.4002 53.6Z" fill="#50475A"/>
<path d="M57.5 58.5V58.2C57.6 58.2 66 57.3 67.8 56.4L67.9 56.7C66 57.6 57.8 58.4 57.5 58.5Z" fill="#5D95EC"/>
<path d="M61.9001 86.8L61.1001 86.1L62.5001 80.8L65.9001 81.4L64.1001 87.4001L61.9001 86.8Z" fill="#7D8793"/>
<path opacity="0.2" d="M62.5001 80.8L51.6001 63.5L71.8001 69L78.4001 55L65.9001 81.4L62.5001 80.8Z" fill="#50475A"/>
<path d="M46.4002 79.7001C46.4002 79.7001 45.9002 80.1001 45.1002 80.2001C44.3002 80.3001 45.1002 83.8001 45.1002 83.8001C45.1002 83.8001 47.2002 83.3001 47.5002 82.9001C47.8002 82.5001 47.9002 81.1001 47.9002 81.1001L46.4002 79.7001Z" fill="#70ADFB"/>
<path d="M39.5001 150.4C39.2001 150.4 36.3001 149.4 36.3001 149.4H35.9001C36.1001 149.3 36.2001 149.2 36.4001 149.1C36.7001 146.8 39.6001 133.1 39.5001 131.2C39.4001 129.1 40.8001 117.3 40.5001 113.7L38.8001 102.9L38.2001 100.4H22.2001C22.2001 100.4 22.2001 98.7 22.2001 97.9C22.2001 99.8 21.2001 103 21.2001 103L21.6001 108.6C21.6001 108.6 20.2001 111 22.1001 121.2C22.3001 122.1 22.4001 125.3 22.5001 126.2L22.2001 133.8L22.9001 146.6C22.9001 148.3 23.3001 148.9 23.3001 148.9C23.3001 148.9 23.3001 149.6 24.9001 149.5C25.6001 149.5 26.3001 149.1 26.6001 148.4C26.8001 148.1 27.2001 147.8 27.3001 147.7C28.0001 147 28.9001 146.5 29.1001 146.2C30.2001 144.7 28.2001 144.8 28.2001 144.8C27.1001 145.2 26.4001 145.2 26.4001 145.2C26.7001 142.1 28.3001 129.6 28.3001 127.8C28.2001 126.2 28.8001 118.1 29.6001 113C31.6001 113.9 31.6001 118 32.6001 123.4C32.8001 124.3 33.1001 126.3 33.3001 127.2L32.4001 136L33.0001 149C33.0001 149.1 33.0001 149.3 33.0001 149.4L33.2001 152.4C33.2001 152.4 33.2001 152.4 33.9001 152.5C34.6001 152.6 37.4001 152 37.4001 152C37.4001 152 41.5001 151.7 41.6001 151.6C41.8001 151.5 41.8001 151.1 41.8001 150.8C41.3001 150.4 39.7001 150.5 39.5001 150.4ZM35.3001 149.4C35.3001 149.4 35.4001 149.4 35.5001 149.4H35.3001Z" fill="url(#paint26_linear)"/>
<path d="M21.9001 122.8L27.9001 123.9L27.8001 126.5L22.3001 126.1L22.2001 124.6L21.9001 122.8Z" fill="#F1F1F1"/>
<path d="M32.7001 126.1L39.8001 125.7L39.5001 129.4L32.6001 128.3L32.8001 127.1L32.7001 126.1Z" fill="#F1F1F1"/>
<path d="M22 100.3V98.5H37.6L38 100.3H22Z" fill="#F1F1F1"/>
<path d="M59.8001 90.9L58.7001 88.5C58.7001 88.5 58.2001 88.1 57.5001 88.5C56.8001 88.9 55.8001 89.4 55.8001 89.4C54.9001 89.5 53.7001 89.5 52.6001 89.1C50.1001 88.3 45.7001 81.1 43.7001 77.7C43.0001 76.5 41.9001 75.6 40.6001 75.2L35.8001 73.6C35.8001 73.6 31.4001 73.6 30.2001 73.6C29.0001 73.6 28.4001 73.6 28.4001 73.6L24.0001 72.9C24.0001 72.9 20.8001 72.5 18.9001 75.7C18.1001 77 17.8001 79.4 17.8001 79.4L17.1001 82.3V84.9C17.1001 84.9 17.7001 87.8 17.7001 89C17.8001 90.8 18.7001 90.9 18.7001 92.2C18.9001 94.8 18.3001 94.9 19.3001 96.2C20.7001 98 22.2001 98.6 22.2001 98.6H37.8001C37.8001 98.6 41.7001 97.1 40.4001 94.5L41.3001 91.1L40.9001 88.3C43.0001 91.3 45.2001 93.4 46.6001 93.9C49.3001 94.9 50.2001 95.1 51.9001 94.9C53.0001 94.8 56.3001 93 58.3001 91.9C58.3001 91.9 59.3001 91.9 59.5001 91.6C59.6001 91.3 59.8001 90.9 59.8001 90.9Z" fill="#70ADFB"/>
<path d="M50.1001 87.3L46.4001 93.8C46.4001 93.8 50.3001 95.3 51.7001 94.8L52.4001 89.1L50.1001 87.3Z" fill="#F1F1F1"/>
<path d="M58.7002 88.5C58.7002 88.5 60.2002 85.6 60.6002 85.3C61.1002 85 61.7002 84.3 61.4002 85C61.1002 85.6 62.7002 86.9 62.7002 86.9L64.9002 84.8C64.9002 84.8 65.2002 85.6 65.0002 86C64.8002 86.4 64.7002 86.7 64.4002 87.7C64.1002 88.6 64.2002 88.8 63.7002 89.4C63.1002 90 59.8002 91 59.8002 91L58.7002 88.5Z" fill="#F1F1F1"/>
<path d="M35.7001 73.5C35.7001 73.5 34.4001 72 33.7001 71.9C33.0001 71.8 30.8001 71.9 30.8001 71.9H28.2001H26.4001L23.9001 72.9L29.3001 74L35.7001 73.5Z" fill="#F1F1F1"/>
<path d="M36.5002 62.1L35.6002 62.6L34.2002 62.1L33.1002 62.8L31.5002 63.8V67.4L31.8002 68.1L28.5002 68.9L27.2002 72H33.6002V70.1C33.6002 70.1 33.9002 70.1 34.1002 70.1C34.3002 70.1 35.5002 69.6 35.7002 69.4C35.8002 69.2 35.9002 67.7 35.9002 67.5C35.9002 67.2 36.1002 66.5 36.1002 66.5H36.6002L36.5002 62.1Z" fill="#FFCDB3"/>
<path d="M36.3001 61.3C36.3001 61.3 36.9001 59.2 35.4001 58.3C35.4001 58.3 32.9001 57.7 32.3001 58.3C31.7001 58.9 31.7001 58.7 31.1001 59.3C30.9001 59.5 30.6001 59.6 30.3001 59.9C29.6001 59.7 28.9001 60 28.6001 60.1C27.8001 60.3 27.6001 61.8 27.4001 62.9C27.2001 63.9 27.8001 67.2 28.0001 67.5C28.4001 68.1 28.4001 68.9 28.4001 68.9C28.4001 68.9 29.2001 69 29.6001 69.2C30.0001 69.4 30.4001 69.1 31.0001 69C31.6001 68.9 31.8001 68.6 31.8001 68.6L32.3001 67.4C32.3001 67.4 32.7001 67 32.4001 66.8C32.1001 66.6 32.1001 65.4 32.3001 65.2C32.5001 65 33.2001 65.3 33.2001 65.3C33.2001 65.3 33.6001 64.1 33.5001 64C33.4001 63.9 35.6001 62.9 36.0001 62.5C36.3001 62.1 36.4001 61.7 36.3001 61.3Z" fill="#8171D2"/>
<path d="M36.0002 62.3C36.0002 62.3 37.4002 61.4 37.4002 61C37.4002 60.6 37.7002 60.5 37.4002 60.2C37.1002 59.9 37.7002 59.2 37.1002 58.8C36.5002 58.5 35.6002 57.1 35.3002 58.8C34.9002 60.7 36.0002 62.3 36.0002 62.3Z" fill="#8171D2"/>
<path d="M47.6001 78.5001C47.6001 78.5001 49.0001 77.2001 49.9001 77.4001C50.8001 77.6001 53.1001 78.3001 53.1001 78.3001C53.1001 78.3001 53.2001 78.8001 52.7001 78.8001C52.2001 78.8001 51.1001 78.7001 50.8001 78.8001C50.6001 78.9001 49.6001 79.2001 49.8001 79.3001C50.1001 79.5001 51.0001 79.5001 50.9001 79.7001C50.8001 79.9001 50.5001 80.2001 50.0001 80.3001C49.5001 80.4001 47.9001 81.1001 47.9001 81.1001L46.8001 80.6001L46.4001 79.7001L47.6001 78.5001Z" fill="#F1F1F1"/>
<path d="M29.2 112.9L25.8 112.6C25.8 112.6 25 117.4 25 118.1C25 118.8 28.4 120.4 28.4 120.4L29 114.6L29.2 112.9Z" fill="url(#paint27_linear)"/>
<path d="M40.7001 88.2C40.7001 88.2 37.1001 86.9 36.4001 88.5C35.7001 90.2 34.9001 92.4 34.9001 92.4L37.3001 92.9L40.7001 89.4V88.2Z" fill="url(#paint28_linear)"/>
<path d="M47.5002 189.1H47.2002V180.2C47.2002 179.8 47.5002 179.5 47.8002 179.4C55.8002 177.4 59.8002 173.5 60.5002 172.8C60.6002 172.7 60.7002 172.7 60.7002 172.7C60.8002 172.7 60.8002 172.8 60.8002 172.9V181.4H60.5002V173.2C59.4002 174.3 55.4002 177.9 47.8002 179.8C47.6002 179.9 47.4002 180 47.4002 180.3V189.1H47.5002Z" fill="#18569D"/>
<path d="M6.4002 178.1C7.06294 178.1 7.6002 176.981 7.6002 175.6C7.6002 174.219 7.06294 173.1 6.4002 173.1C5.73745 173.1 5.2002 174.219 5.2002 175.6C5.2002 176.981 5.73745 178.1 6.4002 178.1Z" fill="#014485"/>
<path d="M5.2002 175.6C5.2002 175.6 5.9002 177.9 7.2002 177.5C7.2002 177.5 6.9002 178.3 6.4002 178.1C5.9002 177.9 5.3002 177.6 5.2002 175.6Z" fill="#70ADFB"/>
<path d="M12.4002 182C13.0629 182 13.6002 180.881 13.6002 179.5C13.6002 178.119 13.0629 177 12.4002 177C11.7375 177 11.2002 178.119 11.2002 179.5C11.2002 180.881 11.7375 182 12.4002 182Z" fill="#014485"/>
<path d="M11.1001 179.5C11.1001 179.5 11.8001 181.8 13.1001 181.4C13.1001 181.4 12.8001 182.2 12.3001 182C11.8001 181.9 11.2001 181.6 11.1001 179.5Z" fill="#70ADFB"/>
<g opacity="0.2">
<path opacity="0.2" d="M32.7001 146.6C24.4001 146.6 16.1001 144.8 9.8001 141.1C3.6001 137.5 0.200098 132.7 0.100098 127.6C0.100098 122.5 3.5001 117.8 9.6001 114.2C12.8001 112.3 16.6001 110.9 20.8001 110L20.9001 110.6C16.7001 111.5 13.0001 112.9 9.9001 114.8C4.0001 118.2 0.700098 122.8 0.700098 127.7C0.700098 132.6 4.0001 137.2 10.0001 140.6C22.5001 147.8 42.8001 147.8 55.2001 140.6C61.1001 137.2 64.4001 132.6 64.4001 127.7C64.4001 122.8 61.1001 118.2 55.1001 114.8C50.9001 112.4 45.5001 110.6 39.7001 109.9L39.8001 109.3C45.7001 110.1 51.1001 111.8 55.4001 114.3C61.6001 117.9 65.0001 122.7 65.1001 127.8C65.1001 132.9 61.7001 137.6 55.6001 141.2C49.3001 144.7 41.0001 146.6 32.7001 146.6Z" fill="#D2E7FF"/>
</g>
<g opacity="0.1">
<path opacity="0.1" d="M32.7001 153.6C24.4001 153.6 16.1001 151.8 9.8001 148.1C3.6001 144.5 0.200098 139.7 0.100098 134.6C0.100098 129.5 3.5001 124.8 9.6001 121.2C12.8001 119.3 16.6001 117.9 20.8001 117L20.9001 117.6C16.7001 118.5 13.0001 119.9 9.9001 121.8C4.0001 125.2 0.700098 129.8 0.700098 134.7C0.700098 139.6 4.0001 144.2 10.0001 147.6C22.5001 154.8 42.8001 154.8 55.2001 147.6C61.1001 144.2 64.4001 139.6 64.4001 134.7C64.4001 129.8 61.1001 125.2 55.1001 121.8C51.0001 119.4 45.9001 117.8 40.4001 117L40.5001 116.4C46.1001 117.2 51.3001 118.9 55.5001 121.3C61.7001 124.9 65.1001 129.7 65.2001 134.8C65.2001 139.9 61.8001 144.6 55.7001 148.2C49.3001 151.7 41.0001 153.6 32.7001 153.6Z" fill="#D2E7FF"/>
</g>
<path d="M44.2002 175.1H43.2002V189.9H44.2002V175.1Z" fill="#0C467E"/>
<path opacity="0.2" d="M41.9 63C41.9 68.2 36.4 72.5 31.2 72.5C26 72.5 21.7 68.3 21.7 63C21.7 57.7 25.9 53.5 31.2 53.5C36.4 53.6 41.9 57.8 41.9 63Z" fill="#F1F1F1"/>
<path d="M36.7001 55.3C36.7001 55.3 33.2001 56.3 31.3001 59.3C30.4001 60.7 29.9001 62.5 30.2001 64.8C30.7001 69.1 36.8001 70.5 36.8001 70.5C36.8001 70.5 31.4001 74.3 26.5001 71.2C21.6001 68.1 21.7001 64.7 21.6001 63.8C21.6001 62.9 21.4001 57.3 26.2001 54.8C28.3001 53.7 30.6001 53.3 32.5001 53.6C35.0001 54 36.7001 55.3 36.7001 55.3Z" fill="#F1F1F1"/>
<path d="M26.1002 75.5001L17.0002 73.4001C15.4002 73.0001 13.7002 73.9001 13.0002 75.4001C12.4002 76.6001 11.9002 78.1001 11.9002 78.9001C11.9002 80.7001 11.9002 82.3001 11.3002 84.0001C10.7002 85.6001 9.70016 86.1001 10.1002 88.4001C10.3002 89.4001 10.9002 90.5001 11.5002 91.3001C12.2002 92.3001 13.3002 93.0001 14.6002 93.2001L24.7002 94.7001L25.2002 94.8001C26.7002 95.0001 28.0002 93.9001 28.1002 92.4001L28.6002 78.9001C28.7002 77.2001 27.6002 75.9001 26.1002 75.5001Z" fill="#F1F1F1"/>
<path d="M35.7001 73.5001C35.7001 73.5001 28.3001 73.1001 27.1001 75.9001L28.0001 77.3001C28.0001 77.3001 36.4001 73.6001 37.2001 74.0001C38.0001 74.4001 35.7001 73.5001 35.7001 73.5001Z" fill="#F1F1F1"/>
<path opacity="0.5" d="M23.7002 74.9C23.7002 74.9 21.1002 83.5 21.6002 88.3C22.1002 93.1 24.8002 94.6 24.8002 94.6C24.8002 94.6 28.1002 95 28.2002 92.3C28.3002 89.6 28.7002 78.8 28.7002 78.8C28.7002 78.8 29.2002 75.4 23.7002 74.9Z" fill="url(#paint29_linear)"/>
<path d="M11.9001 95.2001C11.9001 95.2001 12.0001 94.1001 13.8001 94.4001C15.7001 94.7001 26.0001 95.7001 26.8001 95.9001C28.0001 96.2001 28.4001 99.4001 27.5001 100.4C26.6001 101.4 22.1001 101.4 17.7001 100.8C13.3001 100 9.80014 99.5001 11.9001 95.2001Z" fill="#F1F1F1"/>
<path opacity="0.5" d="M26.8001 95.9C26.8001 95.9 24.6001 95.9 24.5001 96.9C24.4001 97.9 24.0001 100.1 24.5001 100.4C25.0001 100.7 25.8001 101.1 25.8001 101.1C25.8001 101.1 27.6001 100.9 27.8001 100C28.0001 98.9 28.3001 97.1 26.8001 95.9Z" fill="url(#paint30_linear)"/>
<path d="M34.9001 98.2001H32.6001V101.2H34.9001V98.2001Z" fill="#F1F1F1"/>
<path d="M39.5002 98H37.2002V101H39.5002V98Z" fill="#F1F1F1"/>
<path d="M14 75.7001C12.3 73.3001 13.9 71.8 14.9 70.9001C15.3 70.5001 15.6 70.2001 15.8 69.9001C16.1 69.0001 15.8 68.3001 15.5 67.5001C15.1 66.5001 14.5 65.4001 15.5 63.8001C16.9 61.5001 22 62.2001 22.2 62.3001L22.1 62.9001C20.7 62.7001 17 62.6001 16 64.1001C15.2 65.4001 15.6 66.2001 16 67.2001C16.4 68.0001 16.8 68.9001 16.3 70.1001C16.1 70.5001 15.7 70.9001 15.3 71.3C14.2 72.3 13.1 73.4001 14.5 75.3L14 75.7001Z" fill="white"/>
<path d="M23.9 72.8L20.9 74.3L19.5 74L22.9 72.5L23.9 72.8Z" fill="#F1F1F1"/>
<path d="M237.3 267.7H191.4V339.6H237.3V267.7Z" fill="url(#paint31_linear)"/>
<path d="M221.1 272.6H207.8V344.5H221.1V272.6Z" fill="url(#paint32_linear)"/>
<path d="M207.9 280.8V285.9C207.9 294.9 209.8 303.8 213.5 312L214.5 314.2L215.4 312.3C219.2 303.9 221.2 294.8 221.2 285.6V280.8H207.9Z" fill="url(#paint33_linear)"/>
<path d="M191.5 272.4V276C191.5 282.3 193.4 288.5 197.1 294.3L198.1 295.9L199 294.6C202.8 288.7 204.8 282.3 204.8 275.9V272.6H191.5V272.4Z" fill="url(#paint34_linear)"/>
<path d="M224.1 272.4V277.5C224.1 286.5 226 295.4 229.7 303.6L230.7 305.8L231.6 303.9C235.4 295.5 237.4 286.4 237.4 277.2V272.4H224.1Z" fill="url(#paint35_linear)"/>
<path d="M202.8 243.9C201.6 243.2 199.9 242.8 198.1 242.8C194.5 242.8 191.5 244.5 191.5 246.6L191.4 272.6C191.4 273.7 192.2 274.6 193.4 275.3C194.6 276 196.2 276.4 198.1 276.4C201.7 276.4 204.7 274.7 204.7 272.6L204.8 246.6C204.8 245.6 204 244.6 202.8 243.9Z" fill="url(#paint36_linear)"/>
<path d="M235.4 243.9C234.2 243.2 232.5 242.8 230.7 242.8C227.1 242.8 224.1 244.5 224.1 246.6L224 272.6C224 273.7 224.8 274.6 226 275.3C227.2 276 228.8 276.4 230.7 276.4C234.3 276.4 237.3 274.7 237.3 272.6L237.4 246.6C237.4 245.6 236.6 244.6 235.4 243.9Z" fill="url(#paint37_linear)"/>
<path d="M219.2 253.4C218 252.7 216.3 252.3 214.5 252.3C210.9 252.3 207.9 254 207.9 256.1C207.9 256.4 208 256.6 208 256.9C207.9 256.7 207.9 256.4 207.9 256.1L207.8 280.8C207.8 281.9 208.6 282.8 209.8 283.5C211 284.2 212.6 284.6 214.5 284.6C218.1 284.6 221.1 282.9 221.1 280.8L221.2 256.1C221.1 255 220.4 254.1 219.2 253.4Z" fill="url(#paint38_linear)"/>
<path d="M237 241.7C249.6 249 249.7 260.8 237.1 268C224.6 275.3 204.2 275.3 191.6 268C179 260.7 178.9 248.9 191.5 241.6C204.1 234.4 224.4 234.4 237 241.7Z" fill="url(#paint39_linear)"/>
<path d="M237 238.3C224.4 231 204 231 191.5 238.3C179 245.6 179 257.4 191.6 264.7C198.6 268.7 207.9 270.5 217 270.1L218.7 270.2L222.6 269.6C227.9 268.8 233 267.2 237.2 264.8C249.7 257.4 249.6 245.6 237 238.3Z" fill="#70ADFB"/>
<path d="M237 237.8C249.6 245.1 249.7 256.9 237.1 264.1C224.6 271.4 204.2 271.4 191.6 264.1C179 256.8 178.9 245 191.5 237.7C204.1 230.5 224.4 230.5 237 237.8Z" fill="#064683"/>
<path d="M246.6 236.8C246.6 232 243.4 227.3 237.1 223.6C224.5 216.3 204.1 216.3 191.6 223.6C185.3 227.2 182.2 232 182.3 236.8V248.4C182.3 253.2 185.5 257.9 191.8 261.6C204.4 268.9 224.8 268.9 237.3 261.6C243.6 258 246.7 253.2 246.6 248.4V236.8Z" fill="url(#paint40_linear)"/>
<path d="M237.1 220.2C224.5 212.9 204.1 212.9 191.6 220.2C179.1 227.5 179.1 239.3 191.7 246.6C198.7 250.6 208 252.4 217.1 252L218.8 252.1L222.7 251.5C228 250.7 233.1 249.1 237.3 246.7C249.8 239.3 249.7 227.5 237.1 220.2Z" fill="#70ADFB"/>
<path d="M237.1 219.6C249.7 226.9 249.8 238.7 237.2 245.9C224.7 253.2 204.3 253.2 191.7 245.9C179.1 238.6 179 226.8 191.6 219.5C204.1 212.4 224.5 212.4 237.1 219.6Z" fill="#18569D"/>
<path d="M237 217C249.6 224.3 249.7 236.1 237.1 243.3C224.6 250.6 204.2 250.6 191.6 243.3C179 236 178.9 224.2 191.5 216.9C204.1 209.7 224.4 209.7 237 217Z" fill="#96BCF7"/>
<path d="M237 213.6C224.4 206.3 204 206.3 191.5 213.6C179 220.9 179 232.7 191.6 240C198.6 244 207.9 245.8 217 245.4L218.7 245.5L222.6 244.9C227.9 244.1 233 242.5 237.2 240.1C249.7 232.7 249.6 220.9 237 213.6Z" fill="white"/>
<path d="M237 213.1C249.6 220.4 249.7 232.2 237.1 239.4C224.6 246.7 204.2 246.7 191.6 239.4C179 232.1 178.9 220.3 191.5 213C204.1 205.8 224.4 205.8 237 213.1Z" fill="#D2E7FF"/>
<path d="M229.3 265H229V256.1C229 255.7 229.3 255.4 229.6 255.3C237.6 253.3 241.6 249.4 242.3 248.7C242.4 248.6 242.5 248.6 242.5 248.6C242.6 248.6 242.6 248.7 242.6 248.8V257.3H242.3V249.1C241.2 250.2 237.2 253.8 229.6 255.7C229.4 255.8 229.2 255.9 229.2 256.2V265H229.3Z" fill="#18569D"/>
<g opacity="0.2">
<path opacity="0.2" d="M214.5 222.4C206.2 222.4 197.9 220.6 191.6 216.9C185.4 213.3 182 208.5 181.9 203.4C181.9 198.3 185.3 193.6 191.4 190C194.6 188.1 198.4 186.7 202.6 185.8L202.7 186.4C198.5 187.3 194.8 188.7 191.7 190.6C185.8 194 182.5 198.6 182.5 203.5C182.5 208.4 185.8 213 191.8 216.4C204.3 223.6 224.6 223.6 237 216.4C242.9 213 246.2 208.4 246.2 203.5C246.2 198.6 242.9 194 236.9 190.6C232.7 188.2 227.3 186.4 221.5 185.7L221.6 185.1C227.5 185.9 232.9 187.6 237.2 190.1C243.4 193.7 246.8 198.5 246.9 203.6C246.9 208.7 243.5 213.4 237.4 217C231.1 220.6 222.8 222.4 214.5 222.4Z" fill="#D2E7FF"/>
</g>
<g opacity="0.1">
<path opacity="0.1" d="M214.5 229.5C206.2 229.5 197.9 227.7 191.6 224C185.4 220.4 182 215.6 181.9 210.5C181.9 205.4 185.3 200.7 191.4 197.1C194.6 195.2 198.4 193.8 202.6 192.9L202.7 193.5C198.5 194.4 194.8 195.8 191.7 197.7C185.8 201.1 182.5 205.7 182.5 210.6C182.5 215.5 185.8 220.1 191.8 223.5C204.3 230.7 224.6 230.7 237 223.5C242.9 220.1 246.2 215.5 246.2 210.6C246.2 205.7 242.9 201.1 236.9 197.7C232.8 195.3 227.7 193.7 222.2 192.9L222.3 192.3C227.9 193.1 233.1 194.8 237.3 197.2C243.5 200.8 246.9 205.6 247 210.7C247 215.8 243.6 220.5 237.5 224.1C231.1 227.6 222.8 229.5 214.5 229.5Z" fill="#D2E7FF"/>
</g>
<path d="M248 143.6L227.8 138.1L233 125.6L254.6 129.6L248 143.6Z" fill="#3B3242"/>
<path d="M248.5 131.3L252.9 131.7L252.3 132.8L248.2 132.1L248.5 131.3Z" fill="#50475A"/>
<path d="M247.8 133L251.3 133.5L250.8 134.5L247.4 133.9L247.8 133Z" fill="#50475A"/>
<path d="M234.7 128.2L231.4 135L244.1 137.7L247.4 130.9L234.7 128.2Z" fill="#50475A"/>
<path d="M233.7 133.1V132.8C233.8 132.8 242.2 131.9 244 131L244.1 131.3C242.3 132.2 234.1 133.1 233.7 133.1Z" fill="#5D95EC"/>
<path d="M238.1 161.5L237.4 160.7L238.8 155.5L242.1 156L240.3 162L238.1 161.5Z" fill="#7D8793"/>
<path opacity="0.2" d="M238.8 155.5L227.8 138.1L248 143.6L254.6 129.6L242.1 156L238.8 155.5Z" fill="#50475A"/>
<path opacity="0.5" d="M213.8 229L192.1 233.6L190.8 232L205.7 226.1L209.8 222.9L206.1 223.1L185.4 229.4L194.4 240.2L196.9 239.6L222.2 228.2L213.8 229Z" fill="url(#paint41_linear)"/>
<path d="M221.3 227.2C221 227.2 218.1 226.2 218.1 226.2H217.7C217.9 226.1 218 226 218.2 225.9C218.5 223.6 221.4 209.9 221.3 208C221.2 205.9 222.6 194.1 222.3 190.5L220.6 179.7L220 177.2H204C204 177.2 204 175.5 204 174.7C204 176.6 203 179.8 203 179.8L203.4 185.4C203.4 185.4 202 187.8 203.9 198C204.1 198.9 204.2 202.1 204.3 203L204 210.6L204.7 223.4C204.7 225.1 205.1 225.7 205.1 225.7C205.1 225.7 205.1 226.4 206.7 226.3C207.4 226.3 208.1 225.9 208.4 225.2C208.6 224.9 209 224.6 209.1 224.5C209.8 223.8 210.7 223.3 210.9 223C212 221.5 210 221.6 210 221.6C208.9 222 208.2 222 208.2 222C208.5 218.9 210.1 206.4 210.1 204.6C210 203 210.6 194.9 211.4 189.8C213.4 190.7 213.4 194.8 214.4 200.2C214.6 201.1 214.9 203.1 215.1 204L214.2 212.8L214.8 225.8C214.8 225.9 214.8 226.1 214.8 226.2L215 229.2C215 229.2 215 229.2 215.7 229.3C216.4 229.4 219.2 228.8 219.2 228.8C219.2 228.8 223.3 228.5 223.4 228.4C223.5 228.3 223.6 227.9 223.6 227.6C223.2 227.2 221.6 227.3 221.3 227.2ZM217.1 226.2C217.1 226.2 217.2 226.2 217.3 226.2H217.1Z" fill="url(#paint42_linear)"/>
<path d="M203.8 199.6L209.7 200.7V203.3L204.1 202.9L204 201.4L203.8 199.6Z" fill="#F1F1F1"/>
<path d="M214.5 202.9L221.6 202.5L221.3 206.1L214.4 205L214.7 203.9L214.5 202.9Z" fill="#F1F1F1"/>
<path d="M203.8 177.1V175.3H219.4L219.9 177.1H203.8Z" fill="#F1F1F1"/>
<path d="M237.3 164L234.9 163.1C234.9 163.1 234.7 163.3 234 163.7C233.3 164.1 231.9 164.1 231.9 164.1C231 164.2 233.1 164.5 231.9 164.1C229.4 163.3 227.4 158 225.4 154.5C224.7 153.3 223.6 152.4 222.3 152L217.5 150.4C217.5 150.4 213.1 150.4 211.9 150.4C210.7 150.4 210.1 150.4 210.1 150.4L205.7 149.7C205.7 149.7 202.5 149.3 200.6 152.5C199.8 153.8 199.5 156.2 199.5 156.2L198.8 159.1V161.7C198.8 161.7 199.4 164.6 199.4 165.8C199.5 167.6 200.4 167.7 200.4 169C200.6 171.6 200 171.7 201 173C202.4 174.8 203.9 175.4 203.9 175.4H219.5C219.5 175.4 223.4 173.9 222.1 171.3L223 167.9L222.6 165.1C224.7 168.1 224.9 168.9 225.8 169.6C226.6 170.2 226.5 170.7 228.2 170.5C229.3 170.4 232.1 169.1 234.1 168C234.1 168 235.9 167.4 236.8 166C237 165.6 237.3 164 237.3 164Z" fill="#70ADFB"/>
<path d="M231.2 163.7L228.2 170.6C228.2 170.6 230.5 169.7 232 169.3L231.9 164.1L231.2 163.7Z" fill="#F1F1F1"/>
<path d="M234.9 163.1C234.9 163.1 236 159.7 236.5 159.5C237 159.2 238 158.7 237.8 159.4C237.5 160 238.2 160.6 238.2 160.6L240.5 159.9C240.5 159.9 241.4 159.3 241.2 159.6C241 159.9 240.9 160.3 240.6 161.3C240.3 162.2 240.4 162.4 239.9 163C239.3 163.6 237.3 164 237.3 164L234.9 163.1Z" fill="#F1F1F1"/>
<path d="M217.5 150.3C217.5 150.3 216.2 148.8 215.5 148.7C214.8 148.6 212.6 148.7 212.6 148.7H210H208.2L205.7 149.7L211.1 150.8L217.5 150.3Z" fill="#F1F1F1"/>
<path d="M218.3 138.9L217.4 139.4L216 138.9L214.9 139.6L213.3 140.6V144.2L213.6 144.9L210.3 145.7L209 148.8H215.4V146.9C215.4 146.9 215.7 146.9 215.9 146.9C216.1 146.9 217.3 146.4 217.5 146.2C217.6 146 217.7 144.5 217.7 144.3C217.7 144 217.9 143.3 217.9 143.3H218.4L218.3 138.9Z" fill="#FFCDB3"/>
<path d="M219.2 137.1C218.9 136.8 219.5 136.1 218.9 135.7C218.4 135.4 217.7 134.4 217.3 135.1C217.3 135.1 214.8 134.5 214.2 135.1C213.6 135.7 213.6 135.5 213 136.1C212.8 136.3 212.5 136.4 212.2 136.7C211.5 136.5 210.8 136.8 210.5 136.9C209.7 137.1 209.5 138.6 209.3 139.7C209.1 140.7 209.7 144 209.9 144.3C210.3 144.9 210.3 145.7 210.3 145.7C210.3 145.7 211.1 145.8 211.5 146C211.9 146.2 212.3 145.9 212.9 145.8C213.5 145.7 213.7 145.4 213.7 145.4L214.2 144.2C214.2 144.2 214.6 143.8 214.3 143.6C214 143.4 214 142.2 214.2 142C214.4 141.8 215.1 142.1 215.1 142.1C215.1 142.1 215.5 140.9 215.4 140.8C215.3 140.7 217.5 139.7 217.9 139.3C217.9 139.3 219.3 138.4 219.3 138C219.3 137.5 219.6 137.4 219.2 137.1Z" fill="#FD7500"/>
<path d="M222.5 165C222.5 165 221.1 163 220.1 163.2C219.1 163.4 216.7 167.1 216.7 167.1L217.5 169.2L219 169.7L222.5 165Z" fill="url(#paint43_linear)"/>
<path d="M211 189.7C211 189.7 211 189.7 208.9 188.7C207 187.8 206.4 188.7 206.4 188.7L206.8 193.2V195.4L208.7 195.9H210.3L211 189.7Z" fill="url(#paint44_linear)"/>
<path d="M205.7 262.2H205.5C201.4 262.2 198.2 260.5 198.2 260.5H198.1V257C197.5 256.9 194.8 256.5 191.6 254.7C188.5 253 186.6 251.1 186.1 250.6V256.9H185.8V250.6C185.8 250.5 185.9 250.4 186 250.3C186.1 250.3 186.2 250.3 186.3 250.4C186.7 250.8 188.6 252.8 191.8 254.5C195.4 256.4 198.3 256.7 198.4 256.7H198.5V260.2C199 260.5 201.8 261.8 205.5 261.8V251.4H205.8V262.2H205.7Z" fill="#0C467E"/>
<path d="M210.2 251.8H209.2V266.8H210.2V251.8Z" fill="#0C467E"/>
<path opacity="0.2" d="M223.5 141.1C223.5 146.3 218 150.6 212.8 150.6C207.6 150.6 203.3 146.4 203.3 141.1C203.3 135.8 207.5 131.6 212.8 131.6C218.1 131.6 223.5 135.9 223.5 141.1Z" fill="#F1F1F1"/>
<path d="M218.2 133.4C218.2 133.4 210.8 135.5 211.8 142.9C212.3 147.2 218.4 148.6 218.4 148.6C218.4 148.6 213 152.4 208.1 149.3C203.2 146.2 203.3 142.8 203.2 141.9C203.2 141 203 135.4 207.8 132.9C209.9 131.8 212.2 131.4 214.1 131.7C216.5 132.1 218.2 133.4 218.2 133.4Z" fill="#F1F1F1"/>
<path d="M207.9 154.4L202.7 153.2C200.8 152.8 198.8 153.8 198.1 155.6C197.3 157.6 196.6 159.9 196.2 160.8C195.7 161.9 195.2 163.2 195.2 164C195.2 165.6 195.2 167.1 194.7 168.6C194.2 170.1 193.2 170.5 193.6 172.6C193.8 173.5 194.3 174.5 194.8 175.2C195.4 176.1 196.5 176.7 197.6 176.9L206.7 178.2L207.2 178.3C208.5 178.5 209.7 177.5 209.8 176.2L210.2 164C210.2 163.3 211.2 159.9 210.8 157.8C210.4 155.7 208.6 154.6 207.9 154.4Z" fill="#F1F1F1"/>
<path opacity="0.5" d="M207.9 154.4C207.9 154.4 203.4 168.2 203.9 172.5C204.4 176.8 206.8 178.2 206.8 178.2C206.8 178.2 209.8 178.6 209.8 176.1C209.8 173.6 210.2 163.9 210.2 163.9C210.2 163.9 212.9 154.9 207.9 154.4Z" fill="url(#paint45_linear)"/>
<path d="M214.7 150.5L208.4 154.7L209.8 155.6L217.5 150.3L214.7 150.5Z" fill="#F1F1F1"/>
<path d="M205.7 149.6L201.6 153.1L199.8 153.6C199.8 153.6 201.1 150.9 202.7 150.3C204.4 149.7 204.7 149.6 204.7 149.6H205.7Z" fill="#F1F1F1"/>
<path d="M197 158C196.9 157.8 194.8 153.1 196.1 150.7C197.1 148.9 197.6 147.1 197.8 145C197.8 144.8 197.8 144.6 197.8 144.4C197.9 143.2 197.9 141.7 199.1 140.3C200.5 138.5 203.5 139.2 204.5 139.6L204.2 140.2C203.5 139.9 200.8 139.1 199.6 140.7C198.6 142 198.5 143.3 198.4 144.5C198.4 144.7 198.4 144.9 198.4 145.1C198.2 147.3 197.7 149.2 196.7 151.1C195.5 153.3 197.6 157.8 197.6 157.9L197 158Z" fill="white"/>
<path d="M312.7 21.8L289.2 8.19995L288.8 148.4L508.3 275.1L508.4 253.9L507.9 253.6L507.8 274.3L289.2 148.1L289.6 8.99995L312.7 22.3V21.8ZM508.7 134.9L313.2 22V22.5L508.3 135.1L508 253L508.5 253.3L508.7 134.9Z" fill="#726282"/>
<path d="M312.8 0.599976L312.7 21.8V22.3C312.9 22.4 313 22.4 313.2 22.5V22.1L313.3 1.39998L531.9 127.6L531.5 266.7L508.4 253.4L507.9 253.1C507.9 253.3 507.9 253.4 507.8 253.6H507.9L508.4 253.9L531.9 267.5L532.3 127.3L312.8 0.599976Z" fill="#40364A"/>
<path d="M442.8 175.6L334.3 112.9V117L442.7 179.6L442.8 175.6Z" fill="#39313D"/>
<path d="M442.7 181.2L334.3 118.6V122.7L442.7 185.3V181.2Z" fill="#39313D"/>
<path d="M442.7 186.9L334.3 124.2L334.2 128.3L442.7 190.9V186.9Z" fill="#39313D"/>
<path d="M442.7 192.5L334.2 129.9V133.9L442.7 196.5V192.5Z" fill="#39313D"/>
<path d="M442.7 198.1L334.2 135.5V139.6L442.7 202.2V198.1Z" fill="#39313D"/>
<path d="M500.3 146.6L447.5 116.1V120.2L500.3 150.6V146.6Z" fill="#40364A"/>
<path d="M500.3 152.2L447.5 121.7V125.8L500.3 156.3V152.2Z" fill="#40364A"/>
<path d="M500.3 157.9L447.5 127.4V131.5L500.3 161.9V157.9Z" fill="#40364A"/>
<path d="M500.3 163.5L447.5 133V137.1L500.3 167.6V163.5Z" fill="#40364A"/>
<path d="M500.3 169.2L447.5 138.7V142.7L500.3 173.2V169.2Z" fill="#40364A"/>
<path d="M500.3 174.8L447.5 144.3V148.4L500.2 178.9L500.3 174.8Z" fill="#40364A"/>
<path d="M500.2 180.5L447.5 150L447.4 154L500.2 184.5V180.5Z" fill="#40364A"/>
<path d="M500.2 186.1L447.4 155.6V159.7L500.2 190.2V186.1Z" fill="#40364A"/>
<path d="M500.2 191.8L447.4 161.3V165.4L500.2 195.8V191.8Z" fill="#40364A"/>
<path d="M500.2 197.4L447.4 166.9V171L500.2 201.5V197.4Z" fill="#40364A"/>
<path d="M500.2 203L447.4 172.6V176.6L500.2 207.1V203Z" fill="#40364A"/>
<path d="M500.2 208.7L447.4 178.2V182.3L500.1 212.8L500.2 208.7Z" fill="#40364A"/>
<path d="M396.5 107.3C396.1 107.1 395.9 107.1 395.6 107.2C395.4 107.3 395.3 107.7 395.3 108.1V112.8C395.3 113.3 395.4 113.7 395.6 114.1C395.8 114.5 396.1 114.8 396.5 115C396.9 115.2 397.1 115.2 397.4 115.1C397.6 115 397.7 114.6 397.7 114.2V109.5C397.7 109 397.6 108.6 397.4 108.2C397.1 107.9 396.8 107.6 396.5 107.3ZM389.7 113V110.6L391.8 111.8V114.2L389.7 113ZM411.4 119.6L412.6 117.9L414.8 119.1L412.4 121.8L414.9 127.5L412.7 126.3L411.4 123.1L410.1 124.8L407.9 123.6L410.4 120.8L408 115.4L410.2 116.6L411.4 119.6ZM375.1 97.5V95.3L377.1 94.5L378.9 95.5V106.8L377.1 105.8V96.7L375.1 97.5ZM401.2 114.7V108.3L406.8 111.5V113.4L402.8 111.1V113.5C403.1 113.3 403.6 113.4 404.3 113.8C405.1 114.3 405.7 114.9 406.1 115.6C406.7 116.6 407 117.8 407 119.1C407 119.8 406.9 120.3 406.8 120.7C406.7 121.1 406.4 121.4 406.1 121.6C405.6 121.9 404.8 121.8 403.9 121.3C403 120.8 402.2 120 401.7 119.1C401.2 118.3 401 117.3 400.9 116.3L402.7 117.3C402.8 118.3 403.2 119 403.9 119.4C404.3 119.6 404.5 119.6 404.8 119.5C405.1 119.4 405.2 118.9 405.2 118C405.2 116.6 404.8 115.7 404 115.3C403.4 114.9 403 115 402.8 115.5L401.2 114.7ZM381.9 100.3C381.9 99.3 382.2 98.7 382.8 98.5C383.4 98.2 384.1 98.4 384.9 98.9C385.8 99.4 386.5 100.1 387.1 101.1C387.7 102 387.9 103 387.9 103.9C387.9 105 387.5 105.5 386.8 105.6C387.6 106.6 388.1 107.7 388.1 108.9C388.1 110 387.8 110.6 387.2 110.9C386.6 111.1 385.9 111 385 110.5C384.1 110 383.4 109.3 382.8 108.4C382.2 107.5 381.9 106.5 381.9 105.4L383.7 106.4C383.7 106.9 383.8 107.3 384.1 107.7C384.4 108.1 384.7 108.4 385 108.6C385.4 108.8 385.7 108.9 386 108.7C386.2 108.6 386.4 108.2 386.4 107.8C386.4 107.3 386.3 106.9 386 106.5C385.8 106.1 385.4 105.7 385 105.5L384.7 105.3V103.5L385 103.7C385.4 103.9 385.7 104 385.9 103.8C386.1 103.7 386.2 103.4 386.2 103C386.2 102.5 386.1 102.1 385.9 101.7C385.7 101.3 385.4 101 385 100.8C384.7 100.6 384.4 100.6 384.1 100.7C383.8 100.8 383.7 101.1 383.7 101.5L381.9 100.3ZM396.4 117C395.6 116.5 394.9 115.8 394.3 114.9C393.7 114 393.4 113 393.4 111.9V107.1C393.4 106.1 393.7 105.4 394.3 105.1C394.9 104.8 395.6 104.9 396.4 105.4C397.2 105.9 397.9 106.6 398.5 107.5C399.1 108.4 399.4 109.4 399.4 110.5V115.3C399.4 116.3 399.1 117 398.5 117.3C397.9 117.6 397.3 117.5 396.4 117ZM345.4 70.9V68.9L353.8 73.7V75.7L345.4 70.9ZM345.4 67.2V65.2L353.8 70V72L345.4 67.2ZM345.4 63.5V61.5L353.8 66.3V68.3L345.4 63.5ZM442.9 113.4L341.7 55L341.5 111.8L442.7 170.2L442.9 113.4Z" fill="#40364A"/>
<path d="M388.4 179.7L359.8 163.2C357.2 161.7 355 162.3 354.2 164.4C354.1 164.5 354.1 164.7 354 164.8C353.8 165.3 353.7 165.9 353.7 166.6C353.7 170.4 356.4 175.1 359.7 177L388.3 193.5C391.6 195.4 394.3 193.9 394.4 190C394.4 189.3 394.3 188.6 394.2 187.9C394.2 187.7 394.1 187.5 394 187.3C393.2 184.3 391 181.2 388.4 179.7Z" fill="#40364A"/>
<path d="M480.1 232.6L451.5 216.1C448.9 214.6 446.7 215.2 445.9 217.3C445.8 217.4 445.8 217.6 445.7 217.7C445.5 218.2 445.4 218.8 445.4 219.5C445.4 223.3 448.1 228 451.4 229.9L480 246.4C483.3 248.3 486 246.8 486.1 242.9C486.1 242.2 486 241.5 485.9 240.8C485.9 240.6 485.8 240.4 485.7 240.2C484.8 237.2 482.7 234.1 480.1 232.6Z" fill="#40364A"/>
<path d="M379 95.5L377.2 94.4L375.2 95.3L375.1 97.5L377.2 96.7L377.1 105.8L378.9 106.8L379 95.5Z" fill="white"/>
<path d="M385 98.8C384.2 98.3 383.4 98.2 382.9 98.4C382.3 98.7 382 99.3 382 100.2L383.8 101.2C383.8 100.8 383.9 100.5 384.2 100.4C384.5 100.3 384.7 100.3 385.1 100.5C385.4 100.7 385.7 101 386 101.4C386.2 101.8 386.3 102.2 386.3 102.7C386.3 103.1 386.2 103.4 386 103.5C385.8 103.6 385.5 103.6 385.1 103.4L384.8 103.2V105L385.1 105.2C385.5 105.4 385.9 105.8 386.1 106.2C386.3 106.6 386.5 107.1 386.5 107.5C386.5 108 386.4 108.3 386.1 108.4C385.9 108.5 385.5 108.5 385.1 108.3C384.7 108.1 384.4 107.8 384.2 107.4C383.9 107 383.8 106.6 383.8 106.1L382 105.1C382 106.2 382.3 107.2 382.9 108.1C383.5 109 384.2 109.7 385.1 110.2C386 110.7 386.7 110.9 387.3 110.6C387.9 110.4 388.2 109.7 388.2 108.6C388.2 107.4 387.8 106.3 386.9 105.3C387.7 105.3 388 104.7 388 103.6C388 102.6 387.7 101.7 387.2 100.8C386.6 100.1 385.8 99.3 385 98.8Z" fill="white"/>
<path d="M391.7 111.8L389.7 110.6V113L391.7 114.2V111.8Z" fill="white"/>
<path d="M396.4 115.1C396 114.9 395.8 114.6 395.5 114.2C395.3 113.8 395.2 113.4 395.2 112.9V108.2C395.2 107.7 395.3 107.4 395.5 107.3C395.7 107.2 396 107.2 396.4 107.4C396.8 107.6 397 107.9 397.3 108.3C397.5 108.7 397.6 109.1 397.6 109.6V114.3C397.6 114.8 397.5 115.1 397.3 115.2C397.1 115.4 396.8 115.3 396.4 115.1ZM396.5 105.5C395.7 105 395 104.9 394.4 105.2C393.8 105.5 393.5 106.1 393.5 107.2V112C393.5 113 393.8 114 394.4 115C395 115.9 395.7 116.7 396.5 117.1C397.3 117.6 398 117.7 398.6 117.4C399.2 117.1 399.5 116.5 399.5 115.4V110.6C399.5 109.6 399.2 108.6 398.6 107.6C398 106.7 397.3 106 396.5 105.5Z" fill="white"/>
<path d="M406.8 111.6L401.2 108.4V114.8L402.8 115.7C403 115.2 403.4 115.1 404 115.5C404.8 116 405.2 116.9 405.2 118.2C405.2 119 405.1 119.5 404.8 119.7C404.6 119.8 404.3 119.8 403.9 119.6C403.2 119.2 402.8 118.5 402.7 117.5L400.9 116.5C401 117.6 401.2 118.5 401.7 119.3C402.2 120.2 403 120.9 403.9 121.5C404.8 122 405.5 122.1 406.1 121.8C406.4 121.6 406.7 121.3 406.8 120.9C406.9 120.5 407 120 407 119.3C407 118 406.7 116.8 406.1 115.8C405.7 115 405 114.4 404.3 114C403.7 113.6 403.2 113.5 402.8 113.7V111.3L406.8 113.6V111.6Z" fill="white"/>
<path d="M414.8 119.2L412.6 117.9L411.4 119.6L410.1 116.5L408 115.3L410.4 120.7L407.9 123.5L410 124.8L411.3 123L412.7 126.3L414.8 127.5L412.4 121.9L414.8 119.2Z" fill="white"/>
<path d="M353.8 66.3L345.4 61.5V63.5L353.8 68.3V66.3Z" fill="#50445C"/>
<path d="M353.8 70L345.4 65.2V67.2L353.8 72V70Z" fill="#50445C"/>
<path d="M353.8 73.7L345.4 68.9V70.9L353.8 75.8V73.7Z" fill="#50445C"/>
<path d="M399.6 217L371 200.4C367.7 198.5 365 200 364.9 203.9C364.9 207.7 367.6 212.4 370.9 214.3L399.5 230.8C402.8 232.7 405.5 231.2 405.6 227.3C405.7 223.6 403 218.9 399.6 217Z" fill="url(#paint46_linear)"/>
<path d="M402.6 192.3C403.6 191 405.5 190.8 407.5 192L436.1 208.5C438.2 209.7 440 212 441 214.4C441.1 214.6 441.2 214.9 441.3 215.1C441.7 216.2 441.9 217.4 441.9 218.5C441.9 222.2 439.3 223.7 436.1 221.8L407.5 205.3C404.3 203.5 401.7 199 401.7 195.3C401.7 194.2 401.9 193.3 402.3 192.6C402.4 192.6 402.5 192.5 402.6 192.3ZM436.2 208.1L407.6 191.6C405.3 190.3 403.2 190.5 402.1 192.1C402 192.2 401.9 192.4 401.9 192.5C401.5 193.2 401.3 194.1 401.3 195.2C401.3 199.2 404.1 204 407.5 206L436.1 222.5C439.6 224.5 442.4 222.9 442.4 218.9C442.4 217.8 442.2 216.7 441.8 215.5C441.7 215.3 441.6 215.1 441.6 214.8C440.5 212 438.5 209.4 436.2 208.1Z" fill="#A72989"/>
<path d="M288.2 73.7C282.2 70.2 277.3 61.8 277.4 54.9C277.4 48 282.3 45.2 288.3 48.7L318.5 66.1L318.4 91.1L288.2 73.7ZM318.9 65.9L288.3 48.2C282.1 44.6 276.9 47.5 276.9 54.7C276.9 61.9 281.9 70.7 288.2 74.3L318.8 92L318.9 65.9Z" fill="#37303F"/>
<path d="M288.4 64.3001C286.9 63.4001 285.6 61.3001 285.6 59.5001C285.6 57.7001 286.9 57.0001 288.4 57.9001C289.9 58.8001 291.2 60.9001 291.2 62.7001C291.2 64.5001 289.9 65.2001 288.4 64.3001ZM288.4 57.4001C286.6 56.4001 285.2 57.2001 285.1 59.2001C285.1 61.3001 286.5 63.8001 288.3 64.8001C290.1 65.8001 291.5 65.0001 291.5 62.9001C291.6 60.9001 290.2 58.4001 288.4 57.4001ZM288.3 70.3001C283.9 67.8001 280.3 61.6001 280.3 56.5001C280.3 51.4001 283.9 49.4001 288.3 51.9001C292.7 54.4001 296.3 60.6001 296.3 65.7001C296.3 70.8001 292.7 72.8001 288.3 70.3001ZM288.4 51.4001C283.7 48.7001 279.9 50.9001 279.9 56.2001C279.9 61.5001 283.7 68.1001 288.3 70.8001C293 73.5001 296.7 71.3001 296.8 66.0001C296.8 60.6001 293 54.1001 288.4 51.4001Z" fill="#37303F"/>
<path d="M288.1 104.6C282.1 101.1 277.2 92.7001 277.3 85.8001C277.3 78.9001 282.2 76.1001 288.2 79.6001L318.4 97.0001L318.3 122L288.1 104.6ZM318.8 96.7001L288.2 79.0001C282 75.4001 276.8 78.3001 276.8 85.5001C276.8 92.7001 281.8 101.5 288.1 105.1L318.7 122.8L318.8 96.7001Z" fill="#37303F"/>
<path d="M288.3 95.1001C286.8 94.2001 285.5 92.1001 285.5 90.3001C285.5 88.5001 286.8 87.8001 288.3 88.7001C289.8 89.6001 291.1 91.7001 291.1 93.5001C291 95.3001 289.8 96.0001 288.3 95.1001ZM288.3 88.2001C286.5 87.2001 285.1 88.0001 285 90.0001C285 92.1001 286.4 94.6001 288.2 95.6001C290 96.6001 291.4 95.8001 291.4 93.7001C291.5 91.8001 290.1 89.3001 288.3 88.2001ZM288.2 101.1C283.8 98.6001 280.2 92.4001 280.2 87.3001C280.2 82.2001 283.8 80.2001 288.2 82.7001C292.6 85.2001 296.2 91.4001 296.2 96.5001C296.2 101.6 292.6 103.7 288.2 101.1ZM288.3 82.3001C283.6 79.6001 279.8 81.8001 279.8 87.1001C279.8 92.4001 283.6 99.0001 288.2 101.7C292.9 104.4 296.6 102.2 296.7 96.9001C296.7 91.5001 293 84.9001 288.3 82.3001Z" fill="#37303F"/>
<path d="M288 135.4C282 131.9 277.1 123.5 277.2 116.6C277.2 109.7 282.1 106.9 288.1 110.4L318.3 127.8L318.2 152.8L288 135.4ZM318.7 127.6L288.1 109.9C281.9 106.3 276.7 109.2 276.7 116.4C276.7 123.6 281.7 132.4 288 136L318.6 153.7L318.7 127.6Z" fill="#574864"/>
<path d="M288.2 126C286.7 125.1 285.4 123 285.4 121.2C285.4 119.4 286.7 118.7 288.2 119.6C289.7 120.5 291 122.6 291 124.4C291 126.2 289.7 126.9 288.2 126ZM288.2 119C286.4 118 285 118.8 284.9 120.9C284.9 123 286.3 125.5 288.1 126.5C289.9 127.5 291.3 126.7 291.3 124.6C291.4 122.6 290 120.1 288.2 119ZM288.2 131.9C283.8 129.4 280.2 123.2 280.2 118.1C280.2 113 283.8 111 288.2 113.5C292.6 116 296.2 122.2 296.2 127.3C296.1 132.4 292.6 134.5 288.2 131.9ZM288.2 113.1C283.5 110.4 279.7 112.6 279.7 117.9C279.7 123.2 283.5 129.8 288.1 132.5C292.8 135.2 296.5 133 296.6 127.7C296.6 122.3 292.9 115.8 288.2 113.1Z" fill="#37303F"/>
<path d="M281 74.4C275 70.9 270.1 62.5 270.2 55.6C270.2 48.7 275.1 45.9 281.1 49.4L311.3 66.8L311.2 91.8L281 74.4ZM311.7 66.6L281.1 48.9C274.8 45.3 269.7 48.2 269.7 55.4C269.7 62.6 274.7 71.4 281 75L311.6 92.7L311.7 66.6Z" fill="#726282"/>
<path d="M281.2 65.2C279.5 64.2 278.2 61.9 278.2 60C278.2 58.1 279.6 57.3 281.2 58.3C282.9 59.3 284.2 61.6 284.2 63.5C284.2 65.4 282.9 66.2 281.2 65.2ZM281.2 52.3C276.7 49.7 273 51.8 273 57C273 62.2 276.6 68.6 281.2 71.2C285.8 73.8 289.4 71.7 289.4 66.5C289.4 61.3 285.8 55 281.2 52.3Z" fill="#726282"/>
<path d="M280.9 105.2C274.9 101.7 270 93.3 270.1 86.4C270.1 79.5 275 76.7 281 80.2L311.2 97.6L311.1 122.6L280.9 105.2ZM311.7 97.4L281 79.7C274.7 76.1 269.6 79 269.6 86.2C269.6 93.4 274.6 102.2 280.9 105.8L311.5 123.5L311.7 97.4Z" fill="#726282"/>
<path d="M281.1 96.0999C279.4 95.0999 278.1 92.7999 278.1 90.8999C278.1 88.9999 279.5 88.1999 281.1 89.1999C282.8 90.1999 284.1 92.4999 284.1 94.3999C284.1 96.1999 282.8 96.9999 281.1 96.0999ZM281.1 83.1999C276.6 80.5999 272.9 82.6999 272.9 87.8999C272.9 93.0999 276.5 99.4999 281.1 102.1C285.7 104.7 289.3 102.6 289.3 97.3999C289.3 92.0999 285.7 85.7999 281.1 83.1999Z" fill="#726282"/>
<path d="M280.9 136.1C274.9 132.6 270 124.2 270.1 117.3C270.2 110.4 275 107.6 281 111.1L311.2 128.5L311.1 153.5L280.9 136.1ZM311.6 128.2L281 110.5C274.7 106.9 269.6 109.8 269.6 117C269.6 124.2 274.6 133 280.9 136.6L311.5 154.3L311.6 128.2Z" fill="#726282"/>
<path d="M281 126.9C279.3 125.9 278 123.6 278 121.7C278 119.8 279.4 119 281 120C282.7 121 284 123.3 284 125.2C284 127.1 282.7 127.8 281 126.9ZM281.1 114C276.6 111.4 272.9 113.5 272.9 118.7C272.9 123.9 276.5 130.3 281.1 132.9C285.7 135.5 289.3 133.4 289.3 128.2C289.3 123 285.6 116.6 281.1 114Z" fill="#726282"/>
<path d="M432.2 137.4C395.3 137.4 351.3 110.7 350.9 110.4L351.2 109.8C351.7 110.1 399.9 139.3 437.5 136.5V137.1C435.8 137.3 434 137.4 432.2 137.4Z" fill="url(#paint47_linear)"/>
<defs>
<linearGradient id="paint0_linear" x1="108.222" y1="337.765" x2="108.222" y2="266.47" gradientUnits="userSpaceOnUse">
<stop stop-color="#26222B" stop-opacity="0"/>
<stop offset="1" stop-color="#FD7500"/>
</linearGradient>
<linearGradient id="paint1_linear" x1="108.163" y1="336.348" x2="108.163" y2="265.053" gradientUnits="userSpaceOnUse">
<stop stop-color="#26222B" stop-opacity="0"/>
<stop offset="1" stop-color="#FD7500"/>
</linearGradient>
<linearGradient id="paint2_linear" x1="108.262" y1="307.457" x2="108.262" y2="274.336" gradientUnits="userSpaceOnUse">
<stop stop-color="#F9E100"/>
<stop offset="1" stop-color="#FD7500"/>
</linearGradient>
<linearGradient id="paint3_linear" x1="91.9291" y1="299.109" x2="91.9291" y2="265.988" gradientUnits="userSpaceOnUse">
<stop stop-color="#F9E100"/>
<stop offset="1" stop-color="#FD7500"/>
</linearGradient>
<linearGradient id="paint4_linear" x1="124.543" y1="299.109" x2="124.543" y2="265.988" gradientUnits="userSpaceOnUse">
<stop stop-color="#F9E100"/>
<stop offset="1" stop-color="#FD7500"/>
</linearGradient>
<linearGradient id="paint5_linear" x1="91.929" y1="278.887" x2="91.929" y2="237.265" gradientUnits="userSpaceOnUse">
<stop stop-color="#E71C69"/>
<stop offset="0.4208" stop-color="#064683"/>
</linearGradient>
<linearGradient id="paint6_linear" x1="124.543" y1="278.887" x2="124.543" y2="237.265" gradientUnits="userSpaceOnUse">
<stop stop-color="#E71C69"/>
<stop offset="0.4208" stop-color="#064683"/>
</linearGradient>
<linearGradient id="paint7_linear" x1="108.289" y1="286.305" x2="108.289" y2="246.261" gradientUnits="userSpaceOnUse">
<stop stop-color="#E71C69"/>
<stop offset="0.4208" stop-color="#064683"/>
</linearGradient>
<linearGradient id="paint8_linear" x1="92.9656" y1="252.575" x2="117.321" y2="231.039" gradientUnits="userSpaceOnUse">
<stop stop-color="#18569D"/>
<stop offset="1" stop-color="#5D95EC"/>
</linearGradient>
<linearGradient id="paint9_linear" x1="97.8544" y1="249.467" x2="108.822" y2="224.589" gradientUnits="userSpaceOnUse">
<stop stop-color="#18569D"/>
<stop offset="1" stop-color="#5D95EC"/>
</linearGradient>
<linearGradient id="paint10_linear" x1="107.603" y1="222.517" x2="91.1453" y2="232.905" gradientUnits="userSpaceOnUse">
<stop stop-color="#3754C8"/>
<stop offset="1" stop-color="#D2E7FF"/>
</linearGradient>
<linearGradient id="paint11_linear" x1="106.683" y1="220.211" x2="106.683" y2="170.438" gradientUnits="userSpaceOnUse">
<stop stop-color="#5A3CAA"/>
<stop offset="1" stop-color="#886ECF"/>
</linearGradient>
<linearGradient id="paint12_linear" x1="112.029" y1="156.781" x2="109.019" y2="161.186" gradientUnits="userSpaceOnUse">
<stop stop-color="#6646B7"/>
<stop offset="1" stop-color="#886ECF" stop-opacity="0"/>
</linearGradient>
<linearGradient id="paint13_linear" x1="102.98" y1="181.755" x2="101.64" y2="183.716" gradientUnits="userSpaceOnUse">
<stop stop-color="#6646B7"/>
<stop offset="1" stop-color="#886ECF" stop-opacity="0"/>
</linearGradient>
<linearGradient id="paint14_linear" x1="97.2317" y1="158.061" x2="104.358" y2="158.061" gradientUnits="userSpaceOnUse">
<stop stop-color="#C1C1C1"/>
<stop offset="1" stop-color="#F1F1F1"/>
</linearGradient>
<linearGradient id="paint15_linear" x1="32.5776" y1="268.696" x2="32.5776" y2="197.4" gradientUnits="userSpaceOnUse">
<stop stop-color="#26222B" stop-opacity="0"/>
<stop offset="1" stop-color="#FD7500"/>
</linearGradient>
<linearGradient id="paint16_linear" x1="32.5776" y1="268.696" x2="32.5776" y2="197.4" gradientUnits="userSpaceOnUse">
<stop stop-color="#26222B" stop-opacity="0"/>
<stop offset="1" stop-color="#FD7500"/>
</linearGradient>
<linearGradient id="paint17_linear" x1="32.617" y1="238.388" x2="32.617" y2="205.267" gradientUnits="userSpaceOnUse">
<stop stop-color="#F9E100"/>
<stop offset="1" stop-color="#FD7500"/>
</linearGradient>
<linearGradient id="paint18_linear" x1="16.2846" y1="230.04" x2="16.2846" y2="196.919" gradientUnits="userSpaceOnUse">
<stop stop-color="#F9E100"/>
<stop offset="1" stop-color="#FD7500"/>
</linearGradient>
<linearGradient id="paint19_linear" x1="48.8981" y1="218.307" x2="48.8981" y2="196.826" gradientUnits="userSpaceOnUse">
<stop stop-color="#F9E100"/>
<stop offset="1" stop-color="#FD7500"/>
</linearGradient>
<linearGradient id="paint20_linear" x1="16.2845" y1="209.818" x2="16.2845" y2="168.196" gradientUnits="userSpaceOnUse">
<stop stop-color="#E71C69"/>
<stop offset="0.4208" stop-color="#064683"/>
</linearGradient>
<linearGradient id="paint21_linear" x1="48.8983" y1="209.818" x2="48.8983" y2="168.196" gradientUnits="userSpaceOnUse">
<stop stop-color="#E71C69"/>
<stop offset="0.4208" stop-color="#064683"/>
</linearGradient>
<linearGradient id="paint22_linear" x1="32.6444" y1="217.236" x2="32.6444" y2="177.192" gradientUnits="userSpaceOnUse">
<stop stop-color="#E71C69"/>
<stop offset="0.4208" stop-color="#064683"/>
</linearGradient>
<linearGradient id="paint23_linear" x1="17.3212" y1="183.492" x2="41.6557" y2="161.974" gradientUnits="userSpaceOnUse">
<stop stop-color="#18569D"/>
<stop offset="1" stop-color="#5D95EC"/>
</linearGradient>
<linearGradient id="paint24_linear" x1="22.2098" y1="180.427" x2="33.1775" y2="155.549" gradientUnits="userSpaceOnUse">
<stop stop-color="#18569D"/>
<stop offset="1" stop-color="#5D95EC"/>
</linearGradient>
<linearGradient id="paint25_linear" x1="31.4409" y1="153.304" x2="14.0746" y2="164.266" gradientUnits="userSpaceOnUse">
<stop stop-color="#3754C8"/>
<stop offset="1" stop-color="#D2E7FF"/>
</linearGradient>
<linearGradient id="paint26_linear" x1="31.2806" y1="150.854" x2="33.189" y2="100.598" gradientUnits="userSpaceOnUse">
<stop stop-color="#155092"/>
<stop offset="1" stop-color="#70ADFB"/>
</linearGradient>
<linearGradient id="paint27_linear" x1="27.5644" y1="112.979" x2="24.9426" y2="118.429" gradientUnits="userSpaceOnUse">
<stop stop-color="#2C68B1"/>
<stop offset="1" stop-color="#70ADFB" stop-opacity="0"/>
</linearGradient>
<linearGradient id="paint28_linear" x1="40.7081" y1="88.5914" x2="34.9809" y2="92.2065" gradientUnits="userSpaceOnUse">
<stop stop-color="#3577C8"/>
<stop offset="1" stop-color="#70ADFB" stop-opacity="0"/>
</linearGradient>
<linearGradient id="paint29_linear" x1="21.51" y1="84.8051" x2="28.6555" y2="84.8051" gradientUnits="userSpaceOnUse">
<stop stop-color="#C1C1C1"/>
<stop offset="1" stop-color="#F1F1F1"/>
</linearGradient>
<linearGradient id="paint30_linear" x1="24.1987" y1="98.442" x2="27.968" y2="98.442" gradientUnits="userSpaceOnUse">
<stop stop-color="#C1C1C1"/>
<stop offset="1" stop-color="#F1F1F1"/>
</linearGradient>
<linearGradient id="paint31_linear" x1="214.368" y1="339.583" x2="214.368" y2="268.288" gradientUnits="userSpaceOnUse">
<stop stop-color="#26222B" stop-opacity="0"/>
<stop offset="1" stop-color="#FD7500"/>
</linearGradient>
<linearGradient id="paint32_linear" x1="214.491" y1="344.43" x2="214.491" y2="273.134" gradientUnits="userSpaceOnUse">
<stop stop-color="#26222B" stop-opacity="0"/>
<stop offset="1" stop-color="#FD7500"/>
</linearGradient>
<linearGradient id="paint33_linear" x1="214.464" y1="314.169" x2="214.464" y2="281.049" gradientUnits="userSpaceOnUse">
<stop stop-color="#F9E100"/>
<stop offset="1" stop-color="#FD7500"/>
</linearGradient>
<linearGradient id="paint34_linear" x1="198.131" y1="295.852" x2="198.131" y2="272.622" gradientUnits="userSpaceOnUse">
<stop stop-color="#F9E100"/>
<stop offset="1" stop-color="#FD7500"/>
</linearGradient>
<linearGradient id="paint35_linear" x1="230.745" y1="305.821" x2="230.745" y2="272.701" gradientUnits="userSpaceOnUse">
<stop stop-color="#F9E100"/>
<stop offset="1" stop-color="#FD7500"/>
</linearGradient>
<linearGradient id="paint36_linear" x1="198.131" y1="285.599" x2="198.131" y2="243.978" gradientUnits="userSpaceOnUse">
<stop stop-color="#E71C69"/>
<stop offset="0.4208" stop-color="#064683"/>
</linearGradient>
<linearGradient id="paint37_linear" x1="230.745" y1="285.599" x2="230.745" y2="243.978" gradientUnits="userSpaceOnUse">
<stop stop-color="#E71C69"/>
<stop offset="0.4208" stop-color="#064683"/>
</linearGradient>
<linearGradient id="paint38_linear" x1="214.491" y1="293.017" x2="214.491" y2="252.973" gradientUnits="userSpaceOnUse">
<stop stop-color="#E71C69"/>
<stop offset="0.4208" stop-color="#064683"/>
</linearGradient>
<linearGradient id="paint39_linear" x1="199.096" y1="259.381" x2="223.451" y2="237.845" gradientUnits="userSpaceOnUse">
<stop stop-color="#18569D"/>
<stop offset="1" stop-color="#5D95EC"/>
</linearGradient>
<linearGradient id="paint40_linear" x1="203.985" y1="256.32" x2="214.952" y2="231.442" gradientUnits="userSpaceOnUse">
<stop stop-color="#18569D"/>
<stop offset="1" stop-color="#5D95EC"/>
</linearGradient>
<linearGradient id="paint41_linear" x1="213.124" y1="229.639" x2="196.644" y2="240.041" gradientUnits="userSpaceOnUse">
<stop stop-color="#3754C8"/>
<stop offset="1" stop-color="#D2E7FF"/>
</linearGradient>
<linearGradient id="paint42_linear" x1="213.109" y1="226.356" x2="214.7" y2="177.675" gradientUnits="userSpaceOnUse">
<stop stop-color="#335092"/>
<stop offset="1" stop-color="#70ADFB"/>
</linearGradient>
<linearGradient id="paint43_linear" x1="220.618" y1="163.337" x2="218.364" y2="168.358" gradientUnits="userSpaceOnUse">
<stop stop-color="#3577C8"/>
<stop offset="1" stop-color="#70ADFB" stop-opacity="0"/>
</linearGradient>
<linearGradient id="paint44_linear" x1="209.068" y1="189.352" x2="206.449" y2="194.796" gradientUnits="userSpaceOnUse">
<stop stop-color="#2C68B1"/>
<stop offset="1" stop-color="#70ADFB" stop-opacity="0"/>
</linearGradient>
<linearGradient id="paint45_linear" x1="203.83" y1="166.333" x2="210.956" y2="166.333" gradientUnits="userSpaceOnUse">
<stop stop-color="#C1C1C1"/>
<stop offset="1" stop-color="#F1F1F1"/>
</linearGradient>
<linearGradient id="paint46_linear" x1="382.124" y1="218.11" x2="385.858" y2="213.38" gradientUnits="userSpaceOnUse">
<stop stop-color="#A72989"/>
<stop offset="1" stop-color="#C32889"/>
</linearGradient>
<linearGradient id="paint47_linear" x1="350.839" y1="123.633" x2="437.527" y2="123.633" gradientUnits="userSpaceOnUse">
<stop stop-color="#70ADFB"/>
<stop offset="1" stop-color="#886ECF"/>
</linearGradient>
</defs>
</svg>
