<svg width="200" height="215" viewBox="0 0 200 215" fill="none" xmlns="http://www.w3.org/2000/svg">
<path fill-rule="evenodd" clip-rule="evenodd" d="M79.4232 157.604C90.8893 149.274 93.7069 142.429 83.6255 128.553C73.5441 114.678 66.1638 115.242 54.6976 123.573C43.2315 131.903 37.1021 163.945 37.1021 163.945C37.1021 163.945 67.957 165.935 79.4232 157.604Z" fill="url(#paint0_linear)"/>
<path fill-rule="evenodd" clip-rule="evenodd" d="M66.0371 118.995L88.5672 143.397C91.3106 146.369 91.4313 150.912 88.8495 154.025C86.2337 157.179 81.6186 157.76 78.3021 155.354C72.3983 151.07 67.8861 146.891 64.7656 142.817C61.5115 138.569 57.9234 133.082 54.0013 126.354L54.0013 126.354C52.217 123.294 53.2388 119.367 56.2885 117.564C59.4692 115.684 63.5308 116.28 66.0371 118.995Z" fill="#4472BA"/>
<path fill-rule="evenodd" clip-rule="evenodd" d="M52.7018 98.8748C79.0914 76.4147 98.8036 61.5154 111.838 54.1769C131.39 43.1691 169.221 36.4478 179.235 48.8137C189.248 61.1796 173.852 96.8421 159.845 113.461C150.507 124.54 131.683 140.472 103.373 161.256C87.3287 154.332 75.6595 146.062 68.3657 136.445C61.072 126.828 55.8507 114.305 52.7018 98.8748Z" fill="url(#paint1_linear)"/>
<path fill-rule="evenodd" clip-rule="evenodd" d="M52.7018 98.8748C79.0914 76.4147 98.8036 61.5154 111.838 54.1769C131.39 43.1691 169.221 36.4478 179.235 48.8137C189.248 61.1796 173.852 96.8421 159.845 113.461C150.507 124.54 131.683 140.472 103.373 161.256C87.3287 154.332 75.6595 146.062 68.3657 136.445C61.072 126.828 55.8507 114.305 52.7018 98.8748Z" fill="url(#paint2_linear)"/>
<path fill-rule="evenodd" clip-rule="evenodd" d="M52.7018 98.8748C79.0914 76.4147 98.8036 61.5154 111.838 54.1769C131.39 43.1691 169.221 36.4478 179.235 48.8137C189.248 61.1796 173.852 96.8421 159.845 113.461C150.507 124.54 131.683 140.472 103.373 161.256C87.3287 154.332 75.6595 146.062 68.3657 136.445C61.072 126.828 55.8507 114.305 52.7018 98.8748Z" fill="url(#paint3_linear)"/>
<path fill-rule="evenodd" clip-rule="evenodd" d="M87.6728 70.4521C90.2301 68.8713 60.5473 65.5449 53.4201 68.8722C46.0598 72.1705 38.6815 77.4445 30.3251 83.5537C28.7245 84.7166 29.3153 87.038 30.566 88.2772C32.4581 90.1457 50.8141 100.485 52.8539 99.056C53.1109 98.8759 62.2178 91.268 70.3006 84.5365C78.4418 77.7564 84.6025 72.3499 87.6728 70.4521Z" fill="#5488D9"/>
<path fill-rule="evenodd" clip-rule="evenodd" d="M138.806 134.057C141.199 133.396 136.592 161.794 131.533 167.817C126.442 174.073 119.438 179.835 111.374 186.325C109.837 187.57 107.748 186.399 106.874 184.87C105.559 182.559 101.886 163.282 103.353 161.111C103.767 160.496 110.459 156.211 117.602 150.657C126.974 143.371 137.448 134.432 138.806 134.057Z" fill="#5488D9"/>
<path fill-rule="evenodd" clip-rule="evenodd" d="M124.33 111.628C140.077 117.673 157.741 109.808 163.786 94.0616C169.83 78.3153 161.965 60.6504 146.219 54.606C130.473 48.5616 112.808 56.4265 106.763 72.1728C100.719 87.9191 108.584 105.584 124.33 111.628Z" fill="#5488D9"/>
<path fill-rule="evenodd" clip-rule="evenodd" d="M128.035 101.658C138.532 105.688 150.309 100.445 154.339 89.9471C158.368 79.4496 153.125 67.673 142.627 63.6434C132.13 59.6138 120.353 64.857 116.324 75.3546C112.294 85.8521 117.537 97.6287 128.035 101.658Z" fill="white"/>
<defs>
<linearGradient id="paint0_linear" x1="48.7084" y1="179.92" x2="95.9883" y2="145.569" gradientUnits="userSpaceOnUse">
<stop stop-color="#FFD300"/>
<stop offset="1" stop-color="#FF3F00"/>
</linearGradient>
<linearGradient id="paint1_linear" x1="0.142603" y1="67.1453" x2="97.9151" y2="214.53" gradientUnits="userSpaceOnUse">
<stop stop-color="#FFD529"/>
<stop offset="1" stop-color="#FD8440"/>
</linearGradient>
<linearGradient id="paint2_linear" x1="119.652" y1="-46.0477" x2="-69.1667" y2="71.6239" gradientUnits="userSpaceOnUse">
<stop stop-color="#AFE6FF"/>
<stop offset="0.397863" stop-color="#38B2FF"/>
<stop offset="1" stop-color="#7B20D0"/>
</linearGradient>
<linearGradient id="paint3_linear" x1="138.78" y1="-32.6747" x2="-24.4673" y2="65.2061" gradientUnits="userSpaceOnUse">
<stop stop-color="#5ED3FF"/>
<stop offset="1" stop-color="#13ACE6"/>
</linearGradient>
</defs>
</svg>
