<svg width="466" height="270" viewBox="0 0 466 270" fill="none" xmlns="http://www.w3.org/2000/svg">
<path d="M325.9 114.7L321.5 110.4L313.6 118.3L305.6 110.4L301.3 114.7L309.2 122.7L301.3 130.6L305.6 135L313.6 127L321.5 135L325.9 130.6L317.9 122.7L325.9 114.7Z" fill="white"/>
<path d="M46.1001 81.1C46.6524 81.1 47.1001 80.6523 47.1001 80.1C47.1001 79.5478 46.6524 79.1 46.1001 79.1C45.5478 79.1 45.1001 79.5478 45.1001 80.1C45.1001 80.6523 45.5478 81.1 46.1001 81.1Z" fill="white"/>
<path opacity="0.2" d="M67.1001 102.8C71.6289 102.8 75.3001 99.1288 75.3001 94.6C75.3001 90.0713 71.6289 86.4 67.1001 86.4C62.5714 86.4 58.9001 90.0713 58.9001 94.6C58.9001 99.1288 62.5714 102.8 67.1001 102.8Z" fill="url(#paint0_radial)"/>
<path opacity="0.2" d="M37.4002 118.9C44.1381 118.9 49.6002 113.438 49.6002 106.7C49.6002 99.9621 44.1381 94.5 37.4002 94.5C30.6623 94.5 25.2002 99.9621 25.2002 106.7C25.2002 113.438 30.6623 118.9 37.4002 118.9Z" fill="url(#paint1_radial)"/>
<path opacity="0.2" d="M46.1001 92.3C52.838 92.3 58.3001 86.8379 58.3001 80.1C58.3001 73.3621 52.838 67.9 46.1001 67.9C39.3623 67.9 33.9001 73.3621 33.9001 80.1C33.9001 86.8379 39.3623 92.3 46.1001 92.3Z" fill="url(#paint2_radial)"/>
<path d="M67.1001 95.6C67.6524 95.6 68.1001 95.1523 68.1001 94.6C68.1001 94.0478 67.6524 93.6 67.1001 93.6C66.5478 93.6 66.1001 94.0478 66.1001 94.6C66.1001 95.1523 66.5478 95.6 67.1001 95.6Z" fill="white"/>
<path d="M58.9001 144.1C59.4524 144.1 59.9001 143.652 59.9001 143.1C59.9001 142.548 59.4524 142.1 58.9001 142.1C58.3479 142.1 57.9001 142.548 57.9001 143.1C57.9001 143.652 58.3479 144.1 58.9001 144.1Z" fill="white"/>
<path d="M1.6001 117.3C2.15238 117.3 2.6001 116.852 2.6001 116.3C2.6001 115.748 2.15238 115.3 1.6001 115.3C1.04781 115.3 0.600098 115.748 0.600098 116.3C0.600098 116.852 1.04781 117.3 1.6001 117.3Z" fill="white"/>
<path d="M37.4001 107.7C37.9524 107.7 38.4001 107.252 38.4001 106.7C38.4001 106.148 37.9524 105.7 37.4001 105.7C36.8479 105.7 36.4001 106.148 36.4001 106.7C36.4001 107.252 36.8479 107.7 37.4001 107.7Z" fill="white"/>
<path d="M429.3 75.1C429.852 75.1 430.3 74.6523 430.3 74.1C430.3 73.5478 429.852 73.1 429.3 73.1C428.748 73.1 428.3 73.5478 428.3 74.1C428.3 74.6523 428.748 75.1 429.3 75.1Z" fill="white"/>
<path opacity="0.2" d="M447.7 65.3C454.438 65.3 459.9 59.8379 459.9 53.1C459.9 46.3621 454.438 40.9 447.7 40.9C440.962 40.9 435.5 46.3621 435.5 53.1C435.5 59.8379 440.962 65.3 447.7 65.3Z" fill="url(#paint3_radial)"/>
<path opacity="0.2" d="M429.3 86.3C436.038 86.3 441.5 80.8379 441.5 74.1C441.5 67.3621 436.038 61.9 429.3 61.9C422.562 61.9 417.1 67.3621 417.1 74.1C417.1 80.8379 422.562 86.3 429.3 86.3Z" fill="url(#paint4_radial)"/>
<path opacity="0.2" d="M415.6 60.7001C420.129 60.7001 423.8 57.0288 423.8 52.5C423.8 47.9713 420.129 44.3 415.6 44.3C411.071 44.3 407.4 47.9713 407.4 52.5C407.4 57.0288 411.071 60.7001 415.6 60.7001Z" fill="url(#paint5_radial)"/>
<path d="M415.6 53.5001C416.152 53.5001 416.6 53.0523 416.6 52.5001C416.6 51.9478 416.152 51.5001 415.6 51.5001C415.048 51.5001 414.6 51.9478 414.6 52.5001C414.6 53.0523 415.048 53.5001 415.6 53.5001Z" fill="white"/>
<path d="M447.7 54.1C448.252 54.1 448.7 53.6523 448.7 53.1C448.7 52.5478 448.252 52.1 447.7 52.1C447.148 52.1 446.7 52.5478 446.7 53.1C446.7 53.6523 447.148 54.1 447.7 54.1Z" fill="white"/>
<path d="M363.6 193H125.9C124.2 193 122.9 191.7 122.9 190V45C122.9 43.3 124.2 42 125.9 42H363.6C365.3 42 366.6 43.3 366.6 45V190C366.6 191.6 365.2 193 363.6 193Z" fill="url(#paint6_linear)"/>
<path d="M157 174.5C156.5 174.5 156.1 174.2 156 173.7C155.9 173.2 156.2 172.6 156.7 172.5C157.5 172.3 241.8 151.7 299.4 105.2C323.3 85.9 341.9 59.8 342.1 59.6C342.4 59.1 343 59 343.5 59.4C344 59.7 344.1 60.3 343.7 60.8C343.5 61.1 324.8 87.4 300.7 106.8C242.7 153.6 158 174.3 157.2 174.5C157.2 174.5 157.1 174.5 157 174.5Z" fill="url(#paint7_linear)"/>
<path d="M363.6 10.5H125.9C124.2 10.5 122.9 11.8 122.9 13.5V33.7C122.9 35.4 124.2 36.7 125.9 36.7H363.6C365.3 36.7 366.6 35.4 366.6 33.7V13.5C366.6 11.9 365.2 10.5 363.6 10.5Z" fill="#40364A"/>
<path d="M372.5 203.1H98C96.1 203.1 94.5 201.5 94.5 199.6V3.90002C94.5 2.00002 96.1 0.400024 98 0.400024H372.5C374.4 0.400024 376 2.00002 376 3.90002V199.7C376 201.6 374.4 203.1 372.5 203.1ZM98 1.40002C96.6 1.40002 95.5 2.50002 95.5 3.90002V199.7C95.5 201.1 96.6 202.2 98 202.2H372.5C373.9 202.2 375 201.1 375 199.7V3.90002C375 2.50002 373.9 1.40002 372.5 1.40002H98Z" fill="#40364A"/>
<path opacity="0.2" d="M362.2 114.1L259.1 173.3L308.7 269.1L416.6 202.9L362.2 114.1Z" fill="url(#paint8_linear)"/>
<path opacity="0.2" d="M358.4 126.4L271.5 176.2L313.3 256.9L404.2 201.1L358.4 126.4Z" fill="url(#paint9_linear)"/>
<path d="M103 114C100.1 121.2 97.6001 128.5 95.3001 135.9C93.0001 143.3 91.0001 150.8 89.3001 158.3C87.6001 165.8 86.3001 173.5 85.4001 181.1C84.6001 188.8 84.2001 196.5 84.8001 204.1C85.4001 211.7 86.8001 219.2 89.9001 226.1C92.9001 233 97.3001 239.2 103 244C108.6 248.8 115.5 252.2 122.6 254.2C129.8 256.3 137.4 257.1 144.9 257.2C160.1 257.4 175.3 254.7 190.1 251C205 247.2 219.6 242.3 233.9 236.7C248.2 231.1 262.3 224.8 276.2 218C283.1 214.6 290 211.1 296.8 207.5C303.6 203.9 346.5 180.1 353 176.3L358.1 184.9C351.2 188.8 308.2 212.3 301.2 215.9C294.2 219.4 287.2 222.8 280.1 226C265.9 232.5 251.5 238.5 236.8 243.9C222.1 249.2 207.1 253.9 191.8 257.4C184.1 259.1 176.4 260.5 168.6 261.5C160.8 262.4 152.9 262.9 144.9 262.6C137 262.3 129 261.2 121.3 258.8C113.6 256.4 106.3 252.6 100.2 247.2C94.1001 241.8 89.5001 234.9 86.5001 227.5C83.4001 220.1 82.2001 212.1 81.8001 204.2C81.5001 196.3 82.1001 188.5 83.2001 180.8C84.3001 173.1 85.9001 165.4 87.9001 157.9C89.8001 150.4 92.1001 142.9 94.7001 135.6C97.1001 128.3 99.9001 121 103 114Z" fill="url(#paint10_linear)"/>
<path d="M358.8 210.1C359 210 359.2 209.9 359.4 209.8C359.9 209.6 360.3 209.3 360.7 209.1C360.9 209 361.1 208.9 361.3 208.8C361.8 208.5 362.3 208.1 362.8 207.8C362.9 207.7 363 207.7 363.1 207.6C363.7 207.2 364.2 206.7 364.7 206.2C364.8 206.1 365 205.9 365.1 205.8C365.5 205.4 365.8 205 366.1 204.6C366.2 204.4 366.4 204.2 366.5 204C366.8 203.6 367.1 203.1 367.4 202.6C367.5 202.4 367.6 202.3 367.7 202.1C368.1 201.5 368.4 200.8 368.7 200.1C368.8 200 368.8 199.8 368.9 199.7C369.1 199.1 369.4 198.5 369.6 197.9C369.7 197.7 369.8 197.4 369.8 197.2C370 196.6 370.1 196.1 370.3 195.5C370.4 195.3 370.4 195 370.5 194.8C370.7 194 370.8 193.1 370.9 192.2C372.5 176.7 361.9 159.6 347.3 154.1C346.5 153.8 345.6 153.5 344.8 153.3C344.5 153.2 344.3 153.2 344 153.1C343.4 153 342.8 152.8 342.3 152.7C342 152.7 341.8 152.6 341.5 152.6C340.9 152.5 340.3 152.5 339.7 152.4C339.5 152.4 339.3 152.4 339.1 152.4C338.3 152.4 337.6 152.4 336.8 152.4C336.6 152.4 336.5 152.4 336.3 152.5C335.7 152.6 335.1 152.6 334.6 152.7C334.4 152.7 334.1 152.8 333.9 152.8C333.4 152.9 332.9 153 332.4 153.2C332.2 153.3 332 153.3 331.7 153.4C331.1 153.6 330.5 153.8 329.9 154.1C329.8 154.1 329.8 154.2 329.7 154.2C329.1 154.5 328.4 154.8 327.8 155.2C327.6 155.3 327.5 155.4 327.3 155.5C326.9 155.8 326.4 156.1 326 156.4C325.8 156.5 325.6 156.7 325.4 156.8C325 157.1 324.6 157.5 324.2 157.9C324.1 158 323.9 158.2 323.8 158.3C323.3 158.8 322.8 159.4 322.4 159.9C322.3 160 322.3 160.1 322.2 160.2C321.8 160.7 321.5 161.2 321.2 161.7C321.1 161.9 321 162.1 320.8 162.3C320.7 162.5 320.5 162.8 320.4 163C311.7 179.8 303 196.7 294.3 213.5C294.3 213.5 294.4 213.5 294.5 213.5C294.9 213.5 295.3 213.5 295.7 213.5H295.8C300.9 213.3 306.5 213.2 312.3 213C313.5 213 314.7 212.9 315.9 212.9C319 212.8 322.1 212.7 325.2 212.6C326.2 212.6 327.3 212.5 328.3 212.5C330.7 212.4 333.2 212.4 335.5 212.3C339.6 212.2 343.3 212.1 346 212C347.4 212 348.8 211.9 350.2 211.9C350.5 211.9 350.8 211.9 350.9 211.9C351 211.9 351.1 211.9 351.1 211.9C351.3 211.9 351.4 211.9 351.6 211.9C351.8 211.9 352.1 211.9 352.3 211.8C352.8 211.8 353.4 211.7 353.9 211.6C354.1 211.6 354.3 211.5 354.5 211.5C355.2 211.4 355.9 211.2 356.6 211C356.7 211 356.7 211 356.8 210.9C357.5 210.6 358.2 210.4 358.8 210.1Z" fill="url(#paint11_linear)"/>
<path d="M352.1 205.1C352.2 205 352.4 205 352.5 204.9C352.8 204.7 353.1 204.6 353.4 204.4C353.5 204.3 353.7 204.2 353.8 204.2C354.1 204 354.5 203.7 354.8 203.5C354.9 203.4 354.9 203.4 355 203.4C355.4 203.1 355.7 202.8 356.1 202.4C356.2 202.3 356.3 202.2 356.4 202.1C356.7 201.8 356.9 201.5 357.1 201.3C357.2 201.2 357.3 201 357.4 200.9C357.6 200.6 357.8 200.3 358 199.9C358.1 199.8 358.1 199.7 358.2 199.6C358.5 199.1 358.7 198.7 358.9 198.2C358.9 198.1 359 198 359 197.9C359.2 197.5 359.3 197.1 359.5 196.7C359.6 196.5 359.6 196.4 359.7 196.2C359.8 195.8 359.9 195.4 360 195C360 194.8 360.1 194.7 360.1 194.5C360.2 193.9 360.3 193.3 360.4 192.7C361.5 181.9 354.2 170 344 166.2C343.4 166 342.8 165.8 342.3 165.6C342.1 165.6 341.9 165.5 341.8 165.5C341.4 165.4 341 165.3 340.6 165.2C340.4 165.2 340.2 165.1 340 165.1C339.6 165 339.2 165 338.7 165C338.6 165 338.4 165 338.3 165C337.8 165 337.2 165 336.7 165C336.6 165 336.5 165 336.4 165C336 165 335.6 165.1 335.2 165.2C335 165.2 334.9 165.3 334.7 165.3C334.3 165.4 334 165.5 333.7 165.6C333.5 165.6 333.4 165.7 333.2 165.7C332.8 165.8 332.4 166 331.9 166.2C331.9 166.2 331.8 166.2 331.8 166.3C331.3 166.5 330.9 166.7 330.5 167C330.4 167.1 330.3 167.2 330.1 167.2C329.8 167.4 329.5 167.6 329.2 167.8C329.1 167.9 328.9 168 328.8 168.1C328.5 168.3 328.2 168.6 328 168.8C327.9 168.9 327.8 169 327.7 169.1C327.4 169.5 327 169.8 326.7 170.2C326.6 170.3 326.6 170.3 326.5 170.4C326.2 170.7 326 171.1 325.8 171.5C325.7 171.6 325.6 171.8 325.5 171.9C325.4 172.1 325.3 172.2 325.2 172.4C319.1 184.1 313.1 195.8 307 207.6C307 207.6 307 207.6 307.1 207.6C307.4 207.6 307.7 207.6 307.9 207.6H308C311.6 207.5 315.5 207.4 319.5 207.3C320.3 207.3 321.2 207.3 322 207.2C324.1 207.1 326.3 207.1 328.5 207C329.2 207 329.9 207 330.7 206.9C332.4 206.9 334.1 206.8 335.7 206.8C338.6 206.7 341.1 206.6 343 206.6C344 206.6 345 206.5 345.9 206.5C346.1 206.5 346.3 206.5 346.4 206.5C346.5 206.5 346.5 206.5 346.6 206.5C346.7 206.5 346.8 206.5 347 206.5C347.2 206.5 347.3 206.5 347.5 206.5C347.9 206.5 348.2 206.4 348.6 206.4C348.7 206.4 348.9 206.4 349 206.3C349.5 206.2 350 206.1 350.5 205.9H350.6C351.3 205.5 351.7 205.3 352.1 205.1Z" fill="url(#paint12_linear)"/>
<path d="M355.8 197.7C355.9 197.7 356 197.6 356.1 197.5C356.3 197.4 356.6 197.3 356.8 197.1C356.9 197 357 197 357.1 196.9C357.4 196.7 357.6 196.5 357.9 196.3C358 196.3 358 196.2 358.1 196.2C358.4 196 358.7 195.7 359 195.4C359.1 195.3 359.1 195.2 359.2 195.2C359.4 195 359.6 194.8 359.8 194.5C359.9 194.4 360 194.3 360 194.2C360.2 194 360.3 193.7 360.5 193.5C360.6 193.4 360.6 193.3 360.7 193.2C360.9 192.8 361.1 192.5 361.3 192.1C361.3 192 361.4 191.9 361.4 191.9C361.5 191.6 361.7 191.3 361.8 190.9C361.8 190.8 361.9 190.6 361.9 190.5C362 190.2 362.1 189.9 362.1 189.6C362.1 189.5 362.2 189.3 362.2 189.2C362.3 188.8 362.4 188.3 362.4 187.8C363.3 179.4 357.6 170.2 349.6 167.2C349.1 167 348.7 166.9 348.3 166.8C348.2 166.8 348 166.7 347.9 166.7C347.6 166.6 347.3 166.6 347 166.5C346.9 166.5 346.7 166.5 346.6 166.4C346.3 166.4 345.9 166.3 345.6 166.3C345.5 166.3 345.4 166.3 345.3 166.3C344.9 166.3 344.5 166.3 344.1 166.3C344 166.3 343.9 166.3 343.8 166.3C343.5 166.3 343.2 166.4 342.9 166.4C342.8 166.4 342.6 166.4 342.5 166.5C342.2 166.6 342 166.6 341.7 166.7C341.6 166.7 341.5 166.8 341.3 166.8C341 166.9 340.6 167 340.3 167.2H340.2C339.8 167.4 339.5 167.5 339.2 167.7C339.1 167.8 339 167.8 338.9 167.9C338.7 168.1 338.4 168.2 338.2 168.4C338.1 168.5 338 168.6 337.9 168.6C337.7 168.8 337.5 169 337.3 169.2C337.2 169.3 337.1 169.3 337.1 169.4C336.8 169.7 336.6 170 336.3 170.3C336.3 170.4 336.2 170.4 336.2 170.5C336 170.8 335.8 171 335.6 171.3C335.5 171.4 335.5 171.5 335.4 171.6C335.3 171.7 335.3 171.8 335.2 172C330.5 181.1 325.8 190.2 321.1 199.3C321.1 199.3 321.1 199.3 321.2 199.3C321.4 199.3 321.6 199.3 321.8 199.3C321.8 199.3 321.8 199.3 321.9 199.3C324.7 199.2 327.7 199.1 330.8 199C331.4 199 332.1 199 332.7 198.9C334.4 198.9 336 198.8 337.7 198.8C338.3 198.8 338.8 198.8 339.4 198.8C340.7 198.8 342 198.7 343.3 198.7C345.5 198.6 347.5 198.6 349 198.5C349.8 198.5 350.5 198.5 351.3 198.4C351.5 198.4 351.6 198.4 351.7 198.4H351.8C351.9 198.4 352 198.4 352.1 198.4C352.2 198.4 352.4 198.4 352.5 198.4C352.8 198.4 353.1 198.3 353.4 198.3C353.5 198.3 353.6 198.3 353.7 198.2C354.1 198.1 354.5 198 354.8 197.9H354.9C355.2 198 355.5 197.8 355.8 197.7Z" fill="url(#paint13_linear)"/>
<path d="M412.8 118L393.3 114.3C377.8 111.9 362.2 112.2 353.9 117.4L331.9 131.2L375.7 141.3L412.8 118Z" fill="#0180A9"/>
<path d="M437 157.5L430.7 176.3C425.2 191 417.3 204.4 408.6 209.1L385.7 221.5L398.5 178.4L437 157.5Z" fill="#0180A9"/>
<path d="M409.6 176.2C409.7 176.2 409.7 176.1 409.8 176.1C409.8 176.1 409.9 176.1 409.9 176C410.3 175.8 410.7 175.6 411.1 175.4C411.2 175.3 411.3 175.3 411.4 175.2C411.8 175 412.2 174.7 412.6 174.4C412.7 174.3 412.7 174.3 412.8 174.2C413.1 173.9 413.5 173.7 413.8 173.4C413.9 173.3 413.9 173.3 414 173.2C414.2 173 414.5 172.8 414.7 172.5L414.4 173.1C414.4 173.1 434.3 158.5 439.7 125.6V125.5V125.4C439.7 125.4 439.7 125.4 439.7 125.3C439.7 125.3 439.7 125.3 439.7 125.2C439.7 125.1 439.7 125 439.7 125C439.7 124.9 439.7 124.9 439.7 124.8L439.6 124.9V124.8C439.6 124.7 439.5 124.7 439.5 124.6L439.4 124.5L439.3 124.4L439.2 124.3C439.2 124.3 439.1 124.3 439.1 124.2C439.1 124.2 439.1 124.2 439 124.2H438.9H438.8C406.3 114.8 384.3 126.9 384.3 126.9C383.9 127.1 383.6 127.2 383.2 127.4C382.8 127.6 382.4 127.9 382 128.1C381.9 128.2 381.8 128.2 381.7 128.3C381.5 128.4 381.3 128.6 381.1 128.7C381 128.7 380.9 128.8 380.9 128.8C380.9 128.8 380.8 128.8 380.8 128.9C380.2 129.2 379.7 129.5 379.1 129.8C370.3 135.3 361.7 140.9 352.9 146.4C352.8 146.5 352.6 146.6 352.5 146.7C348.4 148.8 345.7 153.1 344.7 159.5C344.6 160 344.5 160.6 344.5 161.2C343.1 174.8 352.3 189.7 365.1 194.5C371.7 197 377.1 196.8 381 194.1C381.5 193.9 381.9 193.6 382.4 193.4C391.2 187.9 399.8 182.3 408.6 176.8C408.7 176.7 408.8 176.6 409 176.6C409.1 176.5 409.3 176.4 409.4 176.3C409.4 176.3 409.5 176.2 409.6 176.2Z" fill="#0180A9"/>
<path d="M465.3 108.3C465.3 108.2 465.3 108.1 465.4 108V108.1C465.4 108 465.4 108 465.4 107.9L465.3 108C465.3 107.9 465.3 107.9 465.2 107.9C465.2 107.8 465.1 107.7 465.1 107.7C465.1 107.6 465 107.6 465 107.6C465 107.5 464.9 107.5 464.8 107.5C464.7 107.5 464.7 107.4 464.6 107.4L464.5 107.3H464.4H464.3H464.2C452.1 103.9 441.7 102.6 433 102.4H432.9C432.1 102.4 431.4 102.4 430.7 102.4C430.3 102.4 430 102.4 429.6 102.4C429.5 102.4 429.5 102.4 429.4 102.4C409 102.7 397.9 109.3 397.9 109.3C397.4 109.5 397 109.7 396.5 110C396 110.3 395.4 110.6 394.9 110.9C394.8 111 394.7 111.1 394.5 111.1C394.2 111.3 394 111.5 393.7 111.6C393.6 111.6 393.5 111.7 393.4 111.7C393.3 111.7 393.3 111.8 393.2 111.8C392.4 112.2 391.7 112.6 391 113C391 113 391 113 390.9 113C379.5 120.2 368.2 127.5 356.7 134.7C356.5 134.8 356.4 134.9 356.2 135.1C350.9 137.8 347.3 143.4 346 151.7C345.9 152.4 345.8 153.1 345.7 153.9C343.9 171.6 355.9 191 372.6 197.3C381.2 200.5 388.2 200.2 393.4 196.8C394 196.5 394.6 196.2 395.2 195.8C406.6 188.6 417.9 181.3 429.4 174.1C429.6 174 429.7 173.9 429.9 173.8C430.1 173.7 430.3 173.6 430.4 173.4C430.5 173.3 430.6 173.2 430.7 173.1C430.8 173.1 430.9 173 431 173C431.1 173 431.1 172.9 431.2 172.9C431.7 172.7 432.2 172.4 432.7 172.1C432.8 172 432.9 172 433 171.9C433.4 171.7 433.7 171.4 434.1 171.2C436.9 169.6 439.4 167.4 441.7 165.1C444.3 162.5 446.9 160 448.6 156.7C454.5 147.6 460.7 133.4 464.4 112.6C464.6 111.4 464.8 110.2 465 109C465 109 465 108.9 465.1 108.9V108.8V108.7V108.6C465.4 108.5 465.3 108.4 465.3 108.3Z" fill="#0EC0F9"/>
<path d="M404.547 165.957C412.856 160.703 415.763 150.388 411.04 142.92C406.317 135.451 395.752 133.656 387.443 138.911C379.135 144.165 376.228 154.479 380.951 161.948C385.674 169.417 396.239 171.212 404.547 165.957Z" fill="#E9F5FF"/>
<path d="M409.035 161.752C416.55 156.999 419.101 147.546 414.732 140.637C410.363 133.729 400.729 131.981 393.213 136.734C385.698 141.487 383.147 150.94 387.516 157.848C391.885 164.757 401.519 166.504 409.035 161.752Z" fill="white"/>
<path d="M393.3 173.2C386.8 172.9 380.8 169.8 377.2 164.3C374.3 159.7 373.5 154.1 375.1 148.6C376.6 143.2 380.2 138.5 385.2 135.3C395.5 128.8 408.8 131.1 414.7 140.5C417.6 145.1 418.4 150.7 416.8 156.2C415.3 161.6 411.7 166.3 406.7 169.5C402.5 172.2 397.8 173.4 393.3 173.2ZM398.5 136.5C394.9 136.4 391.2 137.3 387.8 139.5C383.8 142 381 145.7 379.8 150C378.6 154.2 379.2 158.4 381.3 161.8C385.8 169 396.1 170.6 404.2 165.5C408.2 163 411 159.3 412.2 155C413.4 150.8 412.8 146.6 410.7 143.2C408 139 403.5 136.7 398.5 136.5Z" fill="#26212C"/>
<path opacity="0.5" d="M458.7 118.3C459.4 117.3 460.8 118.1 460.4 119.3C456.2 132.9 452.1 146 444.3 155.5L436.9 162.9L426.7 146C426.7 146 443.5 139 458.7 118.3Z" fill="url(#paint14_linear)"/>
<path fill-rule="evenodd" clip-rule="evenodd" d="M166.76 74.0004L157 93.5204V98.4394H168.64V102.48H173.64V98.4394H176.241V93.5204H173.64V88.2004H168.64V93.5204H162.68L172.44 74.0004H166.76Z" fill="white"/>
<path fill-rule="evenodd" clip-rule="evenodd" d="M180.199 102.48H186.159V96.5602H180.199V102.48Z" fill="white"/>
<path fill-rule="evenodd" clip-rule="evenodd" d="M208.639 92.8799C208.639 94.6139 208.465 96.0539 208.119 97.1999C207.773 98.3469 207.106 99.4139 206.119 100.4C204.573 101.947 202.479 102.72 199.839 102.72C197.119 102.72 194.999 101.96 193.479 100.44C192.119 99.0799 191.345 97.1069 191.16 94.5199H196.36C196.653 96.8669 197.813 98.0399 199.839 98.0399C200.879 98.0399 201.705 97.7339 202.32 97.1199C203.066 96.3739 203.439 94.9599 203.439 92.8799C203.439 89.4669 202.28 87.7599 199.959 87.7599C198.172 87.7599 197.026 88.5339 196.519 90.0799H191.759V73.9999H207.999V78.6799H196.479V84.7999C197.493 83.8399 198.919 83.3599 200.759 83.3599C203.026 83.3599 204.799 83.9999 206.079 85.2799C207.785 86.9869 208.639 89.5199 208.639 92.8799Z" fill="white"/>
<path fill-rule="evenodd" clip-rule="evenodd" d="M231.079 98.4399H228.478V102.48H223.478V98.4399H211.839V93.5199L221.599 73.9999H227.278L217.518 93.5199H223.478V88.1999H228.478V93.5199H231.079V98.4399Z" fill="white"/>
<path d="M261.7 83.7L258.1 80.1L251.6 86.7L245 80.1L241.4 83.7L248 90.3L241.4 96.8L245 100.4L251.6 93.9L258.1 100.4L261.7 96.8L255.2 90.3L261.7 83.7Z" fill="white"/>
<path d="M113.6 68.5H104.3C103.2 68.5 102.3 67.6 102.3 66.5V12.5C102.3 11.4 103.2 10.5 104.3 10.5H113.6C114.7 10.5 115.6 11.4 115.6 12.5V66.5C115.6 67.6 114.7 68.5 113.6 68.5Z" fill="#40364A"/>
<path d="M113.6 130.7H104.3C103.2 130.7 102.3 129.8 102.3 128.7V74.7C102.3 73.6 103.2 72.7 104.3 72.7H113.6C114.7 72.7 115.6 73.6 115.6 74.7V128.7C115.6 129.8 114.7 130.7 113.6 130.7Z" fill="#40364A"/>
<path d="M113.6 193H104.3C103.2 193 102.3 192.1 102.3 191V137C102.3 135.9 103.2 135 104.3 135H113.6C114.7 135 115.6 135.9 115.6 137V191C115.6 192.1 114.7 193 113.6 193Z" fill="#40364A"/>
<path d="M113.6 193H104.3C103.2 193 102.3 192.1 102.3 191V173.5H115.6V191C115.6 192.1 114.7 193 113.6 193Z" fill="url(#paint15_linear)"/>
<path opacity="0.2" d="M336.6 70.1C341.129 70.1 344.8 66.4287 344.8 61.9C344.8 57.3713 341.129 53.7 336.6 53.7C332.071 53.7 328.4 57.3713 328.4 61.9C328.4 66.4287 332.071 70.1 336.6 70.1Z" fill="url(#paint16_radial)"/>
<path opacity="0.2" d="M341.9 65.7C346.429 65.7 350.1 62.0288 350.1 57.5C350.1 52.9713 346.429 49.3 341.9 49.3C337.371 49.3 333.7 52.9713 333.7 57.5C333.7 62.0288 337.371 65.7 341.9 65.7Z" fill="url(#paint17_radial)"/>
<path opacity="0.2" d="M341.4 87.1C345.929 87.1 349.6 83.4288 349.6 78.9C349.6 74.3713 345.929 70.7 341.4 70.7C336.871 70.7 333.2 74.3713 333.2 78.9C333.2 83.4288 336.871 87.1 341.4 87.1Z" fill="url(#paint18_radial)"/>
<path opacity="0.2" d="M324.5 80C329.029 80 332.7 76.3288 332.7 71.8C332.7 67.2713 329.029 63.6 324.5 63.6C319.971 63.6 316.3 67.2713 316.3 71.8C316.3 76.3288 319.971 80 324.5 80Z" fill="url(#paint19_radial)"/>
<path opacity="0.2" d="M347.8 67.1C352.329 67.1 356 63.4287 356 58.9C356 54.3713 352.329 50.7 347.8 50.7C343.271 50.7 339.6 54.3713 339.6 58.9C339.6 63.4287 343.271 67.1 347.8 67.1Z" fill="url(#paint20_radial)"/>
<path opacity="0.2" d="M343 71.9C349.462 71.9 354.7 66.6617 354.7 60.2C354.7 53.7383 349.462 48.5 343 48.5C336.538 48.5 331.3 53.7383 331.3 60.2C331.3 66.6617 336.538 71.9 343 71.9Z" fill="url(#paint21_radial)"/>
<path d="M336.6 62.9C337.152 62.9 337.6 62.4523 337.6 61.9C337.6 61.3477 337.152 60.9 336.6 60.9C336.048 60.9 335.6 61.3477 335.6 61.9C335.6 62.4523 336.048 62.9 336.6 62.9Z" fill="white"/>
<path d="M324.5 72.8C325.052 72.8 325.5 72.3523 325.5 71.8C325.5 71.2478 325.052 70.8 324.5 70.8C323.948 70.8 323.5 71.2478 323.5 71.8C323.5 72.3523 323.948 72.8 324.5 72.8Z" fill="white"/>
<path d="M321.8 59.4C322.352 59.4 322.8 58.9523 322.8 58.4C322.8 57.8477 322.352 57.4 321.8 57.4C321.248 57.4 320.8 57.8477 320.8 58.4C320.8 58.9523 321.248 59.4 321.8 59.4Z" fill="white"/>
<path d="M341.4 79.9C341.952 79.9 342.4 79.4523 342.4 78.9C342.4 78.3477 341.952 77.9 341.4 77.9C340.848 77.9 340.4 78.3477 340.4 78.9C340.4 79.4523 340.848 79.9 341.4 79.9Z" fill="white"/>
<path d="M341.9 58.5C342.452 58.5 342.9 58.0523 342.9 57.5C342.9 56.9477 342.452 56.5 341.9 56.5C341.348 56.5 340.9 56.9477 340.9 57.5C340.9 58.0523 341.348 58.5 341.9 58.5Z" fill="white"/>
<path d="M347.8 59.9C348.352 59.9 348.8 59.4523 348.8 58.9C348.8 58.3477 348.352 57.9 347.8 57.9C347.248 57.9 346.8 58.3477 346.8 58.9C346.8 59.4523 347.248 59.9 347.8 59.9Z" fill="white"/>
<defs>
<radialGradient id="paint0_radial" cx="0" cy="0" r="1" gradientUnits="userSpaceOnUse" gradientTransform="translate(67.1358 94.5556) scale(8.241)">
<stop stop-color="white"/>
<stop offset="1" stop-color="#26212C" stop-opacity="0"/>
</radialGradient>
<radialGradient id="paint1_radial" cx="0" cy="0" r="1" gradientUnits="userSpaceOnUse" gradientTransform="translate(37.3916 106.719) scale(12.1638)">
<stop stop-color="white"/>
<stop offset="1" stop-color="#26212C" stop-opacity="0"/>
</radialGradient>
<radialGradient id="paint2_radial" cx="0" cy="0" r="1" gradientUnits="userSpaceOnUse" gradientTransform="translate(46.0636 80.1394) scale(12.1638)">
<stop stop-color="white"/>
<stop offset="1" stop-color="#26212C" stop-opacity="0"/>
</radialGradient>
<radialGradient id="paint3_radial" cx="0" cy="0" r="1" gradientUnits="userSpaceOnUse" gradientTransform="translate(447.69 53.1202) scale(12.164)">
<stop stop-color="white"/>
<stop offset="1" stop-color="#26212C" stop-opacity="0"/>
</radialGradient>
<radialGradient id="paint4_radial" cx="0" cy="0" r="1" gradientUnits="userSpaceOnUse" gradientTransform="translate(429.224 74.1137) scale(12.164)">
<stop stop-color="white"/>
<stop offset="1" stop-color="#26212C" stop-opacity="0"/>
</radialGradient>
<radialGradient id="paint5_radial" cx="0" cy="0" r="1" gradientUnits="userSpaceOnUse" gradientTransform="translate(415.559 52.546) scale(8.24114)">
<stop stop-color="white"/>
<stop offset="1" stop-color="#26212C" stop-opacity="0"/>
</radialGradient>
<linearGradient id="paint6_linear" x1="244.761" y1="192.241" x2="244.761" y2="41.8312" gradientUnits="userSpaceOnUse">
<stop stop-color="#40364A"/>
<stop offset="1" stop-color="#372E41"/>
</linearGradient>
<linearGradient id="paint7_linear" x1="156.008" y1="116.872" x2="344.008" y2="116.872" gradientUnits="userSpaceOnUse">
<stop stop-color="#57BEF8"/>
<stop offset="1" stop-color="#903FFF"/>
</linearGradient>
<linearGradient id="paint8_linear" x1="384.337" y1="155.995" x2="281.508" y2="229.554" gradientUnits="userSpaceOnUse">
<stop stop-color="white"/>
<stop offset="1" stop-color="#26212C" stop-opacity="0"/>
</linearGradient>
<linearGradient id="paint9_linear" x1="376.987" y1="161.671" x2="290.428" y2="223.59" gradientUnits="userSpaceOnUse">
<stop stop-color="white"/>
<stop offset="1" stop-color="#26212C" stop-opacity="0"/>
</linearGradient>
<linearGradient id="paint10_linear" x1="328.097" y1="207.332" x2="103.291" y2="117.897" gradientUnits="userSpaceOnUse">
<stop stop-color="#FF9303"/>
<stop offset="1" stop-color="#26212C"/>
</linearGradient>
<linearGradient id="paint11_linear" x1="359.694" y1="176.228" x2="298.118" y2="215.102" gradientUnits="userSpaceOnUse">
<stop stop-color="#FF9303"/>
<stop offset="1" stop-color="#FDC502" stop-opacity="0.1"/>
</linearGradient>
<linearGradient id="paint12_linear" x1="352.77" y1="181.555" x2="309.908" y2="208.615" gradientUnits="userSpaceOnUse">
<stop stop-color="#FF9303"/>
<stop offset="1" stop-color="#FDC502" stop-opacity="0.1"/>
</linearGradient>
<linearGradient id="paint13_linear" x1="356.331" y1="179.282" x2="323.017" y2="200.313" gradientUnits="userSpaceOnUse">
<stop stop-color="#FF9303"/>
<stop offset="1" stop-color="#FDC502"/>
</linearGradient>
<linearGradient id="paint14_linear" x1="455.633" y1="128.23" x2="430.787" y2="146.003" gradientUnits="userSpaceOnUse">
<stop stop-color="white"/>
<stop offset="1" stop-color="#0EC0F9" stop-opacity="0"/>
</linearGradient>
<linearGradient id="paint15_linear" x1="108.891" y1="192.677" x2="108.891" y2="173.214" gradientUnits="userSpaceOnUse">
<stop stop-color="#51BDFB"/>
<stop offset="1" stop-color="#7282FF"/>
</linearGradient>
<radialGradient id="paint16_radial" cx="0" cy="0" r="1" gradientUnits="userSpaceOnUse" gradientTransform="translate(336.558 61.9478) scale(8.24114)">
<stop stop-color="white"/>
<stop offset="1" stop-color="#26212C" stop-opacity="0"/>
</radialGradient>
<radialGradient id="paint17_radial" cx="0" cy="0" r="1" gradientUnits="userSpaceOnUse" gradientTransform="translate(341.897 57.5455) scale(8.24114)">
<stop stop-color="white"/>
<stop offset="1" stop-color="#26212C" stop-opacity="0"/>
</radialGradient>
<radialGradient id="paint18_radial" cx="0" cy="0" r="1" gradientUnits="userSpaceOnUse" gradientTransform="translate(341.356 78.9016) scale(8.24114)">
<stop stop-color="white"/>
<stop offset="1" stop-color="#26212C" stop-opacity="0"/>
</radialGradient>
<radialGradient id="paint19_radial" cx="0" cy="0" r="1" gradientUnits="userSpaceOnUse" gradientTransform="translate(324.444 71.8212) scale(8.24116)">
<stop stop-color="white"/>
<stop offset="1" stop-color="#26212C" stop-opacity="0"/>
</radialGradient>
<radialGradient id="paint20_radial" cx="0" cy="0" r="1" gradientUnits="userSpaceOnUse" gradientTransform="translate(347.733 58.9511) scale(8.24114)">
<stop stop-color="white"/>
<stop offset="1" stop-color="#26212C" stop-opacity="0"/>
</radialGradient>
<radialGradient id="paint21_radial" cx="0" cy="0" r="1" gradientUnits="userSpaceOnUse" gradientTransform="translate(342.977 60.231) scale(11.6604)">
<stop stop-color="white"/>
<stop offset="1" stop-color="#26212C" stop-opacity="0"/>
</radialGradient>
</defs>
</svg>
