<svg width="25" height="20" viewBox="0 0 25 20" fill="none" xmlns="http://www.w3.org/2000/svg">
<path d="M13.0406 15.0364C11.7423 14.5815 10.3973 14.5256 9.99985 13.3331V11.6665C10.3748 11.4807 11.4465 10.204 11.5598 9.20653C11.6265 8.9707 11.6782 8.12738 11.6782 7.93738C11.6782 6.89657 11.6623 4.74493 12.314 3.06079C12.0865 1.92914 11.4923 0.975819 10.2182 0.849988C9.87735 0.285829 9.00403 0 7.86822 0C3.32578 0.0783322 2.86162 3.22745 3.77328 6.8449C3.59661 6.94656 3.30495 7.26989 3.37828 7.84322C3.51495 8.91237 3.97827 9.1832 4.27327 9.2057C4.38577 10.204 5.45825 11.4807 5.83325 11.6665V13.3331C4.99993 15.8331 0 13.3331 0 19.9997H9.99985C9.99985 17.0431 11.6582 15.7689 13.0406 15.0364Z" fill="#84778F"/>
<path d="M11.6641 20.0004C11.6641 15.8338 15.8307 16.6671 16.664 14.4113V13.3488C13.6465 13.3488 12.809 12.1063 12.809 12.1063C14.3857 10.7947 11.4041 1.66731 16.7723 1.66731C16.7723 1.66731 17.4973 0.833984 18.434 0.833984C24.9972 0.833984 22.0356 10.7447 23.7331 12.138C23.7331 12.138 23.0297 13.338 19.9973 13.338V14.4113C20.8306 16.6671 24.9972 15.8338 24.9972 20.0004H11.6641Z" fill="#84778F"/>
</svg>
