<svg width="85" height="20" viewBox="0 0 85 20" fill="none" xmlns="http://www.w3.org/2000/svg">
<path d="M44.3083 12.7781H40.3135V11.678H44.3083V12.7781ZM44.3083 14.735H40.3135V13.6348H44.3083V14.735Z" fill="white"/>
<path fill-rule="evenodd" clip-rule="evenodd" d="M80.0912 17.8732C80.0912 18.1874 79.8368 18.4417 79.5238 18.4417C79.2094 18.4417 78.9549 18.1874 78.9549 17.8732V14.2769C78.9549 13.964 79.2094 13.7097 79.5238 13.7097C79.8368 13.7097 80.0912 13.964 80.0912 14.2769V17.8732ZM77.9306 18.2699C77.9306 18.5828 77.6761 18.8371 77.3631 18.8371C77.0487 18.8371 76.7943 18.5828 76.7943 18.2699V14.6737C76.7943 14.3594 77.0487 14.1051 77.3631 14.1051C77.6761 14.1051 77.9306 14.3594 77.9306 14.6737V18.2699ZM75.7699 18.5549C75.7699 18.8678 75.5155 19.1221 75.2024 19.1221C74.8881 19.1221 74.6336 18.8678 74.6336 18.5549V14.9586C74.6336 14.6444 74.8881 14.3901 75.2024 14.3901C75.5155 14.3901 75.7699 14.6444 75.7699 14.9586V18.5549ZM80.8399 14.9253V12.7976C80.7932 12.8083 80.7413 12.8189 80.6946 12.8282C80.5721 12.8549 80.4469 12.8802 80.3203 12.9055C80.2324 12.9241 80.1432 12.9414 80.0526 12.9587C79.9061 12.9867 79.7555 13.0146 79.6023 13.0413C79.5264 13.0546 79.4532 13.0692 79.3759 13.0825C79.1521 13.1212 78.9216 13.1584 78.6859 13.1957C78.6033 13.2077 78.518 13.2197 78.4354 13.233C78.2689 13.257 78.1024 13.2823 77.9306 13.3062C77.8293 13.3196 77.7254 13.3342 77.6215 13.3475C77.4603 13.3688 77.2978 13.3901 77.134 13.4101C77.0261 13.4234 76.9195 13.4367 76.8116 13.45C76.6318 13.4713 76.4493 13.4913 76.2655 13.5113C76.1695 13.5219 76.0763 13.5326 75.9804 13.5432C75.7033 13.5725 75.4209 13.6005 75.1345 13.6271C75.0812 13.6324 75.0253 13.6364 74.972 13.6418C74.7322 13.6631 74.4898 13.6844 74.2433 13.7043C74.21 13.707 74.1781 13.711 74.1448 13.7137V19.7066C76.777 19.4962 79.0682 19.1807 80.8399 18.7919V14.9253Z" fill="#E3662C"/>
<path fill-rule="evenodd" clip-rule="evenodd" d="M58.4846 18.6441C58.4846 18.957 58.2302 19.2113 57.9171 19.2113C57.6028 19.2113 57.3497 18.957 57.3497 18.6441V15.0478C57.3497 14.7336 57.6028 14.4793 57.9171 14.4793C58.2302 14.4793 58.4846 14.7336 58.4846 15.0478V18.6441ZM56.324 18.3352C56.324 18.6494 56.0695 18.9037 55.7565 18.9037C55.4421 18.9037 55.189 18.6494 55.189 18.3352V14.7389C55.189 14.426 55.4421 14.1717 55.7565 14.1717C56.0695 14.1717 56.324 14.426 56.324 14.7389V18.3352ZM54.1633 18.0276C54.1633 18.3418 53.9089 18.5948 53.5958 18.5948C53.2815 18.5948 53.0284 18.3418 53.0284 18.0276V14.4313C53.0284 14.1171 53.2815 13.8641 53.5958 13.8641C53.9089 13.8641 54.1633 14.1171 54.1633 14.4313V18.0276ZM58.7097 14.0106V13.7137C58.6764 13.711 58.6431 13.707 58.6098 13.7043C58.3634 13.6844 58.121 13.6631 57.8812 13.6418C57.8279 13.6364 57.772 13.6324 57.7187 13.6271C57.4323 13.6005 57.1512 13.5725 56.8728 13.5432C56.7769 13.5326 56.6836 13.5219 56.589 13.5113C56.4052 13.4913 56.2214 13.4713 56.0416 13.45C55.9337 13.4367 55.8271 13.4234 55.7205 13.4101C55.5554 13.3901 55.3928 13.3688 55.2316 13.3475C55.1291 13.3342 55.0252 13.3196 54.9226 13.3062C54.7521 13.2823 54.5843 13.257 54.4177 13.2317C54.3352 13.2197 54.2499 13.2077 54.1686 13.1957C53.9329 13.1584 53.7024 13.1212 53.4773 13.0825C53.4 13.0692 53.3268 13.0546 53.2522 13.0413C53.099 13.0146 52.9484 12.9867 52.8006 12.9587C52.71 12.9414 52.6221 12.9241 52.5328 12.9055C52.4063 12.8802 52.2811 12.8549 52.1585 12.8282C52.1119 12.8176 52.0613 12.8083 52.0146 12.7976V18.7919C53.785 19.1807 56.0762 19.4962 58.7097 19.7066V14.0106Z" fill="#F1A85F"/>
<path fill-rule="evenodd" clip-rule="evenodd" d="M73.6099 18.799C73.6099 19.1119 73.3554 19.3662 73.0424 19.3662C72.728 19.3662 72.4736 19.1119 72.4736 18.799V15.2014C72.4736 14.8885 72.728 14.6342 73.0424 14.6342C73.3554 14.6342 73.6099 14.8885 73.6099 15.2014V18.799ZM71.4492 19.0213C71.4492 19.3356 71.1948 19.5885 70.8817 19.5885C70.5674 19.5885 70.3129 19.3356 70.3129 19.0213V15.425C70.3129 15.1108 70.5674 14.8578 70.8817 14.8578C71.1948 14.8578 71.4492 15.1108 71.4492 15.425V19.0213ZM69.2886 19.0213C69.2886 19.3356 69.0341 19.5885 68.7211 19.5885C68.4067 19.5885 68.1523 19.3356 68.1523 19.0213V15.425C68.1523 15.1108 68.4067 14.8578 68.7211 14.8578C69.0341 14.8578 69.2886 15.1108 69.2886 15.425V19.0213ZM67.1279 19.1505C67.1279 19.4647 66.8735 19.719 66.5604 19.719C66.2461 19.719 65.9916 19.4647 65.9916 19.1505V15.5542C65.9916 15.2413 66.2461 14.987 66.5604 14.987C66.8735 14.987 67.1279 15.2413 67.1279 15.5542V19.1505ZM64.9673 19.0213C64.9673 19.3356 64.7128 19.5885 64.3998 19.5885C64.0854 19.5885 63.8323 19.3356 63.8323 19.0213V15.425C63.8323 15.1108 64.0854 14.8578 64.3998 14.8578C64.7128 14.8578 64.9673 15.1108 64.9673 15.425V19.0213ZM62.8066 19.0213C62.8066 19.3356 62.5522 19.5885 62.2392 19.5885C61.9248 19.5885 61.6717 19.3356 61.6717 19.0213V15.425C61.6717 15.1108 61.9248 14.8578 62.2392 14.8578C62.5522 14.8578 62.8066 15.1108 62.8066 15.425V19.0213ZM60.646 18.799C60.646 19.1119 60.3915 19.3662 60.0785 19.3662C59.7641 19.3662 59.5097 19.1119 59.5097 18.799V15.2014C59.5097 14.8885 59.7641 14.6342 60.0785 14.6342C60.3915 14.6342 60.646 14.8885 60.646 15.2014V18.799ZM74.1454 14.011V13.7141C74.0774 13.7194 74.0081 13.7234 73.9402 13.7288C73.7124 13.7461 73.4806 13.7634 73.2475 13.7794C73.1316 13.7873 73.0157 13.7953 72.8999 13.8033C72.6441 13.8193 72.387 13.8353 72.1272 13.8499C72.058 13.8539 71.9914 13.8579 71.9221 13.8619C71.9088 13.8632 71.8941 13.8632 71.8795 13.8646C71.5145 13.8832 71.1428 13.9005 70.7672 13.9165C70.6486 13.9218 70.5287 13.9258 70.4075 13.9311C70.0718 13.9431 69.7335 13.9551 69.3911 13.9644C69.3205 13.9671 69.2513 13.9684 69.1807 13.9711C68.8063 13.9804 68.4254 13.9871 68.0444 13.9937C67.9112 13.995 67.7793 13.9964 67.6461 13.999C67.2904 14.003 66.9334 14.0057 66.5738 14.0057C66.5245 14.0057 66.4765 14.007 66.4272 14.007C66.3779 14.007 66.33 14.0057 66.282 14.0057C65.921 14.0057 65.564 14.003 65.2097 13.999C65.0765 13.9964 64.9433 13.995 64.8114 13.9937C64.4291 13.9871 64.0495 13.9804 63.6738 13.9711C63.6032 13.9684 63.5339 13.9671 63.4633 13.9644C63.121 13.9551 62.7826 13.9431 62.4469 13.9311C62.3257 13.9258 62.2058 13.9218 62.0873 13.9165C61.7116 13.9005 61.34 13.8832 60.975 13.8646C60.9617 13.8632 60.947 13.8632 60.9324 13.8619C60.8631 13.8579 60.7965 13.8539 60.7286 13.8499C60.4675 13.8353 60.2104 13.8193 59.9559 13.8033C59.8387 13.7953 59.7228 13.7873 59.6083 13.7794C59.3738 13.7634 59.142 13.7461 58.9143 13.7288C58.8463 13.7234 58.7771 13.7194 58.7104 13.7141V19.7071C61.0549 19.8948 63.6698 20 66.4272 20C69.1847 20 71.7995 19.8948 74.1454 19.7071V14.011Z" fill="#EA892D"/>
<path fill-rule="evenodd" clip-rule="evenodd" d="M84.2851 16.9291C84.2851 17.2433 84.0307 17.4963 83.7176 17.4963C83.4033 17.4963 83.1488 17.2433 83.1488 16.9291V13.3328C83.1488 13.0186 83.4033 12.7656 83.7176 12.7656C84.0307 12.7656 84.2851 13.0186 84.2851 13.3328V16.9291ZM82.2523 17.5216C82.2523 17.8345 81.9979 18.0888 81.6835 18.0888C81.3705 18.0888 81.1161 17.8345 81.1161 17.5216V13.924C81.1161 13.6111 81.3705 13.3568 81.6835 13.3568C81.9979 13.3568 82.2523 13.6111 82.2523 13.924V17.5216ZM84.714 10.8643C84.714 10.9149 84.706 10.9655 84.6914 11.0147C84.6874 11.0307 84.6807 11.0454 84.6754 11.06C84.6621 11.0959 84.6474 11.1306 84.6288 11.1652C84.6195 11.1825 84.6075 11.1998 84.5968 11.2171C84.5755 11.2491 84.5515 11.2823 84.5249 11.3143C84.5102 11.3316 84.4956 11.3489 84.4796 11.3649C84.4476 11.3995 84.413 11.4328 84.3757 11.4661C84.3584 11.4807 84.3437 11.4954 84.3251 11.51C84.2731 11.5526 84.2158 11.5952 84.1546 11.6378L84.1359 11.6512C84.064 11.6991 83.9854 11.7457 83.9015 11.7923C83.8841 11.803 83.8642 11.8123 83.8455 11.8216C83.7776 11.8589 83.7083 11.8935 83.6337 11.9294C83.6044 11.9441 83.5724 11.9574 83.5431 11.9707C83.4739 12.0027 83.4019 12.0346 83.3273 12.0652C83.2927 12.0799 83.2581 12.0932 83.2221 12.1079C83.1435 12.1385 83.0609 12.1704 82.977 12.2011C82.9424 12.213 82.9104 12.2264 82.8744 12.2383C82.7705 12.2756 82.6626 12.3116 82.5507 12.3475C82.5321 12.3528 82.5161 12.3582 82.4974 12.3648C82.3602 12.4074 82.219 12.4501 82.0712 12.4913L82.0352 12.502C81.9033 12.5393 81.7661 12.5752 81.6263 12.6111C81.5863 12.6218 81.5463 12.6311 81.5064 12.6418C81.3878 12.6711 81.2693 12.699 81.1454 12.7283C81.0987 12.739 81.0508 12.7496 81.0028 12.7603C80.9482 12.7736 80.8949 12.7856 80.8403 12.7976V18.7918C83.2674 18.2592 84.714 17.5882 84.714 16.8585V10.8643Z" fill="#EA892D"/>
<path fill-rule="evenodd" clip-rule="evenodd" d="M48.1393 10.8651C48.1393 10.9157 48.1487 10.9663 48.162 11.0155C48.166 11.0315 48.174 11.0462 48.1793 11.0608C48.1913 11.0967 48.2059 11.1314 48.2246 11.166C48.2352 11.1833 48.2459 11.2006 48.2579 11.2179C48.2792 11.2499 48.3018 11.2831 48.3298 11.3151C48.3431 11.3324 48.3578 11.3497 48.3738 11.3657C48.4057 11.4003 48.4404 11.4336 48.479 11.4669C48.495 11.4815 48.5096 11.4962 48.5283 11.5108C48.5802 11.5534 48.6375 11.596 48.6988 11.6387L48.7188 11.652C48.7894 11.6999 48.868 11.7465 48.9519 11.7931C48.9706 11.8038 48.9905 11.8131 49.0092 11.8224C49.0758 11.8597 49.1464 11.8943 49.2197 11.9302C49.249 11.9449 49.2809 11.9582 49.3116 11.9729C49.3795 12.0035 49.4514 12.0341 49.526 12.066C49.5607 12.0794 49.5953 12.094 49.6313 12.1087C49.7099 12.1393 49.7924 12.1712 49.8764 12.2019C49.911 12.2138 49.9443 12.2272 49.9789 12.2391C50.0828 12.2764 50.1907 12.3124 50.3026 12.347C50.3213 12.3536 50.3386 12.359 50.3573 12.3656C50.4931 12.4082 50.6343 12.4509 50.7822 12.4921C50.7942 12.4961 50.8075 12.4988 50.8195 12.5028C50.9514 12.5401 51.0872 12.576 51.2271 12.6119C51.2671 12.6226 51.3084 12.6319 51.3483 12.6426C51.4656 12.6719 51.5854 12.6998 51.708 12.7291C51.7546 12.7398 51.8026 12.7504 51.8505 12.7611C51.9518 12.785 52.0543 12.8063 52.1582 12.829C52.2808 12.8556 52.406 12.8809 52.5326 12.9062C52.6218 12.9249 52.7097 12.9422 52.8003 12.9595C52.9482 12.9874 53.0987 13.0154 53.2519 13.042C53.3265 13.0553 53.3997 13.07 53.477 13.0833C53.7021 13.1219 53.9326 13.1592 54.1684 13.1965C54.2496 13.2084 54.3349 13.2204 54.4175 13.2324C54.584 13.2577 54.7518 13.283 54.9223 13.307C55.0249 13.3203 55.1288 13.3349 55.2314 13.3483C55.3925 13.3696 55.5551 13.3909 55.7202 13.4108C55.8268 13.4241 55.9334 13.4375 56.0413 13.4508C56.2211 13.4721 56.4049 13.4921 56.5888 13.512C56.6833 13.5227 56.7766 13.5333 56.8725 13.544C57.1509 13.5733 57.432 13.6012 57.7184 13.6279C57.7717 13.6332 57.8276 13.6372 57.8809 13.6425C58.1207 13.6638 58.3631 13.6851 58.6095 13.7051C58.7095 13.7131 58.812 13.7211 58.9133 13.7291C59.141 13.7464 59.3728 13.7637 59.6073 13.7797C59.7218 13.7876 59.8377 13.7956 59.955 13.8036C60.2094 13.8196 60.4665 13.8356 60.7276 13.8502C60.8102 13.8542 60.8914 13.8595 60.974 13.8649C61.339 13.8835 61.7106 13.9008 62.0863 13.9168C62.2049 13.9221 62.3261 13.9261 62.446 13.9314C62.7816 13.9434 63.12 13.9554 63.4623 13.9647C63.5329 13.9674 63.6022 13.9687 63.6728 13.9714C64.0485 13.9807 64.4281 13.9874 64.8104 13.994C64.9423 13.9953 65.0755 13.9967 65.2087 13.9993C65.563 14.0033 65.92 14.006 66.281 14.006C66.329 14.006 66.3769 14.006 66.4262 14.006C66.4755 14.006 66.5235 14.006 66.5728 14.006C66.9324 14.006 67.2894 14.0033 67.6451 13.9993C67.7783 13.9967 67.9102 13.9953 68.0434 13.994C68.4244 13.9874 68.8053 13.9807 69.1797 13.9714C69.2503 13.9687 69.3195 13.9674 69.3901 13.9647C69.7325 13.9554 70.0708 13.9434 70.4065 13.9314C70.5277 13.9261 70.6476 13.9221 70.7662 13.9168C71.1418 13.9008 71.5135 13.8835 71.8785 13.8649C71.9624 13.8595 72.0437 13.8542 72.1262 13.8502C72.386 13.8356 72.6431 13.8196 72.8989 13.8036C73.0148 13.7956 73.1306 13.7876 73.2465 13.7797C73.4796 13.7637 73.7114 13.7464 73.9392 13.7291C74.0405 13.7211 74.143 13.7131 74.2429 13.7051C74.4894 13.6851 74.7318 13.6638 74.9716 13.6425C75.0249 13.6372 75.0808 13.6332 75.1341 13.6279C75.4205 13.6012 75.7029 13.5733 75.98 13.544C76.0759 13.5333 76.1691 13.5227 76.265 13.512C76.4489 13.4921 76.6314 13.4721 76.8112 13.4508C76.9191 13.4375 77.0257 13.4241 77.1336 13.4108C77.2974 13.3909 77.4599 13.3696 77.6211 13.3483C77.725 13.3349 77.8289 13.3203 77.9301 13.307C78.102 13.283 78.2685 13.2577 78.435 13.2338C78.5176 13.2204 78.6029 13.2084 78.6854 13.1965C78.9212 13.1592 79.1517 13.1219 79.3755 13.0833C79.4527 13.07 79.526 13.0553 79.6019 13.042C79.7551 13.0154 79.9056 12.9874 80.0522 12.9595C80.1427 12.9422 80.232 12.9249 80.3199 12.9062C80.4465 12.8809 80.5717 12.8556 80.6942 12.829C80.7981 12.8063 80.902 12.7837 81.0019 12.7611C81.0499 12.7504 81.0979 12.7398 81.1445 12.7291C81.2684 12.6998 81.3869 12.6719 81.5055 12.6426C81.5454 12.6319 81.5854 12.6226 81.6254 12.6119C81.7652 12.576 81.9024 12.5401 82.0343 12.5028L82.0703 12.4921C82.2181 12.4509 82.3593 12.4082 82.4965 12.3656C82.5152 12.359 82.5312 12.3536 82.5498 12.3483C82.6617 12.3124 82.7696 12.2764 82.8735 12.2391C82.9095 12.2272 82.9415 12.2138 82.9761 12.2019C83.06 12.1712 83.1426 12.1393 83.2212 12.1087C83.2572 12.094 83.2918 12.0807 83.3264 12.066C83.401 12.0354 83.473 12.0035 83.5422 11.9715C83.5715 11.9582 83.6035 11.9449 83.6328 11.9302C83.7074 11.8943 83.7767 11.8597 83.8446 11.8224C83.8633 11.8131 83.8833 11.8038 83.9006 11.7931C83.9845 11.7465 84.0631 11.6999 84.135 11.652L84.1537 11.6387C84.2149 11.596 84.2722 11.5534 84.3242 11.5108C84.3428 11.4962 84.3575 11.4815 84.3748 11.4669C84.4121 11.4336 84.4467 11.4003 84.4787 11.3657C84.4947 11.3497 84.5093 11.3324 84.524 11.3151C84.5506 11.2831 84.5746 11.2499 84.5959 11.2179C84.6066 11.2006 84.6186 11.1833 84.6279 11.166C84.6465 11.1314 84.6612 11.0967 84.6745 11.0608C84.6798 11.0462 84.6865 11.0315 84.6905 11.0155C84.7051 10.9663 84.7131 10.9157 84.7131 10.8651L84.7678 10.8584L84.7131 10.8624C84.7025 9.12883 76.5195 7.72412 66.4262 7.72412C56.333 7.72412 48.15 9.12883 48.1407 10.8624L48.0847 10.8584L48.138 10.8651H48.0847H48.1393Z" fill="#9F390A"/>
<path fill-rule="evenodd" clip-rule="evenodd" d="M51.8772 17.5456C51.8772 17.8585 51.6228 18.1128 51.3084 18.1128C50.9954 18.1128 50.741 17.8585 50.741 17.5456V13.9493C50.741 13.6351 50.9954 13.3807 51.3084 13.3807C51.6228 13.3807 51.8772 13.6351 51.8772 13.9493V17.5456ZM49.8418 16.9291C49.8418 17.2433 49.5874 17.4963 49.2743 17.4963C48.9613 17.4963 48.7069 17.2433 48.7069 16.9291V13.3328C48.7069 13.0186 48.9613 12.7656 49.2743 12.7656C49.5874 12.7656 49.8418 13.0186 49.8418 13.3328V16.9291ZM52.0145 14.9252V12.7976C51.9585 12.7856 51.9052 12.7736 51.8506 12.7603C51.8026 12.7496 51.7547 12.739 51.7081 12.7283C51.5855 12.699 51.4656 12.6711 51.3484 12.6418C51.3084 12.6311 51.2671 12.6218 51.2272 12.6111C51.0873 12.5752 50.9514 12.5393 50.8196 12.502C50.8076 12.498 50.7943 12.4953 50.7823 12.4913C50.6344 12.4501 50.4932 12.4074 50.3573 12.3648C50.3387 12.3582 50.3214 12.3528 50.3027 12.3462C50.1908 12.3116 50.0829 12.2756 49.979 12.2383C49.9444 12.2264 49.9111 12.213 49.8764 12.2011C49.7925 12.1704 49.7099 12.1385 49.6313 12.1079C49.5954 12.0932 49.5607 12.0786 49.5261 12.0652C49.4515 12.0333 49.3796 12.0027 49.3116 11.9721C49.281 11.9574 49.249 11.9441 49.2197 11.9294C49.1465 11.8935 49.0759 11.8589 49.0093 11.8216C48.9906 11.8123 48.9706 11.803 48.952 11.7923C48.8681 11.7457 48.7895 11.6991 48.7189 11.6512L48.6989 11.6378C48.6376 11.5952 48.5803 11.5526 48.5284 11.51C48.5097 11.4954 48.4951 11.4807 48.4791 11.4661C48.4405 11.4328 48.4058 11.3995 48.3739 11.3649C48.3579 11.3489 48.3432 11.3316 48.3299 11.3143C48.3019 11.2823 48.2793 11.2491 48.258 11.2171C48.246 11.1998 48.2353 11.1825 48.2247 11.1652C48.206 11.1306 48.1914 11.0959 48.1794 11.06C48.174 11.0454 48.166 11.0307 48.162 11.0147C48.1487 10.9655 48.1394 10.9149 48.1394 10.8643V16.8585C48.1394 17.5882 49.5874 18.2592 52.0145 18.7918V14.9252Z" fill="#EA892D"/>
<path fill-rule="evenodd" clip-rule="evenodd" d="M57.9173 14.4795C57.603 14.4795 57.3499 14.7338 57.3499 15.048V18.6443C57.3499 18.9572 57.603 19.2115 57.9173 19.2115C58.2304 19.2115 58.4848 18.9572 58.4848 18.6443V15.048C58.4848 14.7338 58.2304 14.4795 57.9173 14.4795Z" fill="#F6BD63"/>
<path fill-rule="evenodd" clip-rule="evenodd" d="M60.0781 14.6338C59.7637 14.6338 59.5093 14.8881 59.5093 15.201V18.7986C59.5093 19.1115 59.7637 19.3658 60.0781 19.3658C60.3911 19.3658 60.6456 19.1115 60.6456 18.7986V15.201C60.6456 14.8881 60.3911 14.6338 60.0781 14.6338Z" fill="#F0AD2B"/>
<path fill-rule="evenodd" clip-rule="evenodd" d="M62.2381 14.8577C61.9238 14.8577 61.6707 15.1106 61.6707 15.4249V19.0212C61.6707 19.3354 61.9238 19.5884 62.2381 19.5884C62.5512 19.5884 62.8056 19.3354 62.8056 19.0212V15.4249C62.8056 15.1106 62.5512 14.8577 62.2381 14.8577Z" fill="#F0AD2B"/>
<path fill-rule="evenodd" clip-rule="evenodd" d="M64.3993 14.8577C64.0849 14.8577 63.8318 15.1106 63.8318 15.4249V19.0212C63.8318 19.3354 64.0849 19.5884 64.3993 19.5884C64.7123 19.5884 64.9667 19.3354 64.9667 19.0212V15.4249C64.9667 15.1106 64.7123 14.8577 64.3993 14.8577Z" fill="#F0AD2B"/>
<path fill-rule="evenodd" clip-rule="evenodd" d="M66.5595 14.9873C66.2452 14.9873 65.9907 15.2416 65.9907 15.5545V19.1508C65.9907 19.465 66.2452 19.7193 66.5595 19.7193C66.8726 19.7193 67.127 19.465 67.127 19.1508V15.5545C67.127 15.2416 66.8726 14.9873 66.5595 14.9873Z" fill="#F0AD2B"/>
<path fill-rule="evenodd" clip-rule="evenodd" d="M81.683 13.3569C81.3699 13.3569 81.1155 13.6112 81.1155 13.9241V17.5218C81.1155 17.8347 81.3699 18.089 81.683 18.089C81.9973 18.089 82.2518 17.8347 82.2518 17.5218V13.9241C82.2518 13.6112 81.9973 13.3569 81.683 13.3569Z" fill="#F0AD2B"/>
<path fill-rule="evenodd" clip-rule="evenodd" d="M79.5244 13.7102C79.21 13.7102 78.9556 13.9645 78.9556 14.2774V17.8737C78.9556 18.1879 79.21 18.4422 79.5244 18.4422C79.8374 18.4422 80.0918 18.1879 80.0918 17.8737V14.2774C80.0918 13.9645 79.8374 13.7102 79.5244 13.7102Z" fill="#EA892D"/>
<path fill-rule="evenodd" clip-rule="evenodd" d="M77.3635 14.1052C77.0491 14.1052 76.7947 14.3595 76.7947 14.6738V18.27C76.7947 18.5829 77.0491 18.8373 77.3635 18.8373C77.6765 18.8373 77.9309 18.5829 77.9309 18.27V14.6738C77.9309 14.3595 77.6765 14.1052 77.3635 14.1052Z" fill="#EA892D"/>
<path fill-rule="evenodd" clip-rule="evenodd" d="M75.2028 14.3899C74.8885 14.3899 74.634 14.6442 74.634 14.9584V18.5547C74.634 18.8676 74.8885 19.1219 75.2028 19.1219C75.5159 19.1219 75.7703 18.8676 75.7703 18.5547V14.9584C75.7703 14.6442 75.5159 14.3899 75.2028 14.3899Z" fill="#EA892D"/>
<path fill-rule="evenodd" clip-rule="evenodd" d="M73.0415 14.6338C72.7271 14.6338 72.4727 14.8881 72.4727 15.201V18.7986C72.4727 19.1115 72.7271 19.3658 73.0415 19.3658C73.3545 19.3658 73.6089 19.1115 73.6089 18.7986V15.201C73.6089 14.8881 73.3545 14.6338 73.0415 14.6338Z" fill="#F0AD2B"/>
<path fill-rule="evenodd" clip-rule="evenodd" d="M70.8815 14.8577C70.5672 14.8577 70.3127 15.1106 70.3127 15.4249V19.0212C70.3127 19.3354 70.5672 19.5884 70.8815 19.5884C71.1946 19.5884 71.449 19.3354 71.449 19.0212V15.4249C71.449 15.1106 71.1946 14.8577 70.8815 14.8577Z" fill="#F0AD2B"/>
<path fill-rule="evenodd" clip-rule="evenodd" d="M68.7204 14.8577C68.406 14.8577 68.1516 15.1106 68.1516 15.4249V19.0212C68.1516 19.3354 68.406 19.5884 68.7204 19.5884C69.0335 19.5884 69.2879 19.3354 69.2879 19.0212V15.4249C69.2879 15.1106 69.0335 14.8577 68.7204 14.8577Z" fill="#F0AD2B"/>
<path fill-rule="evenodd" clip-rule="evenodd" d="M83.7168 12.7659C83.4024 12.7659 83.1479 13.0188 83.1479 13.3331V16.9294C83.1479 17.2436 83.4024 17.4966 83.7168 17.4966C84.0298 17.4966 84.2842 17.2436 84.2842 16.9294V13.3331C84.2842 13.0188 84.0298 12.7659 83.7168 12.7659Z" fill="#F0AD2B"/>
<path fill-rule="evenodd" clip-rule="evenodd" d="M55.7569 14.1726C55.4425 14.1726 55.1895 14.4269 55.1895 14.7398V18.3361C55.1895 18.6503 55.4425 18.9046 55.7569 18.9046C56.07 18.9046 56.3244 18.6503 56.3244 18.3361V14.7398C56.3244 14.4269 56.07 14.1726 55.7569 14.1726Z" fill="#F6BD63"/>
<path fill-rule="evenodd" clip-rule="evenodd" d="M53.5965 13.864C53.2822 13.864 53.0291 14.117 53.0291 14.4312V18.0275C53.0291 18.3418 53.2822 18.5947 53.5965 18.5947C53.9096 18.5947 54.164 18.3418 54.164 18.0275V14.4312C54.164 14.117 53.9096 13.864 53.5965 13.864Z" fill="#F6BD63"/>
<path fill-rule="evenodd" clip-rule="evenodd" d="M51.3094 13.3809C50.9964 13.3809 50.7419 13.6352 50.7419 13.9494V17.5457C50.7419 17.8586 50.9964 18.1129 51.3094 18.1129C51.6238 18.1129 51.8782 17.8586 51.8782 17.5457V13.9494C51.8782 13.6352 51.6238 13.3809 51.3094 13.3809Z" fill="#F0AD2B"/>
<path fill-rule="evenodd" clip-rule="evenodd" d="M49.275 12.7659C48.962 12.7659 48.7075 13.0188 48.7075 13.3331V16.9294C48.7075 17.2436 48.962 17.4966 49.275 17.4966C49.588 17.4966 49.8425 17.2436 49.8425 16.9294V13.3331C49.8425 13.0188 49.588 12.7659 49.275 12.7659Z" fill="#F0AD2B"/>
<path fill-rule="evenodd" clip-rule="evenodd" d="M64.1192 10.4542L64.1072 10.5181L65.8003 10.5368C65.8203 10.5368 65.8416 10.5368 65.8616 10.5381H65.8975C65.9108 10.5381 65.9162 10.5381 65.9215 10.5381C66.2186 10.5408 66.4916 10.5381 66.7394 10.5314H66.774C67.0631 10.5221 67.3122 10.5061 67.5187 10.4808C67.7252 10.4542 67.885 10.4183 67.9996 10.3703C68.1128 10.3224 68.1754 10.2611 68.1887 10.1866L68.19 10.1746C68.1914 10.1626 68.19 10.1506 68.1887 10.1387C68.1834 10.0881 68.1514 10.0428 68.0941 10.0042C68.0182 9.95491 67.897 9.91496 67.7291 9.88434C67.56 9.85238 67.3442 9.82976 67.0804 9.81378C66.8167 9.7978 66.5023 9.78847 66.136 9.78448L64.2338 9.76318L64.1192 10.4542ZM68.3526 11.4009L68.3539 11.3942C68.3552 11.3809 68.3539 11.3663 68.3512 11.3543C68.3432 11.3157 68.3193 11.281 68.2766 11.2491C68.2167 11.2038 68.1075 11.1639 67.9489 11.1319C67.7918 11.0986 67.5786 11.0733 67.3122 11.0534C67.0458 11.0334 66.7074 11.0214 66.2972 11.0174L64.0286 10.9921L63.9021 11.7524L66.1906 11.7777C66.2132 11.7777 66.2359 11.779 66.2585 11.779C66.6395 11.7817 66.9512 11.7737 67.203 11.7577C67.219 11.7564 67.2336 11.7551 67.2483 11.7537C67.5253 11.7338 67.7438 11.7045 67.9037 11.6685C68.0635 11.6326 68.1767 11.5913 68.242 11.5447C68.3073 11.4981 68.3446 11.4501 68.3526 11.4009ZM71.5616 11.4022C71.5616 11.4169 71.5629 11.4302 71.5616 11.4448C71.5389 11.5806 71.403 11.7005 71.1539 11.8097C70.9048 11.9188 70.5505 12.012 70.0923 12.0906C69.6327 12.1691 69.0719 12.2277 68.4112 12.2677C67.9036 12.2983 67.3442 12.3143 66.7341 12.3156L66.6675 12.7124L65.1236 12.6951L65.1889 12.3023L63.926 12.289L63.8608 12.6818L62.3155 12.6644L62.3262 12.6005L62.3808 12.2717L60.5652 12.2517L60.5745 12.1878L61.0727 9.19731L62.8897 9.21727L62.939 8.91504L64.4802 8.93233L64.4442 9.17067L64.4336 9.23458L65.6964 9.24922L65.747 8.94699L67.2869 8.96297L67.2509 9.20929L67.2389 9.2732C67.7798 9.28917 68.262 9.31048 68.6856 9.33977C69.3583 9.38637 69.9031 9.44762 70.3214 9.52351C70.7383 9.59941 71.0367 9.68995 71.2152 9.79381C71.3737 9.88701 71.4497 9.98819 71.4497 10.0987C71.4497 10.1107 71.4537 10.124 71.4523 10.136C71.4403 10.2079 71.3844 10.2731 71.2845 10.3357C71.1833 10.3983 71.0327 10.4569 70.8316 10.5101C70.6291 10.5634 70.3747 10.6113 70.0656 10.6539C69.8658 10.6819 69.6367 10.7059 69.3863 10.7272C69.2504 10.7391 69.1105 10.7498 68.96 10.7605C69.8751 10.819 70.5439 10.9069 70.9675 11.0214C71.3511 11.1239 71.5482 11.2518 71.5616 11.4022Z" fill="#68280A"/>
<path fill-rule="evenodd" clip-rule="evenodd" d="M52.7651 2.59708C54.6247 1.6757 59.7186 1.01396 65.7144 1.01396C73.2846 1.01396 79.4202 2.06849 79.4202 3.368C79.4202 3.90858 78.3585 4.40655 76.5775 4.80333C78.9766 4.3706 80.4526 3.78608 80.4526 3.14164C80.4526 1.81151 74.1731 0.731689 66.427 0.731689C59.7706 0.731689 54.2011 1.52924 52.7651 2.59708Z" fill="#E3662C"/>
<path fill-rule="evenodd" clip-rule="evenodd" d="M64.3294 2.59251C64.42 2.62713 64.5466 2.65776 64.7104 2.68572C64.8742 2.71235 65.0687 2.73631 65.2912 2.75761C65.515 2.77758 65.7601 2.79756 66.0239 2.81354L66.3222 2.20239C65.9493 2.21038 65.6309 2.22502 65.3645 2.24366C65.094 2.26363 64.8689 2.28761 64.6957 2.3169C64.5212 2.34619 64.3934 2.37814 64.3134 2.41276C64.2468 2.44338 64.2135 2.474 64.2029 2.50729C64.2202 2.53791 64.2628 2.56721 64.3294 2.59251Z" fill="#F1A85F"/>
<path fill-rule="evenodd" clip-rule="evenodd" d="M69.2721 3.67781C69.2574 3.64186 69.2135 3.60991 69.1376 3.58195C69.043 3.54866 68.9111 3.51803 68.7406 3.4914C68.5674 3.46477 68.369 3.44213 68.1372 3.42349C67.9067 3.40352 67.6563 3.38623 67.3846 3.37158L67.0542 4.04662C67.7802 4.02931 68.333 3.98671 68.7073 3.91881C69.0536 3.85623 69.2401 3.77633 69.2721 3.67781Z" fill="#F1A85F"/>
<path fill-rule="evenodd" clip-rule="evenodd" d="M70.0436 1.94736C70.5245 1.99396 70.9454 2.04589 71.3158 2.10181L71.445 2.06852C71.0467 2.00329 70.5804 1.94603 70.0436 1.8941C69.5121 1.84351 68.8807 1.80757 68.1534 1.7876L68.1267 1.83952C68.866 1.86083 69.5054 1.89544 70.0436 1.94736Z" fill="#F1A85F"/>
<path fill-rule="evenodd" clip-rule="evenodd" d="M65.2236 4.46289L65.061 4.79442H65.0864L65.2502 4.46422L65.2236 4.46289Z" fill="#F1A85F"/>
<path fill-rule="evenodd" clip-rule="evenodd" d="M69.0741 3.04165C69.567 3.0736 70.0092 3.11488 70.4048 3.16415C70.7978 3.21474 71.1162 3.27732 71.3626 3.35188C71.5864 3.42112 71.7036 3.50765 71.7209 3.60884L71.7289 3.58089C71.7289 3.46772 71.6051 3.37318 71.3626 3.29862C71.1162 3.22406 70.7978 3.16148 70.4048 3.11088C70.0092 3.06029 69.567 3.01903 69.0741 2.9884C68.5919 2.95645 68.103 2.92848 67.6101 2.90186L67.5835 2.95378C68.087 2.98041 68.5839 3.00969 69.0741 3.04165Z" fill="#F1A85F"/>
<path fill-rule="evenodd" clip-rule="evenodd" d="M64.3288 2.64466C64.4194 2.67927 64.546 2.71124 64.7098 2.73787C64.8737 2.7645 65.0682 2.78845 65.2906 2.80976C65.5144 2.83106 65.7595 2.84971 66.0233 2.86568L66.3483 2.19995L66.3217 2.20128L66.0233 2.81242C65.7595 2.79644 65.5144 2.77647 65.2906 2.75649C65.0682 2.73519 64.8737 2.71124 64.7098 2.68461C64.546 2.65665 64.4194 2.62601 64.3288 2.59139C64.2622 2.5661 64.2196 2.5368 64.2023 2.50618L64.1917 2.52482C64.1917 2.57009 64.2383 2.61004 64.3288 2.64466Z" fill="#F1A85F"/>
<path fill-rule="evenodd" clip-rule="evenodd" d="M62.074 2.29869C62.2871 2.21215 62.5948 2.13359 62.9998 2.06569C63.4034 1.99645 63.9029 1.94052 64.4957 1.89525C65.0885 1.85132 65.7705 1.82868 66.5365 1.82868L66.6524 1.59967C66.6657 1.57038 66.7363 1.54509 66.8615 1.52245C66.988 1.49849 67.1519 1.48783 67.3544 1.48783H68.2788L68.3068 1.43457H67.3544C67.1519 1.43457 66.988 1.44522 66.8615 1.46786C66.7363 1.49182 66.6657 1.51712 66.6524 1.54641L66.5365 1.77542C65.7705 1.77542 65.0885 1.79805 64.4957 1.84199C63.9029 1.88726 63.4034 1.94319 62.9998 2.01109C62.5948 2.08033 62.2871 2.15755 62.074 2.24543C61.8609 2.33331 61.7556 2.42252 61.7556 2.51306L61.7623 2.54235C61.7796 2.4598 61.8795 2.37858 62.074 2.29869Z" fill="#F1A85F"/>
<path fill-rule="evenodd" clip-rule="evenodd" d="M69.279 3.70171L69.2723 3.67773C69.2403 3.77626 69.0538 3.85616 68.7075 3.91874C68.3332 3.98664 67.7804 4.02925 67.0544 4.04656L67.0291 4.10115C67.7684 4.08384 68.3278 4.04122 68.7075 3.97199C69.0885 3.90408 69.279 3.81355 69.279 3.70171Z" fill="#F1A85F"/>
<path fill-rule="evenodd" clip-rule="evenodd" d="M62.1983 3.88725C62.3129 3.87526 62.4341 3.86994 62.5593 3.86994C62.7138 3.86994 62.8763 3.87925 63.0508 3.89789C63.2254 3.91653 63.4252 3.93784 63.649 3.96313C63.8714 3.98843 64.1258 4.01372 64.4109 4.03902C64.6973 4.06432 65.037 4.08296 65.4273 4.09495L65.8256 3.2894L65.7989 3.28809L65.4273 4.04035C65.037 4.02837 64.6973 4.01107 64.4109 3.98577C64.1258 3.96048 63.8714 3.93517 63.649 3.90987C63.4252 3.88457 63.2254 3.86327 63.0508 3.84463C62.8763 3.82599 62.7138 3.81668 62.5593 3.81668C62.4341 3.81668 62.3129 3.822 62.1983 3.83398C62.0824 3.84464 61.9905 3.85928 61.9212 3.87792L61.126 4.0803C61.1673 4.08829 61.2139 4.09362 61.2565 4.10161L61.9212 3.93118C61.9905 3.91254 62.0824 3.8979 62.1983 3.88725Z" fill="#F1A85F"/>
<path fill-rule="evenodd" clip-rule="evenodd" d="M80.0915 10.15C80.0915 10.4642 79.837 10.7186 79.524 10.7186C79.2096 10.7186 78.9552 10.4642 78.9552 10.15V6.55372C78.9552 6.24083 79.2096 5.98652 79.524 5.98652C79.837 5.98652 80.0915 6.24083 80.0915 6.55372V10.15ZM77.9308 10.5468C77.9308 10.8597 77.6764 11.114 77.3634 11.114C77.049 11.114 76.7945 10.8597 76.7945 10.5468V6.95051C76.7945 6.63629 77.049 6.38197 77.3634 6.38197C77.6764 6.38197 77.9308 6.63629 77.9308 6.95051V10.5468ZM75.7702 10.8317C75.7702 11.1446 75.5157 11.3989 75.2027 11.3989C74.8883 11.3989 74.6339 11.1446 74.6339 10.8317V7.23543C74.6339 6.92121 74.8883 6.66691 75.2027 6.66691C75.5157 6.66691 75.7702 6.92121 75.7702 7.23543V10.8317ZM80.8401 7.20215V5.07446C80.7935 5.08511 80.7415 5.09576 80.6949 5.10508C80.5723 5.13171 80.4471 5.15702 80.3206 5.18232C80.2327 5.20096 80.1434 5.21827 80.0528 5.23558C79.9063 5.26354 79.7558 5.2915 79.6026 5.31813C79.5267 5.33145 79.4534 5.34608 79.3761 5.3594C79.1523 5.39801 78.9219 5.43529 78.6861 5.47257C78.6035 5.48455 78.5183 5.49654 78.4357 5.50986C78.2692 5.53382 78.1026 5.55913 77.9308 5.58309C77.8296 5.59641 77.7257 5.61105 77.6218 5.62436C77.4606 5.64566 77.2981 5.66696 77.1342 5.68694C77.0263 5.70025 76.9198 5.71357 76.8119 5.72689C76.632 5.74819 76.4495 5.76816 76.2657 5.78813C76.1698 5.79878 76.0766 5.80943 75.9806 5.82008C75.7036 5.84937 75.4212 5.87734 75.1348 5.90397C75.0815 5.90929 75.0255 5.9133 74.9722 5.91863C74.7325 5.93993 74.49 5.96123 74.2436 5.9812C74.2103 5.98386 74.1783 5.98785 74.145 5.99051V11.9835C76.7772 11.7731 79.0684 11.4575 80.8401 11.0687V7.20215Z" fill="#E3662C"/>
<path fill-rule="evenodd" clip-rule="evenodd" d="M58.4849 10.9209C58.4849 11.2338 58.2304 11.4882 57.9174 11.4882C57.603 11.4882 57.3499 11.2338 57.3499 10.9209V7.32465C57.3499 7.01042 57.603 6.75611 57.9174 6.75611C58.2304 6.75611 58.4849 7.01042 58.4849 7.32465V10.9209ZM56.3242 10.6121C56.3242 10.9263 56.0698 11.1806 55.7567 11.1806C55.4424 11.1806 55.1893 10.9263 55.1893 10.6121V7.01575C55.1893 6.70286 55.4424 6.44855 55.7567 6.44855C56.0698 6.44855 56.3242 6.70286 56.3242 7.01575V10.6121ZM54.1636 10.3045C54.1636 10.6187 53.9091 10.8717 53.5961 10.8717C53.2817 10.8717 53.0286 10.6187 53.0286 10.3045V6.70818C53.0286 6.39395 53.2817 6.14097 53.5961 6.14097C53.9091 6.14097 54.1636 6.39395 54.1636 6.70818V10.3045ZM58.71 6.28743V5.99051C58.6767 5.98785 58.6434 5.98386 58.6101 5.9812C58.3636 5.96123 58.1212 5.93993 57.8814 5.91863C57.8281 5.9133 57.7722 5.90929 57.7189 5.90397C57.4325 5.87734 57.1514 5.84937 56.873 5.82008C56.7771 5.80943 56.6839 5.79878 56.5893 5.78813C56.4055 5.76816 56.2216 5.74819 56.0418 5.72689C55.9339 5.71357 55.8273 5.70025 55.7208 5.68694C55.5556 5.66696 55.3931 5.64566 55.2319 5.62436C55.1293 5.61105 55.0254 5.59641 54.9228 5.58309C54.7523 5.55913 54.5845 5.53382 54.418 5.50852C54.3354 5.49654 54.2501 5.48455 54.1689 5.47257C53.9331 5.43529 53.7027 5.39801 53.4775 5.3594C53.4003 5.34608 53.327 5.33145 53.2524 5.31813C53.0992 5.2915 52.9487 5.26354 52.8008 5.23558C52.7102 5.21827 52.6223 5.20096 52.5331 5.18232C52.4065 5.15702 52.2813 5.13171 52.1588 5.10508C52.1121 5.09443 52.0615 5.08511 52.0149 5.07446V11.0687C53.7852 11.4575 56.0764 11.7731 58.71 11.9835V6.28743Z" fill="#F1A85F"/>
<path fill-rule="evenodd" clip-rule="evenodd" d="M73.6101 11.0754C73.6101 11.3883 73.3557 11.6426 73.0426 11.6426C72.7283 11.6426 72.4738 11.3883 72.4738 11.0754V7.47773C72.4738 7.16484 72.7283 6.91053 73.0426 6.91053C73.3557 6.91053 73.6101 7.16484 73.6101 7.47773V11.0754ZM71.4495 11.2977C71.4495 11.6119 71.195 11.8649 70.882 11.8649C70.5676 11.8649 70.3132 11.6119 70.3132 11.2977V7.70141C70.3132 7.38719 70.5676 7.13421 70.882 7.13421C71.195 7.13421 71.4495 7.38719 71.4495 7.70141V11.2977ZM69.2888 11.2977C69.2888 11.6119 69.0344 11.8649 68.7213 11.8649C68.407 11.8649 68.1525 11.6119 68.1525 11.2977V7.70141C68.1525 7.38719 68.407 7.13421 68.7213 7.13421C69.0344 7.13421 69.2888 7.38719 69.2888 7.70141V11.2977ZM67.1282 11.4269C67.1282 11.7411 66.8737 11.9954 66.5607 11.9954C66.2463 11.9954 65.9919 11.7411 65.9919 11.4269V7.83058C65.9919 7.51768 66.2463 7.26337 66.5607 7.26337C66.8737 7.26337 67.1282 7.51768 67.1282 7.83058V11.4269ZM64.9675 11.2977C64.9675 11.6119 64.7131 11.8649 64.4 11.8649C64.0857 11.8649 63.8326 11.6119 63.8326 11.2977V7.70141C63.8326 7.38719 64.0857 7.13421 64.4 7.13421C64.7131 7.13421 64.9675 7.38719 64.9675 7.70141V11.2977ZM62.8069 11.2977C62.8069 11.6119 62.5524 11.8649 62.2394 11.8649C61.925 11.8649 61.6719 11.6119 61.6719 11.2977V7.70141C61.6719 7.38719 61.925 7.13421 62.2394 7.13421C62.5524 7.13421 62.8069 7.38719 62.8069 7.70141V11.2977ZM60.6462 11.0754C60.6462 11.3883 60.3918 11.6426 60.0787 11.6426C59.7644 11.6426 59.5099 11.3883 59.5099 11.0754V7.47773C59.5099 7.16484 59.7644 6.91053 60.0787 6.91053C60.3918 6.91053 60.6462 7.16484 60.6462 7.47773V11.0754ZM74.1456 6.28739V5.99048C74.0777 5.9958 74.0084 5.9998 73.9405 6.00512C73.7127 6.02243 73.4809 6.03974 73.2478 6.05572C73.1319 6.06371 73.016 6.0717 72.9001 6.07969C72.6443 6.09567 72.3872 6.11164 72.1275 6.12629C72.0582 6.13029 71.9916 6.13428 71.9223 6.13827C71.909 6.1396 71.8944 6.1396 71.8797 6.14094C71.5147 6.15958 71.1431 6.17689 70.7674 6.19286C70.6489 6.19819 70.529 6.20218 70.4078 6.20751C70.0721 6.21949 69.7337 6.23147 69.3914 6.2408C69.3208 6.24346 69.2515 6.2448 69.1809 6.24746C68.8066 6.25678 68.4256 6.26343 68.0446 6.27008C67.9114 6.27142 67.7795 6.27275 67.6463 6.27541C67.2907 6.27941 66.9337 6.28208 66.574 6.28208C66.5247 6.28208 66.4768 6.28341 66.4275 6.28341C66.3782 6.28341 66.3302 6.28208 66.2823 6.28208C65.9213 6.28208 65.5643 6.27941 65.2099 6.27541C65.0767 6.27275 64.9435 6.27142 64.8116 6.27008C64.4293 6.26343 64.0497 6.25678 63.6741 6.24746C63.6035 6.2448 63.5342 6.24346 63.4636 6.2408C63.1212 6.23147 62.7829 6.21949 62.4472 6.20751C62.326 6.20218 62.2061 6.19819 62.0875 6.19286C61.7119 6.17689 61.3402 6.15958 60.9752 6.14094C60.9619 6.1396 60.9473 6.1396 60.9326 6.13827C60.8633 6.13428 60.7967 6.13029 60.7288 6.12629C60.4677 6.11164 60.2106 6.09567 59.9562 6.07969C59.839 6.0717 59.7231 6.06371 59.6085 6.05572C59.3741 6.03974 59.1423 6.02243 58.9145 6.00512C58.8466 5.9998 58.7773 5.9958 58.7107 5.99048V11.9834C61.0552 12.1712 63.67 12.2764 66.4275 12.2764C69.1849 12.2764 71.7998 12.1712 74.1456 11.9834V6.28739Z" fill="#EA892D"/>
<path fill-rule="evenodd" clip-rule="evenodd" d="M84.2854 9.20548C84.2854 9.51971 84.0309 9.77269 83.7179 9.77269C83.4035 9.77269 83.1491 9.51971 83.1491 9.20548V5.60918C83.1491 5.29495 83.4035 5.04197 83.7179 5.04197C84.0309 5.04197 84.2854 5.29495 84.2854 5.60918V9.20548ZM82.2526 9.79798C82.2526 10.1109 81.9982 10.3652 81.6838 10.3652C81.3707 10.3652 81.1163 10.1109 81.1163 9.79798V6.20036C81.1163 5.88746 81.3707 5.63315 81.6838 5.63315C81.9982 5.63315 82.2526 5.88746 82.2526 6.20036V9.79798ZM84.7143 3.14062C84.7143 3.19122 84.7063 3.24182 84.6916 3.29108C84.6876 3.30706 84.681 3.32172 84.6756 3.33636C84.6623 3.37231 84.6477 3.40692 84.629 3.44154C84.6197 3.45885 84.6077 3.47616 84.5971 3.49347C84.5757 3.52542 84.5518 3.55871 84.5251 3.59066C84.5105 3.60797 84.4958 3.62528 84.4798 3.64126C84.4479 3.67588 84.4132 3.70917 84.3759 3.74245C84.3586 3.7571 84.344 3.77175 84.3253 3.7864C84.2734 3.82901 84.2161 3.87161 84.1548 3.91422L84.1362 3.92753C84.0642 3.97546 83.9856 4.02207 83.9017 4.06867C83.8844 4.07932 83.8644 4.08864 83.8458 4.09796C83.7778 4.13524 83.7086 4.16985 83.634 4.2058C83.6047 4.22045 83.5727 4.23377 83.5434 4.24708C83.4741 4.27904 83.4022 4.31099 83.3276 4.34161C83.2929 4.35626 83.2583 4.36958 83.2223 4.38423C83.1438 4.41485 83.0612 4.4468 82.9772 4.47743C82.9426 4.48941 82.9106 4.50273 82.8747 4.51471C82.7708 4.55199 82.6629 4.58794 82.551 4.62388C82.5323 4.62921 82.5163 4.63454 82.4977 4.64119C82.3605 4.6838 82.2193 4.72642 82.0714 4.76769L82.0355 4.77834C81.9036 4.81562 81.7664 4.85156 81.6265 4.88751C81.5865 4.89817 81.5466 4.9075 81.5066 4.91815C81.3881 4.94744 81.2695 4.97539 81.1456 5.00468C81.099 5.01534 81.051 5.02599 81.0031 5.03664C80.9485 5.04995 80.8952 5.06194 80.8406 5.07392V11.0682C83.2676 10.5356 84.7143 9.86455 84.7143 9.13491V3.14062Z" fill="#EA892D"/>
<path fill-rule="evenodd" clip-rule="evenodd" d="M80.452 3.14094C80.452 3.78537 78.9761 4.3699 76.577 4.80263C78.358 4.40585 79.4197 3.90787 79.4197 3.3673C79.4197 2.06778 73.2841 1.01325 65.7138 1.01325C59.7181 1.01325 54.6242 1.67499 52.7646 2.59637C54.2006 1.52853 59.77 0.730977 66.4265 0.730977C74.1726 0.730977 80.452 1.8108 80.452 3.14094ZM48.1396 3.14094C48.1396 3.19153 48.1489 3.24213 48.1622 3.29139C48.1662 3.30737 48.1742 3.32203 48.1795 3.33668C48.1915 3.37263 48.2062 3.40723 48.2248 3.44185C48.2355 3.45916 48.2461 3.47647 48.2581 3.49378C48.2794 3.52574 48.3021 3.55902 48.3301 3.59097C48.3434 3.60828 48.358 3.62559 48.374 3.64157C48.406 3.67619 48.4406 3.70948 48.4793 3.74276C48.4952 3.75741 48.5099 3.77207 48.5285 3.78671C48.5805 3.82932 48.6378 3.87192 48.6991 3.91453L48.719 3.92784C48.7896 3.97577 48.8682 4.02238 48.9522 4.06898C48.9708 4.07964 48.9908 4.08895 49.0094 4.09827C49.076 4.13555 49.1466 4.17016 49.2199 4.20611C49.2492 4.22076 49.2812 4.23408 49.3118 4.24873C49.3797 4.27935 49.4517 4.30997 49.5263 4.34193C49.5609 4.35524 49.5955 4.3699 49.6315 4.38454C49.7101 4.41517 49.7927 4.44712 49.8766 4.47774C49.9112 4.48972 49.9446 4.50304 49.9792 4.51502C50.0831 4.55231 50.191 4.58825 50.3029 4.62287C50.3215 4.62952 50.3389 4.63485 50.3575 4.64151C50.4934 4.68411 50.6346 4.72673 50.7824 4.76801C50.7944 4.772 50.8077 4.77466 50.8197 4.77865C50.9516 4.81593 51.0875 4.85188 51.2274 4.88783C51.2673 4.89848 51.3086 4.90781 51.3486 4.91846C51.4658 4.94776 51.5857 4.9757 51.7082 5.005C51.7549 5.01565 51.8028 5.0263 51.8508 5.03695C51.952 5.06092 52.0546 5.08222 52.1585 5.10486C52.281 5.13149 52.4062 5.1568 52.5328 5.18209C52.622 5.20073 52.71 5.21805 52.8005 5.23535C52.9484 5.26332 53.0989 5.29128 53.2521 5.31791C53.3267 5.33122 53.4 5.34586 53.4773 5.35917C53.7024 5.39779 53.9328 5.43506 54.1686 5.47234C54.2499 5.48433 54.3351 5.49631 54.4177 5.5083C54.5842 5.5336 54.7521 5.5589 54.9226 5.58287C55.0251 5.59618 55.129 5.61082 55.2316 5.62413C55.3928 5.64544 55.5553 5.66674 55.7205 5.68671C55.8271 5.70002 55.9336 5.71335 56.0415 5.72666C56.2214 5.74796 56.4052 5.76793 56.589 5.7879C56.6836 5.79855 56.7768 5.80921 56.8727 5.81986C57.1511 5.84915 57.4322 5.87711 57.7186 5.90374C57.7719 5.90907 57.8279 5.91307 57.8811 5.9184C58.1209 5.9397 58.3634 5.961 58.6098 5.98098C58.7097 5.98896 58.8123 5.99694 58.9135 6.00493C59.1413 6.02224 59.3731 6.03955 59.6075 6.05553C59.7221 6.06352 59.838 6.07151 59.9552 6.0795C60.2096 6.09548 60.4667 6.11146 60.7278 6.1261C60.8104 6.1301 60.8917 6.13542 60.9742 6.14075C61.3392 6.15939 61.7109 6.1767 62.0865 6.19268C62.2051 6.198 62.3263 6.20199 62.4462 6.20732C62.7819 6.2193 63.1202 6.23129 63.4626 6.24061C63.5332 6.24327 63.6025 6.24461 63.6731 6.24727C64.0487 6.25659 64.4283 6.26324 64.8107 6.26989C64.9425 6.27123 65.0757 6.27256 65.2089 6.27523C65.5633 6.27922 65.9203 6.28189 66.2813 6.28189C66.3292 6.28189 66.3772 6.28189 66.4265 6.28189C66.4758 6.28189 66.5237 6.28189 66.573 6.28189C66.9327 6.28189 67.2897 6.27922 67.6453 6.27523C67.7785 6.27256 67.9104 6.27123 68.0436 6.26989C68.4246 6.26324 68.8056 6.25659 69.1799 6.24727C69.2505 6.24461 69.3198 6.24327 69.3904 6.24061C69.7327 6.23129 70.0711 6.2193 70.4068 6.20732C70.528 6.20199 70.6479 6.198 70.7664 6.19268C71.1421 6.1767 71.5137 6.15939 71.8787 6.14075C71.9626 6.13542 72.0439 6.1301 72.1265 6.1261C72.3862 6.11146 72.6433 6.09548 72.8991 6.0795C73.015 6.07151 73.1309 6.06352 73.2468 6.05553C73.4799 6.03955 73.7117 6.02224 73.9395 6.00493C74.0407 5.99694 74.1433 5.98896 74.2432 5.98098C74.4896 5.961 74.732 5.9397 74.9718 5.9184C75.0251 5.91307 75.0811 5.90907 75.1343 5.90374C75.4207 5.87711 75.7031 5.84915 75.9802 5.81986C76.0761 5.80921 76.1694 5.79855 76.2653 5.7879C76.4491 5.76793 76.6316 5.74796 76.8114 5.72666C76.9193 5.71335 77.0259 5.70002 77.1338 5.68671C77.2976 5.66674 77.4602 5.64544 77.6213 5.62413C77.7253 5.61082 77.8291 5.59618 77.9304 5.58287C78.1022 5.5589 78.2687 5.5336 78.4353 5.50963C78.5178 5.49632 78.6031 5.48433 78.6857 5.47234C78.9215 5.43506 79.1519 5.39779 79.3757 5.35917C79.453 5.34586 79.5262 5.33122 79.6022 5.31791C79.7554 5.29128 79.9059 5.26332 80.0524 5.23535C80.143 5.21805 80.2322 5.20073 80.3202 5.18209C80.4467 5.1568 80.5719 5.13149 80.6945 5.10486C80.7984 5.08222 80.9023 5.05959 81.0022 5.03695C81.0501 5.0263 81.0981 5.01565 81.1447 5.005C81.2686 4.9757 81.3872 4.94776 81.5057 4.91846C81.5457 4.90781 81.5857 4.89848 81.6256 4.88783C81.7655 4.85188 81.9027 4.81593 82.0346 4.77865L82.0705 4.76801C82.2184 4.72673 82.3596 4.68411 82.4968 4.64151C82.5154 4.63485 82.5314 4.62952 82.5501 4.6242C82.662 4.58825 82.7699 4.55231 82.8738 4.51502C82.9097 4.50304 82.9417 4.48972 82.9763 4.47774C83.0603 4.44712 83.1429 4.41517 83.2215 4.38454C83.2574 4.3699 83.292 4.35657 83.3267 4.34193C83.4013 4.3113 83.4732 4.27935 83.5425 4.2474C83.5718 4.23408 83.6038 4.22076 83.6331 4.20611C83.7077 4.17016 83.7769 4.13555 83.8449 4.09827C83.8635 4.08895 83.8835 4.07964 83.9008 4.06898C83.9847 4.02238 84.0633 3.97577 84.1353 3.92784L84.1539 3.91453C84.2152 3.87192 84.2725 3.82932 84.3244 3.78671C84.3431 3.77207 84.3577 3.75741 84.375 3.74276C84.4123 3.70948 84.447 3.67619 84.4789 3.64157C84.4949 3.62559 84.5096 3.60828 84.5242 3.59097C84.5509 3.55902 84.5748 3.52574 84.5962 3.49378C84.6068 3.47647 84.6188 3.45916 84.6281 3.44185C84.6468 3.40723 84.6614 3.37263 84.6747 3.33668C84.6801 3.32203 84.6867 3.30737 84.6907 3.29139C84.7054 3.24213 84.7134 3.19153 84.7134 3.14094L84.768 3.13429L84.7134 3.13829C84.7027 1.40471 76.5197 0 66.4265 0C56.3332 0 48.1502 1.40471 48.1409 3.13829L48.085 3.13429L48.1382 3.14094H48.085H48.1396Z" fill="#F1A85F"/>
<path fill-rule="evenodd" clip-rule="evenodd" d="M51.8775 9.82195C51.8775 10.1348 51.6231 10.3892 51.3087 10.3892C50.9956 10.3892 50.7412 10.1348 50.7412 9.82195V6.22565C50.7412 5.91142 50.9956 5.65711 51.3087 5.65711C51.6231 5.65711 51.8775 5.91142 51.8775 6.22565V9.82195ZM49.8421 9.20548C49.8421 9.51971 49.5876 9.77269 49.2746 9.77269C48.9616 9.77269 48.7071 9.51971 48.7071 9.20548V5.60918C48.7071 5.29495 48.9616 5.04197 49.2746 5.04197C49.5876 5.04197 49.8421 5.29495 49.8421 5.60918V9.20548ZM52.0147 7.20161V5.07392C51.9588 5.06194 51.9055 5.04995 51.8508 5.03664C51.8029 5.02599 51.7549 5.01534 51.7083 5.00468C51.5858 4.97539 51.4659 4.94744 51.3487 4.91815C51.3087 4.9075 51.2674 4.89817 51.2274 4.88751C51.0876 4.85156 50.9517 4.81562 50.8198 4.77834C50.8078 4.77435 50.7945 4.77169 50.7825 4.76769C50.6347 4.72642 50.4935 4.6838 50.3576 4.64119C50.3389 4.63454 50.3216 4.62921 50.303 4.62255C50.1911 4.58793 50.0832 4.55199 49.9793 4.51471C49.9446 4.50273 49.9113 4.48941 49.8767 4.47743C49.7928 4.4468 49.7102 4.41485 49.6316 4.38423C49.5956 4.36958 49.561 4.35493 49.5264 4.34161C49.4518 4.30966 49.3798 4.27904 49.3119 4.24842C49.2812 4.23377 49.2493 4.22045 49.22 4.2058C49.1467 4.16985 49.0761 4.13524 49.0095 4.09796C48.9909 4.08864 48.9709 4.07932 48.9522 4.06867C48.8683 4.02207 48.7897 3.97546 48.7191 3.92753L48.6991 3.91422C48.6379 3.87161 48.5806 3.82901 48.5286 3.7864C48.51 3.77175 48.4953 3.7571 48.4793 3.74245C48.4407 3.70917 48.4061 3.67588 48.3741 3.64126C48.3581 3.62528 48.3435 3.60797 48.3301 3.59066C48.3022 3.55871 48.2795 3.52542 48.2582 3.49347C48.2462 3.47616 48.2356 3.45885 48.2249 3.44154C48.2063 3.40692 48.1916 3.37231 48.1796 3.33636C48.1743 3.32172 48.1663 3.30706 48.1623 3.29108C48.149 3.24182 48.1396 3.19122 48.1396 3.14062V9.13491C48.1396 9.86455 49.5876 10.5356 52.0147 11.0682V7.20161Z" fill="#EA892D"/>
<path fill-rule="evenodd" clip-rule="evenodd" d="M57.9176 6.75537C57.6032 6.75537 57.3501 7.00968 57.3501 7.32391V10.9202C57.3501 11.2331 57.6032 11.4874 57.9176 11.4874C58.2306 11.4874 58.485 11.2331 58.485 10.9202V7.32391C58.485 7.00968 58.2306 6.75537 57.9176 6.75537Z" fill="#F6BD63"/>
<path fill-rule="evenodd" clip-rule="evenodd" d="M60.0783 6.91016C59.7639 6.91016 59.5095 7.16447 59.5095 7.47736V11.075C59.5095 11.3879 59.7639 11.6422 60.0783 11.6422C60.3914 11.6422 60.6458 11.3879 60.6458 11.075V7.47736C60.6458 7.16447 60.3914 6.91016 60.0783 6.91016Z" fill="#F0AD2B"/>
<path fill-rule="evenodd" clip-rule="evenodd" d="M62.2384 7.13428C61.924 7.13428 61.6709 7.38726 61.6709 7.70148V11.2978C61.6709 11.612 61.924 11.865 62.2384 11.865C62.5514 11.865 62.8058 11.612 62.8058 11.2978V7.70148C62.8058 7.38726 62.5514 7.13428 62.2384 7.13428Z" fill="#F0AD2B"/>
<path fill-rule="evenodd" clip-rule="evenodd" d="M64.3995 7.13428C64.0851 7.13428 63.832 7.38726 63.832 7.70148V11.2978C63.832 11.612 64.0851 11.865 64.3995 11.865C64.7125 11.865 64.967 11.612 64.967 11.2978V7.70148C64.967 7.38726 64.7125 7.13428 64.3995 7.13428Z" fill="#F0AD2B"/>
<path fill-rule="evenodd" clip-rule="evenodd" d="M66.5598 7.26343C66.2454 7.26343 65.991 7.51774 65.991 7.83064V11.4269C65.991 11.7412 66.2454 11.9955 66.5598 11.9955C66.8728 11.9955 67.1272 11.7412 67.1272 11.4269V7.83064C67.1272 7.51774 66.8728 7.26343 66.5598 7.26343Z" fill="#F0AD2B"/>
<path fill-rule="evenodd" clip-rule="evenodd" d="M81.6832 5.63379C81.3702 5.63379 81.1157 5.8881 81.1157 6.201V9.79862C81.1157 10.1115 81.3702 10.3658 81.6832 10.3658C81.9976 10.3658 82.252 10.1115 82.252 9.79862V6.201C82.252 5.8881 81.9976 5.63379 81.6832 5.63379Z" fill="#F0AD2B"/>
<path fill-rule="evenodd" clip-rule="evenodd" d="M79.5246 5.98657C79.2102 5.98657 78.9558 6.24088 78.9558 6.55378V10.1501C78.9558 10.4643 79.2102 10.7186 79.5246 10.7186C79.8376 10.7186 80.0921 10.4643 80.0921 10.1501V6.55378C80.0921 6.24088 79.8376 5.98657 79.5246 5.98657Z" fill="#EA892D"/>
<path fill-rule="evenodd" clip-rule="evenodd" d="M77.3637 6.38232C77.0494 6.38232 76.7949 6.63664 76.7949 6.95086V10.5471C76.7949 10.86 77.0494 11.1144 77.3637 11.1144C77.6768 11.1144 77.9312 10.86 77.9312 10.5471V6.95086C77.9312 6.63664 77.6768 6.38232 77.3637 6.38232Z" fill="#EA892D"/>
<path fill-rule="evenodd" clip-rule="evenodd" d="M75.2031 6.6665C74.8887 6.6665 74.6343 6.9208 74.6343 7.23503V10.8313C74.6343 11.1442 74.8887 11.3985 75.2031 11.3985C75.5161 11.3985 75.7706 11.1442 75.7706 10.8313V7.23503C75.7706 6.9208 75.5161 6.6665 75.2031 6.6665Z" fill="#EA892D"/>
<path fill-rule="evenodd" clip-rule="evenodd" d="M73.0417 6.91016C72.7273 6.91016 72.4729 7.16447 72.4729 7.47736V11.075C72.4729 11.3879 72.7273 11.6422 73.0417 11.6422C73.3548 11.6422 73.6092 11.3879 73.6092 11.075V7.47736C73.6092 7.16447 73.3548 6.91016 73.0417 6.91016Z" fill="#F0AD2B"/>
<path fill-rule="evenodd" clip-rule="evenodd" d="M70.8818 7.13428C70.5674 7.13428 70.313 7.38726 70.313 7.70148V11.2978C70.313 11.612 70.5674 11.865 70.8818 11.865C71.1948 11.865 71.4493 11.612 71.4493 11.2978V7.70148C71.4493 7.38726 71.1948 7.13428 70.8818 7.13428Z" fill="#F0AD2B"/>
<path fill-rule="evenodd" clip-rule="evenodd" d="M68.7207 7.13428C68.4063 7.13428 68.1519 7.38726 68.1519 7.70148V11.2978C68.1519 11.612 68.4063 11.865 68.7207 11.865C69.0337 11.865 69.2881 11.612 69.2881 11.2978V7.70148C69.2881 7.38726 69.0337 7.13428 68.7207 7.13428Z" fill="#F0AD2B"/>
<path fill-rule="evenodd" clip-rule="evenodd" d="M83.717 5.04199C83.4026 5.04199 83.1482 5.29497 83.1482 5.6092V9.2055C83.1482 9.51973 83.4026 9.77271 83.717 9.77271C84.0301 9.77271 84.2845 9.51973 84.2845 9.2055V5.6092C84.2845 5.29497 84.0301 5.04199 83.717 5.04199Z" fill="#F0AD2B"/>
<path fill-rule="evenodd" clip-rule="evenodd" d="M55.7572 6.44849C55.4428 6.44849 55.1897 6.7028 55.1897 7.01569V10.612C55.1897 10.9262 55.4428 11.1805 55.7572 11.1805C56.0702 11.1805 56.3246 10.9262 56.3246 10.612V7.01569C56.3246 6.7028 56.0702 6.44849 55.7572 6.44849Z" fill="#F6BD63"/>
<path fill-rule="evenodd" clip-rule="evenodd" d="M53.5968 6.14062C53.2824 6.14062 53.0293 6.39361 53.0293 6.70783V10.3041C53.0293 10.6184 53.2824 10.8713 53.5968 10.8713C53.9098 10.8713 54.1643 10.6184 54.1643 10.3041V6.70783C54.1643 6.39361 53.9098 6.14062 53.5968 6.14062Z" fill="#F6BD63"/>
<path fill-rule="evenodd" clip-rule="evenodd" d="M51.3096 5.65723C50.9966 5.65723 50.7422 5.91154 50.7422 6.22577V9.82206C50.7422 10.135 50.9966 10.3893 51.3096 10.3893C51.624 10.3893 51.8785 10.135 51.8785 9.82206V6.22577C51.8785 5.91154 51.624 5.65723 51.3096 5.65723Z" fill="#F0AD2B"/>
<path fill-rule="evenodd" clip-rule="evenodd" d="M49.2752 5.04199C48.9622 5.04199 48.7078 5.29497 48.7078 5.6092V9.2055C48.7078 9.51973 48.9622 9.77271 49.2752 9.77271C49.5883 9.77271 49.8427 9.51973 49.8427 9.2055V5.6092C49.8427 5.29497 49.5883 5.04199 49.2752 5.04199Z" fill="#F0AD2B"/>
<path fill-rule="evenodd" clip-rule="evenodd" d="M65.6225 3.33526L65.5067 3.39118L66.162 3.72271C66.1767 3.7307 66.19 3.73736 66.2033 3.74402L66.2273 3.75468C66.3046 3.79329 66.3805 3.82657 66.4564 3.85719C66.4937 3.87184 66.5324 3.88516 66.5697 3.89847C66.7015 3.94508 66.8307 3.97703 66.96 3.99167C67.0892 4.00765 67.2197 4.00366 67.3489 3.98103C67.4781 3.95972 67.6113 3.91579 67.7459 3.85188L67.7565 3.84655C67.7832 3.83323 67.8072 3.81991 67.8298 3.80793C67.9177 3.75999 67.983 3.7134 68.0256 3.66813C68.0816 3.60955 68.1016 3.55095 68.0882 3.49104C68.0749 3.43112 68.0283 3.36987 67.9484 3.30729C67.8671 3.24338 67.7565 3.17682 67.6153 3.10492L66.8774 2.73077L65.6225 3.33526ZM65.6905 4.98096L65.7011 4.97563C65.7264 4.96232 65.7491 4.95033 65.7717 4.93835C65.8343 4.9024 65.885 4.86645 65.9249 4.82917C65.9795 4.77725 66.0035 4.72132 65.9969 4.66141C65.9889 4.60282 65.9489 4.54024 65.8743 4.47233C65.801 4.40443 65.6838 4.33121 65.5253 4.24999L64.6461 3.80526L63.3806 4.41509L63.2647 4.471L64.1506 4.91972L64.1785 4.93303L64.1932 4.94101C64.3437 5.01424 64.4876 5.06484 64.6235 5.09547C64.7713 5.12742 64.9099 5.14206 65.0391 5.1394C65.1656 5.13674 65.2842 5.12076 65.3934 5.09014C65.5026 5.05951 65.6012 5.02357 65.6905 4.98096ZM66.9906 5.58013C66.9666 5.59344 66.944 5.60543 66.9187 5.61874C66.6709 5.73725 66.4071 5.81979 66.1141 5.87304C65.8224 5.92497 65.5146 5.94362 65.1896 5.92897C64.8673 5.91433 64.5356 5.86373 64.1972 5.77718C63.9388 5.70928 63.683 5.62006 63.4312 5.50689L62.7093 5.8544L62.1125 5.55217L62.2284 5.49624L62.8265 5.20864L62.3363 4.95966L61.6223 5.3045L61.0242 5.00094L61.1401 4.94501L61.7382 4.65741L61.0348 4.30058L61.1507 4.24465L66.5816 1.62964L67.2863 1.98648L67.8351 1.72152L68.4319 2.02377L68.0003 2.2328L67.8844 2.28873L68.3733 2.53771L68.9235 2.27275L69.5202 2.57498L69.074 2.79068L68.9568 2.84661C69.1512 2.96111 69.3084 3.07162 69.4297 3.17681C69.6215 3.34458 69.736 3.5017 69.772 3.64816C69.8093 3.79462 69.7733 3.93176 69.6641 4.05958C69.5669 4.17275 69.419 4.27927 69.2272 4.3778C69.2059 4.38979 69.1872 4.40044 69.1659 4.41109C69.0314 4.475 68.8955 4.52427 68.745 4.56288C68.5944 4.60016 68.4306 4.62546 68.2548 4.63612C68.0789 4.64677 67.8911 4.64276 67.6926 4.62412C67.5634 4.61081 67.4275 4.59084 67.2877 4.56288C67.2117 4.54956 67.1345 4.53359 67.0559 4.51362C67.325 4.73863 67.4462 4.94101 67.4182 5.12342C67.3916 5.28986 67.249 5.44165 66.9906 5.58013Z" fill="#F1A85F"/>
<path fill-rule="evenodd" clip-rule="evenodd" d="M64.1194 2.73082L64.1075 2.79473L65.8005 2.81337C65.8205 2.81337 65.8418 2.81337 65.8618 2.8147H65.8978C65.9111 2.8147 65.9164 2.8147 65.9218 2.8147C66.2188 2.81737 66.4919 2.8147 66.7397 2.80804H66.7743C67.0633 2.79872 67.3125 2.78274 67.5189 2.75744C67.7254 2.73081 67.8852 2.69487 67.9998 2.64694C68.113 2.599 68.1756 2.53776 68.189 2.46319L68.1903 2.45121C68.1916 2.43923 68.1903 2.42725 68.189 2.41526C68.1836 2.36467 68.1517 2.3194 68.0944 2.28078C68.0185 2.23152 67.8972 2.19157 67.7294 2.16095C67.5602 2.12899 67.3444 2.10637 67.0807 2.09039C66.8169 2.07441 66.5025 2.06508 66.1362 2.06109L64.234 2.0398L64.1194 2.73082ZM68.3528 3.67749L68.3541 3.67085C68.3555 3.65753 68.3541 3.64288 68.3515 3.63089C68.3435 3.59228 68.3195 3.55766 68.2769 3.5257C68.2169 3.48043 68.1077 3.44049 67.9492 3.40853C67.792 3.37525 67.5789 3.34995 67.3124 3.32998C67.046 3.31001 66.7077 3.29802 66.2974 3.29403L64.0288 3.26874L63.9023 4.029L66.1908 4.05431C66.2135 4.05431 66.2361 4.05563 66.2588 4.05563C66.6397 4.05829 66.9515 4.05031 67.2032 4.03433C67.2192 4.033 67.2339 4.03167 67.2485 4.03034C67.5256 4.01036 67.7441 3.98107 67.9039 3.94512C68.0638 3.90917 68.177 3.8679 68.2422 3.8213C68.3075 3.7747 68.3448 3.72676 68.3528 3.67749ZM71.5618 3.67883C71.5618 3.69347 71.5631 3.7068 71.5618 3.72144C71.5392 3.85725 71.4033 3.97708 71.1542 4.08626C70.9051 4.19544 70.5507 4.28864 70.0925 4.3672C69.6329 4.44576 69.0721 4.50434 68.4114 4.54428C67.9039 4.5749 67.3444 4.59088 66.7343 4.59221L66.6677 4.98899L65.1238 4.97168L65.1891 4.5789L63.9263 4.56559L63.861 4.95836L62.3158 4.94106L62.3265 4.87715L62.3811 4.54828L60.5654 4.5283L60.5748 4.4644L61.073 1.47392L62.8899 1.49388L62.9392 1.19165L64.4804 1.20894L64.4445 1.44728L64.4338 1.51119L65.6966 1.52583L65.7472 1.2236L67.2871 1.23958L67.2512 1.4859L67.2392 1.54981C67.78 1.56579 68.2622 1.58709 68.6858 1.61638C69.3585 1.66298 69.9034 1.72423 70.3216 1.80012C70.7386 1.87602 71.037 1.96656 71.2155 2.07042C71.374 2.16362 71.4499 2.2648 71.4499 2.37531C71.4499 2.3873 71.4539 2.40061 71.4526 2.4126C71.4406 2.4845 71.3846 2.54974 71.2847 2.61232C71.1835 2.6749 71.033 2.73349 70.8318 2.78675C70.6293 2.84001 70.3749 2.88793 70.0659 2.93054C69.8661 2.9585 69.6369 2.98247 69.3865 3.00378C69.2506 3.01576 69.1108 3.02641 68.9602 3.03706C69.8754 3.09565 70.5441 3.18352 70.9677 3.29803C71.3513 3.40055 71.5485 3.52837 71.5618 3.67883Z" fill="#EA892D"/>
<path fill-rule="evenodd" clip-rule="evenodd" d="M16.2442 18.4563C16.3348 18.4909 16.4613 18.5229 16.6252 18.5495C16.789 18.5761 16.9835 18.6001 17.206 18.6214C17.4298 18.6427 17.6749 18.6613 17.9386 18.6786L18.237 18.0662C17.8641 18.0755 17.5457 18.0888 17.2793 18.1074C17.0088 18.1274 16.7837 18.1527 16.6105 18.1807C16.436 18.21 16.3082 18.2419 16.2282 18.2765C16.1616 18.3072 16.1283 18.3378 16.1177 18.3711C16.135 18.403 16.1776 18.431 16.2442 18.4563Z" fill="#F1A85F"/>
<path fill-rule="evenodd" clip-rule="evenodd" d="M21.9581 17.8109C22.439 17.8575 22.86 17.9094 23.2303 17.9667L23.3595 17.9321C22.9612 17.8682 22.495 17.8096 21.9581 17.7576C21.4266 17.7071 20.7952 17.6711 20.0679 17.6511L20.0413 17.7031C20.7806 17.7244 21.42 17.7603 21.9581 17.8109Z" fill="#F1A85F"/>
<path fill-rule="evenodd" clip-rule="evenodd" d="M20.9886 18.9042C21.4815 18.9362 21.9238 18.9774 22.3194 19.028C22.7124 19.0773 23.0307 19.1399 23.2772 19.2158C23.501 19.285 23.6182 19.3702 23.6355 19.4714L23.6435 19.4434C23.6435 19.3303 23.5196 19.2371 23.2772 19.1612C23.0307 19.0866 22.7124 19.024 22.3194 18.9734C21.9238 18.9242 21.4815 18.8829 20.9886 18.851C20.5064 18.819 20.0176 18.791 19.5247 18.7644L19.498 18.8177C20.0016 18.843 20.4984 18.8723 20.9886 18.9042Z" fill="#F1A85F"/>
<path fill-rule="evenodd" clip-rule="evenodd" d="M16.2436 18.5096C16.3342 18.5455 16.4608 18.5761 16.6246 18.6027C16.7885 18.6294 16.983 18.6533 17.2054 18.6747C17.4292 18.696 17.6743 18.7146 17.9381 18.7319L18.2631 18.0662H18.2365L17.9381 18.6786C17.6743 18.6613 17.4292 18.6427 17.2054 18.6214C16.983 18.6001 16.7885 18.5761 16.6246 18.5495C16.4608 18.5229 16.3342 18.4909 16.2436 18.4563C16.177 18.431 16.1344 18.403 16.1171 18.3711L16.1064 18.3897C16.1064 18.435 16.1531 18.4749 16.2436 18.5096Z" fill="#F1A85F"/>
<path fill-rule="evenodd" clip-rule="evenodd" d="M13.9883 18.1623C14.2014 18.0745 14.5091 17.9959 14.9141 17.928C15.3177 17.8588 15.8172 17.8028 16.41 17.7589C17.0028 17.7136 17.6848 17.691 18.4508 17.691L18.5667 17.4633C18.58 17.434 18.6506 17.4074 18.7758 17.3848C18.9024 17.3608 19.0662 17.3501 19.2687 17.3501H20.1931L20.2211 17.2969H19.2687C19.0662 17.2969 18.9024 17.3075 18.7758 17.3315C18.6506 17.3541 18.58 17.3808 18.5667 17.4087L18.4508 17.6377C17.6848 17.6377 17.0028 17.6604 16.41 17.7043C15.8172 17.7496 15.3177 17.8055 14.9141 17.8747C14.5091 17.9426 14.2014 18.0212 13.9883 18.1078C13.7752 18.1956 13.6699 18.2848 13.6699 18.3754L13.6766 18.4047C13.6939 18.3221 13.7938 18.2409 13.9883 18.1623Z" fill="#F1A85F"/>
<path fill-rule="evenodd" clip-rule="evenodd" d="M4.67993 10.111C6.53953 9.18962 11.6334 8.52788 17.6292 8.52788C25.1994 8.52788 31.335 9.58241 31.335 10.8819C31.335 11.4225 30.2733 11.9205 28.4923 12.3172C30.8914 11.8845 32.3674 11.3 32.3674 10.6556C32.3674 9.32542 26.0879 8.24561 18.3418 8.24561C11.6854 8.24561 6.11592 9.04316 4.67993 10.111Z" fill="#E3662C"/>
<path fill-rule="evenodd" clip-rule="evenodd" d="M16.2442 10.1072C16.3348 10.1418 16.4613 10.1724 16.6252 10.2004C16.789 10.227 16.9835 10.251 17.206 10.2723C17.4298 10.2922 17.6749 10.3122 17.9386 10.3282L18.237 9.71704C17.8641 9.72503 17.5457 9.73967 17.2793 9.75831C17.0088 9.77828 16.7837 9.80225 16.6105 9.83155C16.436 9.86084 16.3082 9.89279 16.2282 9.92741C16.1616 9.95803 16.1283 9.98865 16.1177 10.0219C16.135 10.0526 16.1776 10.0819 16.2442 10.1072Z" fill="#F1A85F"/>
<path fill-rule="evenodd" clip-rule="evenodd" d="M21.1871 11.1922C21.1725 11.1563 21.1285 11.1243 21.0526 11.0964C20.958 11.0631 20.8261 11.0324 20.6556 11.0058C20.4825 10.9792 20.284 10.9565 20.0522 10.9379C19.8218 10.9179 19.5713 10.9006 19.2996 10.886L18.9692 11.561C19.6952 11.5437 20.248 11.5011 20.6223 11.4332C20.9687 11.3706 21.1552 11.2907 21.1871 11.1922Z" fill="#F1A85F"/>
<path fill-rule="evenodd" clip-rule="evenodd" d="M21.9581 9.46299C22.439 9.50959 22.86 9.56152 23.2303 9.61743L23.3595 9.58415C22.9612 9.51891 22.495 9.46165 21.9581 9.40973C21.4266 9.35913 20.7952 9.32319 20.0679 9.30322L20.0413 9.35515C20.7806 9.37645 21.42 9.41106 21.9581 9.46299Z" fill="#F1A85F"/>
<path fill-rule="evenodd" clip-rule="evenodd" d="M17.1386 11.9773L16.9761 12.3088H17.0014L17.1652 11.9786L17.1386 11.9773Z" fill="#F1A85F"/>
<path fill-rule="evenodd" clip-rule="evenodd" d="M20.9886 10.5558C21.4815 10.5878 21.9238 10.629 22.3194 10.6783C22.7124 10.7289 23.0307 10.7915 23.2772 10.866C23.501 10.9353 23.6182 11.0218 23.6355 11.123L23.6435 11.095C23.6435 10.9819 23.5196 10.8873 23.2772 10.8128C23.0307 10.7382 22.7124 10.6756 22.3194 10.625C21.9238 10.5745 21.4815 10.5332 20.9886 10.5026C20.5064 10.4706 20.0176 10.4426 19.5247 10.416L19.498 10.4679C20.0016 10.4946 20.4984 10.5239 20.9886 10.5558Z" fill="#F1A85F"/>
<path fill-rule="evenodd" clip-rule="evenodd" d="M16.2436 10.1608C16.3342 10.1954 16.4608 10.2274 16.6246 10.254C16.7885 10.2806 16.983 10.3046 17.2054 10.3259C17.4292 10.3472 17.6743 10.3658 17.9381 10.3818L18.2631 9.71606L18.2365 9.7174L17.9381 10.3285C17.6743 10.3126 17.4292 10.2926 17.2054 10.2726C16.983 10.2513 16.7885 10.2273 16.6246 10.2007C16.4608 10.1728 16.3342 10.1421 16.2436 10.1075C16.177 10.0822 16.1344 10.0529 16.1171 10.0223L16.1064 10.0409C16.1064 10.0862 16.1531 10.1262 16.2436 10.1608Z" fill="#F1A85F"/>
<path fill-rule="evenodd" clip-rule="evenodd" d="M13.9883 9.81285C14.2014 9.72631 14.5091 9.64775 14.9141 9.57985C15.3177 9.51061 15.8172 9.45468 16.41 9.40941C17.0028 9.36548 17.6848 9.34284 18.4508 9.34284L18.5667 9.11383C18.58 9.08454 18.6506 9.05925 18.7758 9.03661C18.9024 9.01265 19.0662 9.00199 19.2687 9.00199H20.1931L20.2211 8.94873H19.2687C19.0662 8.94873 18.9024 8.95938 18.7758 8.98202C18.6506 9.00598 18.58 9.03128 18.5667 9.06057L18.4508 9.28958C17.6848 9.28958 17.0028 9.31221 16.41 9.35615C15.8172 9.40142 15.3177 9.45735 14.9141 9.52525C14.5091 9.59449 14.2014 9.67171 13.9883 9.75959C13.7752 9.84747 13.6699 9.93668 13.6699 10.0272L13.6766 10.0565C13.6939 9.97396 13.7938 9.89274 13.9883 9.81285Z" fill="#F1A85F"/>
<path fill-rule="evenodd" clip-rule="evenodd" d="M21.1935 11.2164L21.1868 11.1924C21.1549 11.2909 20.9684 11.3708 20.622 11.4334C20.2477 11.5013 19.6949 11.5439 18.9689 11.5612L18.9436 11.6158C19.6829 11.5985 20.2424 11.5559 20.622 11.4866C21.003 11.4187 21.1935 11.3282 21.1935 11.2164Z" fill="#F1A85F"/>
<path fill-rule="evenodd" clip-rule="evenodd" d="M14.1133 11.4031C14.2279 11.3911 14.3491 11.3858 14.4744 11.3858C14.6289 11.3858 14.7914 11.3951 14.9659 11.4138C15.1404 11.4324 15.3402 11.4537 15.564 11.479C15.7865 11.5043 16.0409 11.5296 16.3259 11.5549C16.6123 11.5802 16.952 11.5988 17.3423 11.6108L17.7406 10.8053L17.714 10.804L17.3423 11.5562C16.952 11.5442 16.6123 11.5269 16.3259 11.5016C16.0409 11.4763 15.7865 11.451 15.564 11.4257C15.3402 11.4004 15.1404 11.3791 14.9659 11.3605C14.7914 11.3419 14.6289 11.3325 14.4744 11.3325C14.3491 11.3325 14.2279 11.3379 14.1133 11.3499C13.9975 11.3605 13.9055 11.3751 13.8363 11.3938L13.041 11.5962C13.0823 11.6042 13.1289 11.6095 13.1716 11.6175L13.8363 11.447C13.9055 11.4284 13.9975 11.4138 14.1133 11.4031Z" fill="#F1A85F"/>
<path fill-rule="evenodd" clip-rule="evenodd" d="M32.006 17.6644C32.006 17.9787 31.7516 18.233 31.4385 18.233C31.1242 18.233 30.8697 17.9787 30.8697 17.6644V14.0681C30.8697 13.7552 31.1242 13.5009 31.4385 13.5009C31.7516 13.5009 32.006 13.7552 32.006 14.0681V17.6644ZM29.8454 18.0612C29.8454 18.3741 29.5909 18.6284 29.2779 18.6284C28.9635 18.6284 28.7091 18.3741 28.7091 18.0612V14.4649C28.7091 14.1507 28.9635 13.8964 29.2779 13.8964C29.5909 13.8964 29.8454 14.1507 29.8454 14.4649V18.0612ZM27.6847 18.3461C27.6847 18.659 27.4303 18.9133 27.1172 18.9133C26.8029 18.9133 26.5484 18.659 26.5484 18.3461V14.7498C26.5484 14.4356 26.8029 14.1813 27.1172 14.1813C27.4303 14.1813 27.6847 14.4356 27.6847 14.7498V18.3461ZM32.7547 14.7166V12.5889C32.708 12.5995 32.6561 12.6102 32.6094 12.6195C32.4869 12.6461 32.3617 12.6714 32.2351 12.6967C32.1472 12.7154 32.058 12.7327 31.9674 12.75C31.8209 12.7779 31.6703 12.8059 31.5171 12.8325C31.4412 12.8459 31.3679 12.8605 31.2907 12.8738C31.0669 12.9124 30.8364 12.9497 30.6007 12.987C30.5181 12.999 30.4328 13.0109 30.3502 13.0243C30.1837 13.0482 30.0172 13.0735 29.8454 13.0975C29.7441 13.1108 29.6402 13.1254 29.5363 13.1388C29.3751 13.1601 29.2126 13.1814 29.0488 13.2013C28.9409 13.2147 28.8343 13.228 28.7264 13.2413C28.5466 13.2626 28.3641 13.2826 28.1802 13.3025C28.0843 13.3132 27.9911 13.3238 27.8952 13.3345C27.6181 13.3638 27.3357 13.3917 27.0493 13.4184C26.996 13.4237 26.9401 13.4277 26.8868 13.433C26.647 13.4543 26.4046 13.4756 26.1581 13.4956C26.1248 13.4983 26.0929 13.5023 26.0596 13.5049V19.4979C28.6918 19.2875 30.983 18.9719 32.7547 18.5831V14.7166Z" fill="#E3662C"/>
<path fill-rule="evenodd" clip-rule="evenodd" d="M10.3994 18.4353C10.3994 18.7482 10.145 19.0026 9.83194 19.0026C9.51757 19.0026 9.26447 18.7482 9.26447 18.4353V14.8391C9.26447 14.5248 9.51757 14.2705 9.83194 14.2705C10.145 14.2705 10.3994 14.5248 10.3994 14.8391V18.4353ZM8.23876 18.1265C8.23876 18.4407 7.98433 18.695 7.67129 18.695C7.35691 18.695 7.10381 18.4407 7.10381 18.1265V14.5302C7.10381 14.2173 7.35691 13.963 7.67129 13.963C7.98433 13.963 8.23876 14.2173 8.23876 14.5302V18.1265ZM6.07811 17.8189C6.07811 18.1331 5.82368 18.3861 5.51064 18.3861C5.19626 18.3861 4.94316 18.1331 4.94316 17.8189V14.2226C4.94316 13.9084 5.19626 13.6554 5.51064 13.6554C5.82368 13.6554 6.07811 13.9084 6.07811 14.2226V17.8189ZM10.6245 13.8018V13.5049C10.5912 13.5023 10.5579 13.4983 10.5246 13.4956C10.2782 13.4756 10.0358 13.4543 9.79597 13.433C9.74269 13.4277 9.68675 13.4237 9.63346 13.4184C9.34706 13.3917 9.06599 13.3638 8.78758 13.3345C8.69167 13.3238 8.59842 13.3132 8.50384 13.3025C8.32001 13.2826 8.13619 13.2626 7.95636 13.2413C7.84846 13.228 7.74189 13.2147 7.63532 13.2013C7.47015 13.1814 7.30762 13.1601 7.14644 13.1388C7.04387 13.1254 6.93997 13.1108 6.83739 13.0975C6.66689 13.0735 6.49905 13.0482 6.33253 13.0229C6.24994 13.0109 6.16469 12.999 6.08343 12.987C5.84765 12.9497 5.6172 12.9124 5.39208 12.8738C5.31482 12.8605 5.24155 12.8459 5.16695 12.8325C5.01376 12.8059 4.86324 12.7779 4.71537 12.75C4.62479 12.7327 4.53687 12.7154 4.44762 12.6967C4.32107 12.6714 4.19586 12.6461 4.0733 12.6195C4.02668 12.6088 3.97607 12.5995 3.92944 12.5889V18.5831C5.69979 18.9719 7.99099 19.2875 10.6245 19.4979V13.8018Z" fill="#F1A85F"/>
<path fill-rule="evenodd" clip-rule="evenodd" d="M25.5239 18.5898C25.5239 18.9027 25.2695 19.157 24.9564 19.157C24.6421 19.157 24.3876 18.9027 24.3876 18.5898V14.9921C24.3876 14.6792 24.6421 14.4249 24.9564 14.4249C25.2695 14.4249 25.5239 14.6792 25.5239 14.9921V18.5898ZM23.3633 18.8121C23.3633 19.1263 23.1088 19.3793 22.7958 19.3793C22.4814 19.3793 22.227 19.1263 22.227 18.8121V15.2158C22.227 14.9016 22.4814 14.6486 22.7958 14.6486C23.1088 14.6486 23.3633 14.9016 23.3633 15.2158V18.8121ZM21.2026 18.8121C21.2026 19.1263 20.9482 19.3793 20.6352 19.3793C20.3208 19.3793 20.0664 19.1263 20.0664 18.8121V15.2158C20.0664 14.9016 20.3208 14.6486 20.6352 14.6486C20.9482 14.6486 21.2026 14.9016 21.2026 15.2158V18.8121ZM19.042 18.9413C19.042 19.2555 18.7875 19.5098 18.4745 19.5098C18.1601 19.5098 17.9057 19.2555 17.9057 18.9413V15.345C17.9057 15.0321 18.1601 14.7778 18.4745 14.7778C18.7875 14.7778 19.042 15.0321 19.042 15.345V18.9413ZM16.8813 18.8121C16.8813 19.1263 16.6269 19.3793 16.3139 19.3793C15.9995 19.3793 15.7464 19.1263 15.7464 18.8121V15.2158C15.7464 14.9016 15.9995 14.6486 16.3139 14.6486C16.6269 14.6486 16.8813 14.9016 16.8813 15.2158V18.8121ZM14.7207 18.8121C14.7207 19.1263 14.4663 19.3793 14.1532 19.3793C13.8388 19.3793 13.5857 19.1263 13.5857 18.8121V15.2158C13.5857 14.9016 13.8388 14.6486 14.1532 14.6486C14.4663 14.6486 14.7207 14.9016 14.7207 15.2158V18.8121ZM12.56 18.5898C12.56 18.9027 12.3056 19.157 11.9926 19.157C11.6782 19.157 11.4238 18.9027 11.4238 18.5898V14.9921C11.4238 14.6792 11.6782 14.4249 11.9926 14.4249C12.3056 14.4249 12.56 14.6792 12.56 14.9921V18.5898ZM26.0594 13.8018V13.5049C25.9915 13.5102 25.9222 13.5142 25.8543 13.5195C25.6265 13.5368 25.3947 13.5541 25.1616 13.5701C25.0457 13.5781 24.9298 13.5861 24.8139 13.5941C24.5582 13.6101 24.3011 13.626 24.0413 13.6407C23.972 13.6447 23.9054 13.6487 23.8362 13.6527C23.8228 13.654 23.8082 13.654 23.7935 13.6553C23.4285 13.674 23.0569 13.6913 22.6812 13.7073C22.5627 13.7126 22.4428 13.7166 22.3216 13.7219C21.9859 13.7339 21.6475 13.7459 21.3052 13.7552C21.2346 13.7579 21.1653 13.7592 21.0947 13.7619C20.7204 13.7712 20.3394 13.7778 19.9584 13.7845C19.8252 13.7858 19.6934 13.7872 19.5602 13.7898C19.2045 13.7938 18.8475 13.7965 18.4878 13.7965C18.4385 13.7965 18.3906 13.7978 18.3413 13.7978C18.292 13.7978 18.2441 13.7965 18.1961 13.7965C17.8351 13.7965 17.4781 13.7938 17.1238 13.7898C16.9906 13.7872 16.8573 13.7858 16.7255 13.7845C16.3432 13.7778 15.9635 13.7712 15.5879 13.7619C15.5173 13.7592 15.448 13.7579 15.3774 13.7552C15.035 13.7459 14.6967 13.7339 14.361 13.7219C14.2398 13.7166 14.1199 13.7126 14.0014 13.7073C13.6257 13.6913 13.2541 13.674 12.8891 13.6553C12.8757 13.654 12.8611 13.654 12.8464 13.6527C12.7772 13.6487 12.7106 13.6447 12.6426 13.6407C12.3815 13.626 12.1244 13.6101 11.87 13.5941C11.7528 13.5861 11.6369 13.5781 11.5223 13.5701C11.2879 13.5541 11.0561 13.5368 10.8283 13.5195C10.7604 13.5142 10.6911 13.5102 10.6245 13.5049V19.4978C12.969 19.6856 15.5839 19.7908 18.3413 19.7908C21.0987 19.7908 23.7136 19.6856 26.0594 19.4978V13.8018Z" fill="#EA892D"/>
<path fill-rule="evenodd" clip-rule="evenodd" d="M36.1997 16.7209C36.1997 17.0351 35.9452 17.2881 35.6322 17.2881C35.3178 17.2881 35.0634 17.0351 35.0634 16.7209V13.1246C35.0634 12.8103 35.3178 12.5573 35.6322 12.5573C35.9452 12.5573 36.1997 12.8103 36.1997 13.1246V16.7209ZM34.1669 17.3134C34.1669 17.6263 33.9125 17.8806 33.5981 17.8806C33.285 17.8806 33.0306 17.6263 33.0306 17.3134V13.7157C33.0306 13.4028 33.285 13.1485 33.5981 13.1485C33.9125 13.1485 34.1669 13.4028 34.1669 13.7157V17.3134ZM36.6286 10.656C36.6286 10.7066 36.6206 10.7572 36.6059 10.8065C36.6019 10.8224 36.5953 10.8371 36.59 10.8517C36.5766 10.8877 36.562 10.9223 36.5433 10.9569C36.534 10.9742 36.522 10.9915 36.5114 11.0088C36.49 11.0408 36.4661 11.0741 36.4394 11.106C36.4248 11.1234 36.4101 11.1407 36.3941 11.1566C36.3622 11.1913 36.3275 11.2245 36.2902 11.2578C36.2729 11.2725 36.2583 11.2871 36.2396 11.3018C36.1877 11.3444 36.1304 11.387 36.0691 11.4296L36.0505 11.4429C35.9785 11.4908 35.8999 11.5375 35.816 11.5841C35.7987 11.5947 35.7787 11.604 35.7601 11.6133C35.6921 11.6506 35.6229 11.6852 35.5483 11.7212C35.519 11.7358 35.487 11.7492 35.4577 11.7625C35.3884 11.7944 35.3165 11.8264 35.2419 11.857C35.2072 11.8716 35.1726 11.885 35.1367 11.8996C35.0581 11.9302 34.9755 11.9622 34.8915 11.9928C34.8569 12.0048 34.8249 12.0181 34.789 12.0301C34.6851 12.0674 34.5772 12.1033 34.4653 12.1393C34.4466 12.1446 34.4306 12.1499 34.412 12.1566C34.2748 12.1992 34.1336 12.2418 33.9857 12.2831L33.9498 12.2937C33.8179 12.331 33.6807 12.3669 33.5408 12.4029C33.5009 12.4135 33.4609 12.4229 33.4209 12.4335C33.3024 12.4628 33.1838 12.4908 33.0599 12.5201C33.0133 12.5307 32.9653 12.5414 32.9174 12.552C32.8628 12.5653 32.8095 12.5773 32.7549 12.5893V18.5836C35.1819 18.051 36.6286 17.3799 36.6286 16.6503V10.656Z" fill="#EA892D"/>
<path fill-rule="evenodd" clip-rule="evenodd" d="M32.3671 10.6558C32.3671 11.3003 30.8911 11.8848 28.492 12.3175C30.273 11.9207 31.3347 11.4228 31.3347 10.8822C31.3347 9.58267 25.1991 8.52814 17.6288 8.52814C11.6331 8.52814 6.53922 9.18988 4.67963 10.1113C6.11562 9.04342 11.6851 8.24587 18.3415 8.24587C26.0876 8.24587 32.3671 9.32569 32.3671 10.6558ZM0.054612 10.6558C0.054612 10.7064 0.0639344 10.757 0.0772553 10.8063C0.0812515 10.8223 0.0892447 10.8369 0.0945731 10.8516C0.106562 10.8875 0.121218 10.9221 0.139868 10.9567C0.150524 10.9741 0.161181 10.9914 0.17317 11.0087C0.194483 11.0406 0.217126 11.0739 0.2451 11.1059C0.258421 11.1232 0.273076 11.1405 0.289061 11.1565C0.321031 11.1911 0.355662 11.2244 0.394293 11.2577C0.410278 11.2723 0.42493 11.287 0.443579 11.3016C0.495531 11.3442 0.552815 11.3868 0.614091 11.4294L0.634075 11.4427C0.704676 11.4907 0.783269 11.5373 0.867191 11.5839C0.88584 11.5945 0.90582 11.6038 0.924469 11.6132C0.991074 11.6504 1.06167 11.6851 1.13493 11.721C1.16424 11.7357 1.19621 11.749 1.22685 11.7636C1.29478 11.7942 1.36672 11.8249 1.44132 11.8568C1.47595 11.8701 1.51059 11.8848 1.54655 11.8994C1.62515 11.9301 1.70773 11.962 1.79165 11.9926C1.82629 12.0046 1.85959 12.0179 1.89423 12.0299C1.99813 12.0672 2.10603 12.1031 2.21792 12.1378C2.23657 12.1444 2.25389 12.1497 2.27254 12.1564C2.40842 12.199 2.54962 12.2416 2.69748 12.2829C2.70947 12.2869 2.72278 12.2896 2.73477 12.2935C2.86665 12.3308 3.00252 12.3668 3.14239 12.4027C3.18235 12.4134 3.22365 12.4227 3.26362 12.4334C3.38084 12.4626 3.50072 12.4906 3.62327 12.5199C3.6699 12.5305 3.71785 12.5412 3.76581 12.5518C3.86705 12.5758 3.96962 12.5971 4.07352 12.6197C4.19607 12.6464 4.32129 12.6717 4.44784 12.697C4.53709 12.7156 4.62501 12.7329 4.71559 12.7502C4.86345 12.7782 5.01398 12.8062 5.16717 12.8328C5.24176 12.8461 5.31503 12.8608 5.39229 12.8741C5.61741 12.9127 5.84786 12.95 6.08364 12.9872C6.1649 12.9992 6.25015 13.0112 6.33274 13.0232C6.49926 13.0485 6.6671 13.0738 6.8376 13.0978C6.94017 13.1111 7.04408 13.1257 7.14665 13.139C7.30783 13.1603 7.47035 13.1816 7.63553 13.2016C7.7421 13.2149 7.84866 13.2282 7.95656 13.2416C8.13639 13.2629 8.32022 13.2828 8.50405 13.3028C8.59862 13.3134 8.69187 13.3241 8.78778 13.3347C9.06619 13.364 9.34726 13.392 9.63366 13.4186C9.68695 13.424 9.74289 13.428 9.79617 13.4333C10.0359 13.4546 10.2784 13.4759 10.5248 13.4959C10.6247 13.5039 10.7273 13.5118 10.8285 13.5198C11.0563 13.5371 11.2881 13.5544 11.5226 13.5704C11.6371 13.5784 11.753 13.5864 11.8702 13.5944C12.1247 13.6104 12.3818 13.6263 12.6428 13.641C12.7254 13.645 12.8067 13.6503 12.8893 13.6556C13.2543 13.6743 13.6259 13.6916 14.0016 13.7076C14.1201 13.7129 14.2413 13.7169 14.3612 13.7222C14.6969 13.7342 15.0353 13.7462 15.3776 13.7555C15.4482 13.7582 15.5175 13.7595 15.5881 13.7622C15.9637 13.7715 16.3434 13.7781 16.7257 13.7848C16.8576 13.7861 16.9908 13.7875 17.124 13.7901C17.4783 13.7941 17.8353 13.7968 18.1963 13.7968C18.2443 13.7968 18.2922 13.7968 18.3415 13.7968C18.3908 13.7968 18.4388 13.7968 18.4881 13.7968C18.8477 13.7968 19.2047 13.7941 19.5604 13.7901C19.6936 13.7875 19.8255 13.7861 19.9587 13.7848C20.3396 13.7781 20.7206 13.7715 21.0949 13.7622C21.1655 13.7595 21.2348 13.7582 21.3054 13.7555C21.6478 13.7462 21.9861 13.7342 22.3218 13.7222C22.443 13.7169 22.5629 13.7129 22.6815 13.7076C23.0571 13.6916 23.4288 13.6743 23.7938 13.6556C23.8777 13.6503 23.9589 13.645 24.0415 13.641C24.3013 13.6263 24.5584 13.6104 24.8141 13.5944C24.93 13.5864 25.0459 13.5784 25.1618 13.5704C25.3949 13.5544 25.6267 13.5371 25.8545 13.5198C25.9557 13.5118 26.0583 13.5039 26.1582 13.4959C26.4046 13.4759 26.6471 13.4546 26.8869 13.4333C26.9401 13.428 26.9961 13.424 27.0494 13.4186C27.3358 13.392 27.6182 13.364 27.8953 13.3347C27.9912 13.3241 28.0844 13.3134 28.1803 13.3028C28.3641 13.2828 28.5467 13.2629 28.7265 13.2416C28.8344 13.2282 28.9409 13.2149 29.0488 13.2016C29.2127 13.1816 29.3752 13.1603 29.5364 13.139C29.6403 13.1257 29.7442 13.1111 29.8454 13.0978C30.0173 13.0738 30.1838 13.0485 30.3503 13.0245C30.4329 13.0112 30.5181 12.9992 30.6007 12.9872C30.8365 12.95 31.067 12.9127 31.2908 12.8741C31.368 12.8608 31.4413 12.8461 31.5172 12.8328C31.6704 12.8062 31.8209 12.7782 31.9674 12.7502C32.058 12.7329 32.1473 12.7156 32.2352 12.697C32.3617 12.6717 32.487 12.6464 32.6095 12.6197C32.7134 12.5971 32.8173 12.5745 32.9172 12.5518C32.9652 12.5412 33.0131 12.5305 33.0598 12.5199C33.1836 12.4906 33.3022 12.4626 33.4208 12.4334C33.4607 12.4227 33.5007 12.4134 33.5407 12.4027C33.6805 12.3668 33.8177 12.3308 33.9496 12.2935L33.9856 12.2829C34.1334 12.2416 34.2746 12.199 34.4118 12.1564C34.4305 12.1497 34.4465 12.1444 34.4651 12.1391C34.577 12.1031 34.6849 12.0672 34.7888 12.0299C34.8248 12.0179 34.8567 12.0046 34.8914 11.9926C34.9753 11.962 35.0579 11.9301 35.1365 11.8994C35.1725 11.8848 35.2071 11.8715 35.2417 11.8568C35.3163 11.8262 35.3882 11.7942 35.4575 11.7623C35.4868 11.749 35.5188 11.7357 35.5481 11.721C35.6227 11.6851 35.692 11.6504 35.7599 11.6132C35.7785 11.6038 35.7985 11.5945 35.8159 11.5839C35.8998 11.5373 35.9784 11.4907 36.0503 11.4427L36.069 11.4294C36.1302 11.3868 36.1875 11.3442 36.2394 11.3016C36.2581 11.287 36.2728 11.2723 36.2901 11.2577C36.3274 11.2244 36.362 11.1911 36.394 11.1565C36.41 11.1405 36.4246 11.1232 36.4393 11.1059C36.4659 11.0739 36.4899 11.0406 36.5112 11.0087C36.5219 10.9914 36.5338 10.9741 36.5432 10.9567C36.5618 10.9221 36.5765 10.8875 36.5898 10.8516C36.5951 10.8369 36.6018 10.8223 36.6058 10.8063C36.6204 10.757 36.6284 10.7064 36.6284 10.6558L36.683 10.6492L36.6284 10.6532C36.6178 8.9196 28.4347 7.51489 18.3415 7.51489C8.24828 7.51489 0.06527 8.9196 0.0559454 10.6532L0 10.6492L0.0532786 10.6558H0H0.054612Z" fill="#F1A85F"/>
<path fill-rule="evenodd" clip-rule="evenodd" d="M3.7918 17.3373C3.7918 17.6502 3.53737 17.9045 3.22299 17.9045C2.90995 17.9045 2.65553 17.6502 2.65553 17.3373V13.741C2.65553 13.4268 2.90995 13.1725 3.22299 13.1725C3.53737 13.1725 3.7918 13.4268 3.7918 13.741V17.3373ZM1.75637 16.7209C1.75637 17.0351 1.50194 17.2881 1.1889 17.2881C0.875857 17.2881 0.621426 17.0351 0.621426 16.7209V13.1246C0.621426 12.8103 0.875857 12.5573 1.1889 12.5573C1.50194 12.5573 1.75637 12.8103 1.75637 13.1246V16.7209ZM3.92901 14.717V12.5893C3.87306 12.5773 3.81977 12.5653 3.76515 12.552C3.7172 12.5414 3.66924 12.5307 3.62262 12.5201C3.50007 12.4908 3.38019 12.4628 3.26296 12.4335C3.223 12.4229 3.1817 12.4135 3.14174 12.4029C3.00187 12.3669 2.86599 12.331 2.73412 12.2937C2.72213 12.2897 2.70881 12.2871 2.69682 12.2831C2.54896 12.2418 2.40776 12.1992 2.27189 12.1566C2.25324 12.1499 2.23592 12.1446 2.21727 12.1379C2.10537 12.1033 1.99747 12.0674 1.89357 12.0301C1.85894 12.0181 1.82563 12.0048 1.791 11.9928C1.70707 11.9622 1.62449 11.9302 1.5459 11.8996C1.50993 11.885 1.4753 11.8703 1.44066 11.857C1.36607 11.825 1.29413 11.7944 1.22619 11.7638C1.19555 11.7492 1.16358 11.7358 1.13428 11.7212C1.06101 11.6852 0.990418 11.6506 0.923813 11.6133C0.905164 11.604 0.885184 11.5947 0.866534 11.5841C0.782613 11.5375 0.70402 11.4908 0.633419 11.4429L0.613434 11.4296C0.552158 11.387 0.494874 11.3444 0.442923 11.3018C0.424274 11.2871 0.409621 11.2725 0.393636 11.2578C0.355006 11.2245 0.320374 11.1913 0.288404 11.1566C0.272419 11.1407 0.257764 11.1234 0.244443 11.106C0.216469 11.0741 0.193826 11.0408 0.172513 11.0088C0.160524 10.9915 0.149867 10.9742 0.139211 10.9569C0.120561 10.9223 0.105905 10.8877 0.0939161 10.8517C0.0885878 10.8371 0.0805946 10.8224 0.0765983 10.8065C0.0632774 10.7572 0.0539551 10.7066 0.0539551 10.656V16.6503C0.0539551 17.3799 1.50194 18.051 3.92901 18.5836V14.717Z" fill="#EA892D"/>
<path fill-rule="evenodd" clip-rule="evenodd" d="M9.83188 14.2708C9.5175 14.2708 9.2644 14.5251 9.2644 14.8393V18.4356C9.2644 18.7485 9.5175 19.0028 9.83188 19.0028C10.1449 19.0028 10.3993 18.7485 10.3993 18.4356V14.8393C10.3993 14.5251 10.1449 14.2708 9.83188 14.2708Z" fill="#F6BD63"/>
<path fill-rule="evenodd" clip-rule="evenodd" d="M11.9926 14.4248C11.6783 14.4248 11.4238 14.6791 11.4238 14.992V18.5896C11.4238 18.9025 11.6783 19.1569 11.9926 19.1569C12.3057 19.1569 12.5601 18.9025 12.5601 18.5896V14.992C12.5601 14.6791 12.3057 14.4248 11.9926 14.4248Z" fill="#F0AD2B"/>
<path fill-rule="evenodd" clip-rule="evenodd" d="M14.1529 14.6482C13.8385 14.6482 13.5854 14.9012 13.5854 15.2154V18.8117C13.5854 19.1259 13.8385 19.3789 14.1529 19.3789C14.466 19.3789 14.7204 19.1259 14.7204 18.8117V15.2154C14.7204 14.9012 14.466 14.6482 14.1529 14.6482Z" fill="#F0AD2B"/>
<path fill-rule="evenodd" clip-rule="evenodd" d="M16.3145 14.6482C16.0002 14.6482 15.7471 14.9012 15.7471 15.2154V18.8117C15.7471 19.1259 16.0002 19.3789 16.3145 19.3789C16.6276 19.3789 16.882 19.1259 16.882 18.8117V15.2154C16.882 14.9012 16.6276 14.6482 16.3145 14.6482Z" fill="#F0AD2B"/>
<path fill-rule="evenodd" clip-rule="evenodd" d="M18.4741 14.7781C18.1597 14.7781 17.9053 15.0324 17.9053 15.3453V18.9416C17.9053 19.2558 18.1597 19.5101 18.4741 19.5101C18.7871 19.5101 19.0416 19.2558 19.0416 18.9416V15.3453C19.0416 15.0324 18.7871 14.7781 18.4741 14.7781Z" fill="#F0AD2B"/>
<path fill-rule="evenodd" clip-rule="evenodd" d="M33.5977 13.1477C33.2847 13.1477 33.0303 13.402 33.0303 13.7149V17.3125C33.0303 17.6254 33.2847 17.8797 33.5977 17.8797C33.9121 17.8797 34.1666 17.6254 34.1666 17.3125V13.7149C34.1666 13.402 33.9121 13.1477 33.5977 13.1477Z" fill="#F0AD2B"/>
<path fill-rule="evenodd" clip-rule="evenodd" d="M31.4387 13.5007C31.1243 13.5007 30.8699 13.755 30.8699 14.0679V17.6642C30.8699 17.9785 31.1243 18.2328 31.4387 18.2328C31.7517 18.2328 32.0061 17.9785 32.0061 17.6642V14.0679C32.0061 13.755 31.7517 13.5007 31.4387 13.5007Z" fill="#EA892D"/>
<path fill-rule="evenodd" clip-rule="evenodd" d="M29.2783 13.896C28.9639 13.896 28.7095 14.1503 28.7095 14.4645V18.0608C28.7095 18.3737 28.9639 18.628 29.2783 18.628C29.5913 18.628 29.8457 18.3737 29.8457 18.0608V14.4645C29.8457 14.1503 29.5913 13.896 29.2783 13.896Z" fill="#EA892D"/>
<path fill-rule="evenodd" clip-rule="evenodd" d="M27.1176 14.1816C26.8033 14.1816 26.5488 14.4359 26.5488 14.7502V18.3465C26.5488 18.6594 26.8033 18.9137 27.1176 18.9137C27.4307 18.9137 27.6851 18.6594 27.6851 18.3465V14.7502C27.6851 14.4359 27.4307 14.1816 27.1176 14.1816Z" fill="#EA892D"/>
<path fill-rule="evenodd" clip-rule="evenodd" d="M24.9568 14.4248C24.6424 14.4248 24.3879 14.6791 24.3879 14.992V18.5896C24.3879 18.9025 24.6424 19.1569 24.9568 19.1569C25.2698 19.1569 25.5242 18.9025 25.5242 18.5896V14.992C25.5242 14.6791 25.2698 14.4248 24.9568 14.4248Z" fill="#F0AD2B"/>
<path fill-rule="evenodd" clip-rule="evenodd" d="M22.7961 14.6482C22.4817 14.6482 22.2273 14.9012 22.2273 15.2154V18.8117C22.2273 19.1259 22.4817 19.3789 22.7961 19.3789C23.1091 19.3789 23.3636 19.1259 23.3636 18.8117V15.2154C23.3636 14.9012 23.1091 14.6482 22.7961 14.6482Z" fill="#F0AD2B"/>
<path fill-rule="evenodd" clip-rule="evenodd" d="M20.6359 14.6482C20.3216 14.6482 20.0671 14.9012 20.0671 15.2154V18.8117C20.0671 19.1259 20.3216 19.3789 20.6359 19.3789C20.949 19.3789 21.2034 19.1259 21.2034 18.8117V15.2154C21.2034 14.9012 20.949 14.6482 20.6359 14.6482Z" fill="#F0AD2B"/>
<path fill-rule="evenodd" clip-rule="evenodd" d="M35.632 12.5576C35.3177 12.5576 35.0632 12.8106 35.0632 13.1248V16.7211C35.0632 17.0354 35.3177 17.2883 35.632 17.2883C35.9451 17.2883 36.1995 17.0354 36.1995 16.7211V13.1248C36.1995 12.8106 35.9451 12.5576 35.632 12.5576Z" fill="#F0AD2B"/>
<path fill-rule="evenodd" clip-rule="evenodd" d="M7.67074 13.9629C7.35637 13.9629 7.10327 14.2172 7.10327 14.5301V18.1264C7.10327 18.4406 7.35637 18.6949 7.67074 18.6949C7.98377 18.6949 8.2382 18.4406 8.2382 18.1264V14.5301C8.2382 14.2172 7.98377 13.9629 7.67074 13.9629Z" fill="#F6BD63"/>
<path fill-rule="evenodd" clip-rule="evenodd" d="M5.51084 13.6555C5.19646 13.6555 4.94336 13.9085 4.94336 14.2227V17.819C4.94336 18.1333 5.19646 18.3862 5.51084 18.3862C5.82388 18.3862 6.07832 18.1333 6.07832 17.819V14.2227C6.07832 13.9085 5.82388 13.6555 5.51084 13.6555Z" fill="#F6BD63"/>
<path fill-rule="evenodd" clip-rule="evenodd" d="M3.22396 13.1721C2.91092 13.1721 2.65649 13.4264 2.65649 13.7407V17.337C2.65649 17.6498 2.91092 17.9042 3.22396 17.9042C3.53833 17.9042 3.79276 17.6498 3.79276 17.337V13.7407C3.79276 13.4264 3.53833 13.1721 3.22396 13.1721Z" fill="#F0AD2B"/>
<path fill-rule="evenodd" clip-rule="evenodd" d="M1.18905 12.5576C0.876013 12.5576 0.621582 12.8106 0.621582 13.1248V16.7211C0.621582 17.0354 0.876013 17.2883 1.18905 17.2883C1.50209 17.2883 1.75653 17.0354 1.75653 16.7211V13.1248C1.75653 12.8106 1.50209 12.5576 1.18905 12.5576Z" fill="#F0AD2B"/>
<path fill-rule="evenodd" clip-rule="evenodd" d="M17.5376 10.8504L17.4217 10.9063L18.0771 11.2378C18.0917 11.2458 18.1051 11.2525 18.1184 11.2592L18.1423 11.2698C18.2196 11.3084 18.2955 11.3417 18.3715 11.3723C18.4088 11.387 18.4474 11.4003 18.4847 11.4136C18.6166 11.4602 18.7458 11.4922 18.875 11.5068C19.0042 11.5228 19.1348 11.5188 19.264 11.4962C19.3932 11.4749 19.5264 11.4309 19.6609 11.367L19.6716 11.3617C19.6982 11.3484 19.7222 11.335 19.7448 11.3231C19.8328 11.2751 19.898 11.2285 19.9407 11.1833C19.9966 11.1247 20.0166 11.0661 20.0033 11.0062C19.99 10.9463 19.9433 10.885 19.8634 10.8224C19.7821 10.7585 19.6716 10.692 19.5304 10.6201L18.7924 10.2459L17.5376 10.8504ZM17.6055 12.4961L17.6162 12.4908C17.6415 12.4775 17.6641 12.4655 17.6868 12.4535C17.7494 12.4175 17.8 12.3816 17.84 12.3443C17.8946 12.2924 17.9186 12.2365 17.9119 12.1765C17.9039 12.118 17.8639 12.0554 17.7894 11.9875C17.7161 11.9196 17.5988 11.8463 17.4403 11.7651L16.5612 11.3204L15.2957 11.9302L15.1798 11.9861L16.0656 12.4349L16.0936 12.4482L16.1082 12.4561C16.2588 12.5294 16.4026 12.58 16.5385 12.6106C16.6864 12.6426 16.8249 12.6572 16.9541 12.6545C17.0807 12.6519 17.1992 12.6359 17.3085 12.6053C17.4177 12.5747 17.5163 12.5387 17.6055 12.4961ZM18.9056 13.0953C18.8816 13.1086 18.859 13.1206 18.8337 13.1339C18.5859 13.2524 18.3222 13.3349 18.0291 13.3882C17.7374 13.4401 17.4297 13.4588 17.1047 13.4441C16.7823 13.4295 16.4506 13.3789 16.1122 13.2923C15.8538 13.2244 15.5981 13.1352 15.3463 13.022L14.6243 13.3695L14.0275 13.0673L14.1434 13.0114L14.7415 12.7238L14.2513 12.4748L13.5373 12.8196L12.9392 12.5161L13.0551 12.4601L13.6532 12.1725L12.9499 11.8157L13.0658 11.7598L18.4967 9.14478L19.2014 9.50162L19.7502 9.23666L20.347 9.5389L19.9154 9.74794L19.7995 9.80386L20.2883 10.0528L20.8385 9.78789L21.4353 10.0901L20.989 10.3058L20.8718 10.3617C21.0663 10.4763 21.2235 10.5868 21.3447 10.6919C21.5365 10.8597 21.6511 11.0168 21.687 11.1633C21.7243 11.3098 21.6884 11.4469 21.5791 11.5747C21.4819 11.6879 21.334 11.7944 21.1422 11.8929C21.1209 11.9049 21.1023 11.9156 21.0809 11.9262C20.9464 11.9901 20.8105 12.0394 20.66 12.078C20.5095 12.1153 20.3456 12.1406 20.1698 12.1513C19.994 12.1619 19.8061 12.1579 19.6076 12.1393C19.4784 12.1259 19.3426 12.106 19.2027 12.078C19.1268 12.0647 19.0495 12.0487 18.9709 12.0288C19.24 12.2538 19.3612 12.4561 19.3332 12.6386C19.3066 12.805 19.1641 12.9568 18.9056 13.0953Z" fill="#F1A85F"/>
<path fill-rule="evenodd" clip-rule="evenodd" d="M16.0342 10.2452L16.0222 10.3091L17.7153 10.3278C17.7353 10.3278 17.7566 10.3278 17.7766 10.3291H17.8126C17.8259 10.3291 17.8312 10.3291 17.8366 10.3291C18.1336 10.3318 18.4067 10.3291 18.6545 10.3224H18.6891C18.9781 10.3131 19.2272 10.2971 19.4337 10.2718C19.6402 10.2452 19.8 10.2093 19.9146 10.1613C20.0278 10.1134 20.0904 10.0522 20.1037 9.9776L20.1051 9.96562C20.1064 9.95364 20.1051 9.94165 20.1037 9.92967C20.0984 9.87907 20.0665 9.8338 20.0092 9.79519C19.9332 9.74592 19.812 9.70598 19.6442 9.67535C19.475 9.6434 19.2592 9.62077 18.9955 9.6048C18.7317 9.58882 18.4173 9.57949 18.051 9.57549L16.1488 9.5542L16.0342 10.2452ZM20.2676 11.1919L20.2689 11.1852C20.2703 11.1719 20.2689 11.1573 20.2663 11.1453C20.2583 11.1067 20.2343 11.0721 20.1917 11.0401C20.1317 10.9948 20.0225 10.9549 19.864 10.9229C19.7068 10.8897 19.4937 10.8644 19.2272 10.8444C18.9608 10.8244 18.6225 10.8124 18.2122 10.8084L15.9436 10.7831L15.8171 11.5434L18.1056 11.5687C18.1283 11.5687 18.1509 11.57 18.1736 11.57C18.5545 11.5727 18.8663 11.5647 19.118 11.5487C19.134 11.5474 19.1487 11.5461 19.1633 11.5447C19.4404 11.5248 19.6588 11.4955 19.8187 11.4595C19.9785 11.4236 20.0918 11.3823 20.157 11.3357C20.2223 11.2891 20.2596 11.2412 20.2676 11.1919ZM23.4766 11.1932C23.4766 11.2079 23.4779 11.2212 23.4766 11.2358C23.454 11.3717 23.3181 11.4915 23.069 11.6007C22.8199 11.7098 22.4655 11.803 22.0073 11.8816C21.5477 11.9602 20.9869 12.0187 20.3262 12.0587C19.8187 12.0893 19.2592 12.1053 18.6491 12.1066L18.5825 12.5034L17.0386 12.4861L17.1039 12.0933L15.8411 12.08L15.7758 12.4728L14.2306 12.4555L14.2412 12.3916L14.2959 12.0627L12.4802 12.0427L12.4896 11.9788L12.9877 8.98833L14.8047 9.00828L14.854 8.70605L16.3952 8.72335L16.3593 8.96169L16.3486 9.02559L17.6114 9.04024L17.662 8.73801L19.2019 8.75399L19.166 9.0003L19.154 9.06421C19.6948 9.08019 20.177 9.10149 20.6006 9.13079C21.2733 9.17739 21.8181 9.23864 22.2364 9.31453C22.6534 9.39042 22.9518 9.48097 23.1303 9.58482C23.2888 9.67802 23.3647 9.7792 23.3647 9.88972C23.3647 9.9017 23.3687 9.91502 23.3674 9.927C23.3554 9.9989 23.2994 10.0641 23.1995 10.1267C23.0983 10.1893 22.9478 10.2479 22.7466 10.3012C22.5441 10.3544 22.2897 10.4023 21.9807 10.4449C21.7809 10.4729 21.5517 10.4969 21.3013 10.5182C21.1654 10.5302 21.0256 10.5408 20.875 10.5515C21.7902 10.6101 22.4589 10.6979 22.8825 10.8124C23.2661 10.915 23.4633 11.0428 23.4766 11.1932Z" fill="#EA892D"/>
</svg>
