<?xml version="1.0" encoding="UTF-8"?>
<svg width="229px" height="229px" viewBox="0 0 229 229" version="1.1" xmlns="http://www.w3.org/2000/svg" xmlns:xlink="http://www.w3.org/1999/xlink">
    <!-- Generator: Sketch 47.1 (45422) - http://www.bohemiancoding.com/sketch -->
    <title>wheel2</title>
    <desc>Created with Sketch.</desc>
    <defs>
        <linearGradient x1="50%" y1="-18.3913634%" x2="33.4717857%" y2="138.712677%" id="linearGradient-1">
            <stop stop-color="#FF6A2F" offset="0%"></stop>
            <stop stop-color="#D900E4" offset="100%"></stop>
        </linearGradient>
        <linearGradient x1="24.9732861%" y1="113.16101%" x2="62.1676675%" y2="-16.1573303%" id="linearGradient-2">
            <stop stop-color="#2A20F9" offset="0%"></stop>
            <stop stop-color="#F42294" offset="100%"></stop>
        </linearGradient>
        <linearGradient x1="25.3121534%" y1="67.5753125%" x2="98.8190047%" y2="30.8436627%" id="linearGradient-3">
            <stop stop-color="#1B5DC2" offset="0%"></stop>
            <stop stop-color="#691EF2" offset="100%"></stop>
        </linearGradient>
        <linearGradient x1="91.3514734%" y1="84.6325098%" x2="0%" y2="19.8957751%" id="linearGradient-4">
            <stop stop-color="#3260E3" offset="0%"></stop>
            <stop stop-color="#0099EA" offset="100%"></stop>
        </linearGradient>
        <linearGradient x1="108.63125%" y1="38.8647256%" x2="-24.5923449%" y2="50%" id="linearGradient-5">
            <stop stop-color="#1D7EEF" offset="0%"></stop>
            <stop stop-color="#3119CA" offset="100%"></stop>
        </linearGradient>
        <linearGradient x1="19.9241824%" y1="62.4166484%" x2="105.200886%" y2="-74.6684315%" id="linearGradient-6">
            <stop stop-color="#6128E4" offset="0%"></stop>
            <stop stop-color="#2F1585" offset="100%"></stop>
        </linearGradient>
        <linearGradient x1="157.035092%" y1="-15.7586585%" x2="18.3642847%" y2="53.8876761%" id="linearGradient-7">
            <stop stop-color="#6024E4" offset="0%"></stop>
            <stop stop-color="#F21361" offset="100%"></stop>
        </linearGradient>
        <linearGradient x1="95.1862052%" y1="89.086785%" x2="-2.75055302%" y2="15.2757449%" id="linearGradient-8">
            <stop stop-color="#C3156D" offset="0%"></stop>
            <stop stop-color="#FF426E" offset="100%"></stop>
        </linearGradient>
    </defs>
    <g id="Page-1" stroke="none" stroke-width="1" fill="none" fill-rule="evenodd">
        <g id="wheel2" transform="translate(114.533947, 114.926200) rotate(111.000000) translate(-114.533947, -114.926200) translate(2.033947, 2.426200)">
            <g transform="translate(0.000000, -0.000000)">
                <g id="Group-5" transform="translate(1.000000, 1.000000)" stroke="#722BDB" stroke-width="6" opacity="0.403928895">
                    <ellipse id="Oval-4" cx="111.25297" cy="111.498368" rx="111.125524" ry="111.376756"></ellipse>
                </g>
                <g id="wheel_new-copy-4" transform="translate(0.358368, 0.933580)">
                    <g id="Group-3">
                        <g id="new_wheel" opacity="0.796252264" transform="translate(0.240060, 0.118137)">
                            <path d="M84.6804502,74.2327196 C89.3248803,70.7338697 94.6603267,68.3170825 100.686789,66.9823581 C106.713252,65.6476337 112.797634,65.3196241 118.939934,65.9983292 L126.935959,13.7890234 C115.000028,11.9994073 102.317796,12.5154456 88.8892625,15.3371382 C75.4607294,18.1588308 63.5733542,23.455847 53.227137,31.2281866 L84.6804502,74.2327196 Z" id="Path-6" fill="url(#linearGradient-1)"></path>
                            <path d="M42.5967811,109.813594 C47.452672,106.205705 52.8938488,103.734398 58.9203116,102.399673 C64.9467744,101.064949 71.0621032,100.709054 77.2662981,101.331987 L85.4032978,48.6842792 C71.8397518,47.0556682 58.731544,47.6707676 46.0786746,50.5295774 C33.4258051,53.3883872 21.7983893,58.7734351 11.1964272,66.6847211 L42.5967811,109.813594 Z" id="Path-6-Copy" fill="url(#linearGradient-2)" transform="translate(48.299862, 78.805635) rotate(-45.000000) translate(-48.299862, -78.805635) "></path>
                            <path d="M37.8294455,164.343916 C42.4738755,160.845066 47.8093219,158.428279 53.8357847,157.093555 C59.8622476,155.75883 65.9397867,155.457205 72.0684021,156.18868 L80.2106127,103.399166 C65.7925031,101.238263 52.7275101,101.812556 41.0156337,105.122045 C29.3037572,108.431534 17.7948347,113.93113 6.48886621,121.620832 L37.8294455,164.343916 Z" id="Path-6-Copy-2" fill="url(#linearGradient-3)" transform="translate(43.349739, 133.231345) rotate(-90.000000) translate(-43.349739, -133.231345) "></path>
                            <path d="M73.2585522,205.64553 C77.9029822,202.14668 83.2384286,199.729893 89.2648914,198.395168 C95.2913542,197.060444 101.368893,196.758819 107.497509,197.490293 L115.425266,145.150675 C102.579327,143.515291 89.8299221,144.127004 77.1770527,146.985814 C64.5241832,149.844624 52.7711566,155.156835 41.9179729,162.922446 L73.2585522,205.64553 Z" id="Path-6-Copy-3" fill="url(#linearGradient-4)" transform="translate(78.671620, 174.951780) rotate(-135.000000) translate(-78.671620, -174.951780) "></path>
                            <path d="M127.521619,210.471799 C132.905379,207.037442 138.217825,204.637482 143.458956,203.271919 C148.700087,201.906356 154.891661,201.663986 162.033678,202.544811 L170.024082,150.177407 C156.360954,148.398682 143.202956,148.938725 130.550087,151.797535 C117.897217,154.656345 106.417867,159.990232 96.1120375,167.799197 L127.521619,210.471799 Z" id="Path-6-Copy-4" fill="url(#linearGradient-5)" transform="translate(133.068060, 179.812931) rotate(-180.000000) translate(-133.068060, -179.812931) "></path>
                            <path d="M169.564181,175.648242 C174.151888,172.3611 179.458973,170.050167 185.485436,168.715443 C191.511898,167.380718 197.589438,167.079093 203.718053,167.810568 L211.775498,115.330607 C198.185147,113.520832 185.063537,114.045349 172.410667,116.904159 C159.757798,119.762969 148.356018,124.992186 138.205328,132.591809 L169.564181,175.648242 Z" id="Path-6-Copy-5" fill="url(#linearGradient-6)" transform="translate(174.990413, 144.963256) rotate(-225.000000) translate(-174.990413, -144.963256) "></path>
                            <path d="M174.391021,121.602746 C179.035451,118.103896 184.370897,115.687109 190.39736,114.352385 C196.423823,113.01766 202.501362,112.716036 208.629977,113.44751 L216.810698,60.7971765 C203.958356,58.9579831 190.937548,59.4707455 177.748274,62.335464 C164.559,65.2001824 152.993056,70.7149153 143.050442,78.8796625 L174.391021,121.602746 Z" id="Path-6-Copy-6" fill="url(#linearGradient-7)" transform="translate(179.930570, 90.660629) rotate(-270.000000) translate(-179.930570, -90.660629) "></path>
                            <path d="M138.987679,79.278115 C143.84881,75.7085644 149.292608,73.2564269 155.31907,71.9217025 C161.345533,70.5869781 167.496369,70.4141565 173.771577,71.4032376 L182.10285,18.9028519 C168.07161,16.6237159 154.927502,17.1001584 142.670525,20.3321796 C130.413549,23.5642008 118.777852,29.03317 107.763437,36.7390873 L138.987679,79.278115 Z" id="Path-6-Copy-7" fill="url(#linearGradient-8)" transform="translate(144.933144, 48.383582) rotate(-315.000000) translate(-144.933144, -48.383582) "></path>
                        </g>
                        <ellipse id="Oval-6" stroke-opacity="0.320086051" stroke="#8B00FF" stroke-width="10" fill="none" cx="111.589635" cy="111.719451" rx="51.4991784" ry="51.6156076"></ellipse>
                    </g>
                </g>
            </g>
        </g>
    </g>
</svg>