<svg width="773" height="352" viewBox="0 0 773 352" fill="none" xmlns="http://www.w3.org/2000/svg">
<path fill-rule="evenodd" clip-rule="evenodd" d="M386.5 351.908L398.767 343.185C398.936 343.065 399.139 343 399.347 343H764C768.971 343 773 338.971 773 334V9.00001C773 4.02943 768.971 7.62939e-06 764 7.62939e-06H9C4.02944 7.62939e-06 0 4.02946 0 9.00001V334C0 338.971 4.02944 343 9 343H373.653C373.861 343 374.064 343.065 374.233 343.185L386.5 351.908ZM9 339C6.23858 339 4 336.761 4 334V9.00001C4 6.23859 6.23858 4.00001 9 4.00001H764C766.761 4.00001 769 6.23859 769 9.00001V334C769 336.761 766.761 339 764 339H399.347C398.308 339 397.295 339.323 396.449 339.925L386.5 347L376.551 339.925C375.705 339.323 374.692 339 373.653 339H9Z" fill="url(#paint0_linear)"/>
<defs>
<linearGradient id="paint0_linear" x1="20.0179" y1="61.0568" x2="373.084" y2="499.938" gradientUnits="userSpaceOnUse">
<stop stop-color="#34BAFF"/>
<stop offset="1" stop-color="#F91790"/>
</linearGradient>
</defs>
</svg>
