<svg width="50" height="53" viewBox="0 0 50 53" fill="none" xmlns="http://www.w3.org/2000/svg">
<path fill-rule="evenodd" clip-rule="evenodd" d="M20.075 38.4994C22.8466 36.4858 23.5276 34.8313 21.0908 31.4773C18.6539 28.1233 16.87 28.2598 14.0984 30.2734C11.3269 32.2871 9.84531 40.0321 9.84531 40.0321C9.84531 40.0321 17.3034 40.5131 20.075 38.4994Z" fill="url(#paint0_linear)"/>
<path fill-rule="evenodd" clip-rule="evenodd" d="M16.8394 29.166L22.2852 35.0645C22.9484 35.7828 22.9775 36.8809 22.3535 37.6333C21.7212 38.3957 20.6057 38.5363 19.804 37.9546C18.377 36.9191 17.2863 35.909 16.532 34.9243C15.7454 33.8975 14.8781 32.571 13.9301 30.9449L13.9301 30.9449C13.4988 30.2051 13.7458 29.2559 14.483 28.8202C15.2518 28.3657 16.2335 28.5098 16.8394 29.166Z" fill="#4472BA"/>
<path fill-rule="evenodd" clip-rule="evenodd" d="M13.6161 24.3029C19.9949 18.874 24.7596 15.2726 27.9103 13.4987C32.6363 10.838 41.7806 9.21331 44.2011 12.2023C46.6216 15.1914 42.9002 23.8116 39.5144 27.8286C37.2573 30.5067 32.7072 34.3576 25.8642 39.3814C21.986 37.7078 19.1653 35.7088 17.4023 33.3843C15.6393 31.0597 14.3772 28.0326 13.6161 24.3029Z" fill="url(#paint1_linear)"/>
<path fill-rule="evenodd" clip-rule="evenodd" d="M13.6161 24.3029C19.9949 18.874 24.7596 15.2726 27.9103 13.4987C32.6363 10.838 41.7806 9.21331 44.2011 12.2023C46.6216 15.1914 42.9002 23.8116 39.5144 27.8286C37.2573 30.5067 32.7072 34.3576 25.8642 39.3814C21.986 37.7078 19.1653 35.7088 17.4023 33.3843C15.6393 31.0597 14.3772 28.0326 13.6161 24.3029Z" fill="url(#paint2_linear)"/>
<path fill-rule="evenodd" clip-rule="evenodd" d="M13.6161 24.3029C19.9949 18.874 24.7596 15.2726 27.9103 13.4987C32.6363 10.838 41.7806 9.21331 44.2011 12.2023C46.6216 15.1914 42.9002 23.8116 39.5144 27.8286C37.2573 30.5067 32.7072 34.3576 25.8642 39.3814C21.986 37.7078 19.1653 35.7088 17.4023 33.3843C15.6393 31.0597 14.3772 28.0326 13.6161 24.3029Z" fill="url(#paint3_linear)"/>
<path fill-rule="evenodd" clip-rule="evenodd" d="M22.0691 17.4325C22.6873 17.0504 15.5125 16.2464 13.7897 17.0507C12.0106 17.8479 10.2271 19.1227 8.20726 20.5994C7.82036 20.8805 7.96318 21.4416 8.2655 21.7412C8.72284 22.1928 13.1598 24.6921 13.6528 24.3466C13.7149 24.303 15.9162 22.4641 17.87 20.837C19.8378 19.1981 21.327 17.8913 22.0691 17.4325Z" fill="#5488D9"/>
<path fill-rule="evenodd" clip-rule="evenodd" d="M34.4288 32.8068C35.0072 32.6471 33.8936 39.5113 32.6708 40.9672C31.4403 42.4793 29.7473 43.8721 27.7982 45.4409C27.4265 45.7419 26.9215 45.4587 26.7104 45.0892C26.3925 44.5305 25.5045 39.8711 25.8591 39.3462C25.9594 39.1977 27.5769 38.1618 29.3035 36.8194C31.5688 35.0582 34.1007 32.8974 34.4288 32.8068Z" fill="#5488D9"/>
<path fill-rule="evenodd" clip-rule="evenodd" d="M30.9298 27.386C34.736 28.847 39.0059 26.9459 40.4669 23.1398C41.9279 19.3337 40.0269 15.0638 36.2207 13.6027C32.4146 12.1417 28.1447 14.0428 26.6837 17.8489C25.2226 21.655 27.1237 25.9249 30.9298 27.386Z" fill="#5488D9"/>
<path fill-rule="evenodd" clip-rule="evenodd" d="M31.8253 24.9759C34.3628 25.9499 37.2093 24.6825 38.1834 22.1451C39.1574 19.6077 37.89 16.7611 35.3526 15.7871C32.8152 14.813 29.9686 16.0804 28.9945 18.6178C28.0205 21.1553 29.2879 24.0018 31.8253 24.9759Z" fill="white"/>
<defs>
<linearGradient id="paint0_linear" x1="12.6508" y1="43.8935" x2="24.0791" y2="35.5903" gradientUnits="userSpaceOnUse">
<stop stop-color="#FFD300"/>
<stop offset="1" stop-color="#FF3F00"/>
</linearGradient>
<linearGradient id="paint1_linear" x1="0.91168" y1="16.6334" x2="24.5449" y2="52.2586" gradientUnits="userSpaceOnUse">
<stop stop-color="#FFD529"/>
<stop offset="1" stop-color="#FD8440"/>
</linearGradient>
<linearGradient id="paint2_linear" x1="29.799" y1="-10.7272" x2="-15.8415" y2="17.7159" gradientUnits="userSpaceOnUse">
<stop stop-color="#AFE6FF"/>
<stop offset="0.397863" stop-color="#38B2FF"/>
<stop offset="1" stop-color="#7B20D0"/>
</linearGradient>
<linearGradient id="paint3_linear" x1="34.4225" y1="-7.49472" x2="-5.03694" y2="16.1647" gradientUnits="userSpaceOnUse">
<stop stop-color="#5ED3FF"/>
<stop offset="1" stop-color="#13ACE6"/>
</linearGradient>
</defs>
</svg>
